<svg viewBox="0 0 127.94224 92.96647" xmlns="http://www.w3.org/2000/svg">
    <defs>
        <clipPath id="clip-path">
            <path style="fill:#fff" d="M45.35266,36.87654,42.045,36.54459a1.5341,1.5341,0,0,0,1.57179,1.68328A1.40941,1.40941,0,0,0,45.35266,36.87654Z" />
        </clipPath>
        <clipPath id="clip-path-2">
            <path style="fill:#411915" d="M45.35266,36.87654,42.045,36.54459a1.5341,1.5341,0,0,0,1.57179,1.68328A1.40941,1.40941,0,0,0,45.35266,36.87654Z" />
        </clipPath>
    </defs>
    <title>Asset 3</title>
    <g data-name="Layer 2" id="Layer_2">
        <g data-name="Layer 1" id="Layer_1-2">
            <path style="fill:#fff" d="M15.53756,42.3092c-.37076,1.35206,4.411,10.92036,6.55334,12.20643l.50476,25.67656-.71775,5.67909h4.45271L25.18877,63.0147l5.73405-18.255L29.41449,44.039,24.39443,60.411,22.476,44.385l-1.19627-.346.957,7.43818s-4.30663-3.97858-5.144-9.168Z" />
            <path style="fill:#fff" d="M46.20422,23.69032a4.21988,4.21988,0,0,0-4.72881-1.51952,10.27224,10.27224,0,0,0,1.79881-4.11528,3.5123,3.5123,0,0,0-1.914-3.74036,15.83956,15.83956,0,0,1-2.514-.61987c-1.2348-.71134-1.29993-2.44379-1.15916-3.86185a21.85,21.85,0,0,0,.19029-4.72924,5.89069,5.89069,0,0,0-2.11392-4.09885,7.27162,7.27162,0,0,0-5.1823-.9086C23.09574.96115,16.301,5.61006,12.11279,11.874A35.53857,35.53857,0,0,0,6.07143,33.16248,19.855,19.855,0,0,0,9.189,42.976a15.78974,15.78974,0,0,0,7.04631,6.07816,26.861,26.861,0,0,0,3.82847,1.30306,19.65436,19.65436,0,0,0,4.5189.505h1.25366c4.77666-.212,7.89374-2.34055,11.46569-5.519s5.8568-7.36225,8.07039-11.6003a16.68867,16.68867,0,0,0,1.88173-4.96895A6.66333,6.66333,0,0,0,46.20422,23.69032Z" />
            <rect style="fill:#fff" height="4.22792" width="0.65766" x="18.72191" y="81.64336" />
            <rect style="fill:#fff" height="4.22792" width="0.65768" x="23.83597" y="81.64336" />
            <rect style="fill:#fff" height="4.22792" width="0.65769" x="28.95008" y="81.64336" />
            <rect style="fill:#fff" height="0.74642" width="12.16323" x="17.86476" y="82.26566" />
            <path style="fill:#fff" d="M86.16317,43.34124c-.36608,1.33492,4.355,10.78183,6.47019,12.0516l.49837,25.35084-.70864,5.60705h4.39622L95.692,63.7841l5.66129-18.02348-1.48918-.71151L94.90767,61.21347,93.01359,45.3907l-1.1811-.34159.94488,7.34383s-4.252-3.9281-5.07877-9.0517Z" />
            <path style="fill:#fff" d="M116.6636,25.62065a4.16635,4.16635,0,0,0-4.66883-1.50023,10.14175,10.14175,0,0,0,1.776-4.06309,3.46771,3.46771,0,0,0-1.88973-3.6929,15.6378,15.6378,0,0,1-2.48214-.612c-1.21913-.70231-1.28343-2.41279-1.14445-3.81285a21.57274,21.57274,0,0,0,.18787-4.66926,5.816,5.816,0,0,0-2.08709-4.04684,7.17938,7.17938,0,0,0-5.11656-.89708c-7.3904.85344-14.099,5.44337-18.234,11.62787a35.08769,35.08769,0,0,0-5.96474,21.0184,19.60313,19.60313,0,0,0,3.07806,9.689,15.58951,15.58951,0,0,0,6.95692,6.00106,26.5195,26.5195,0,0,0,3.77991,1.28653,19.405,19.405,0,0,0,4.46157.49855h1.23777c4.716-.20928,7.79359-2.31086,11.32024-5.44895s5.7825-7.26887,7.968-11.45315a16.4775,16.4775,0,0,0,1.85785-4.90591A6.57889,6.57889,0,0,0,116.6636,25.62065Z" />
            <rect style="fill:#fff" height="4.17429" width="0.64933" x="89.30711" y="82.17644" />
            <rect style="fill:#fff" height="4.17429" width="0.64933" x="94.3563" y="82.17644" />
            <rect style="fill:#fff" height="4.17429" width="0.64936" x="99.40553" y="82.17644" />
            <rect style="fill:#fff" height="0.73695" width="12.00893" x="88.46084" y="82.79087" />
            <rect style="fill:#fff" height="14.2557" width="2.37595" x="1.44255" y="72.05004" />
            <rect style="fill:#fff" height="14.2557" width="2.37594" x="5.26105" y="72.05004" />
            <rect style="fill:#fff" height="14.2557" width="2.37594" x="9.07953" y="72.05004" />
            <rect style="fill:#fff" height="14.2557" width="2.37595" x="12.89802" y="72.05004" />
            <rect style="fill:#fff" height="14.2557" width="2.37597" x="16.7165" y="72.05004" />
            <rect style="fill:#fff" height="14.2557" width="2.37593" x="20.53502" y="72.05004" />
            <rect style="fill:#fff" height="14.2557" width="2.37593" x="24.35352" y="72.05004" />
            <path style="fill:#fff" d="M.21723,73.6623H26.17281a.21723.21723,0,0,1,.21723.21723v.32924a.21723.21723,0,0,1-.21723.21723H.21725A.21725.21725,0,0,1,0,74.20874v-.32921A.21723.21723,0,0,1,.21723,73.6623Z" />
            <path style="fill:#fff" d="M.21723,84.59013H26.17281a.21723.21723,0,0,1,.21723.21723v.32924a.2172.2172,0,0,1-.2172.2172H.21725A.21725.21725,0,0,1,0,85.13655v-.32919A.21723.21723,0,0,1,.21723,84.59013Z" />
            <rect style="fill:#fff" height="14.2557" width="2.37593" x="102.65534" y="72.05004" />
            <rect style="fill:#fff" height="14.2557" width="2.37593" x="106.47384" y="72.05004" />
            <rect style="fill:#fff" height="14.2557" width="2.37595" x="110.29231" y="72.05004" />
            <rect style="fill:#fff" height="14.2557" width="2.37595" x="114.11081" y="72.05004" />
            <rect style="fill:#fff" height="14.2557" width="2.37597" x="117.92929" y="72.05004" />
            <rect style="fill:#fff" height="14.2557" width="2.37593" x="121.74781" y="72.05004" />
            <rect style="fill:#fff" height="14.2557" width="2.37593" x="125.56631" y="72.05004" />
            <path style="fill:#fff" d="M101.43,73.6623h25.95559a.21723.21723,0,0,1,.21723.21723v.32924a.21723.21723,0,0,1-.21723.21723H101.43a.21725.21725,0,0,1-.21725-.21725v-.32921A.21723.21723,0,0,1,101.43,73.6623Z" />
            <path style="fill:#fff" d="M101.43,84.59013h25.95559a.21723.21723,0,0,1,.21723.21723v.32924a.2172.2172,0,0,1-.2172.2172H101.43a.21725.21725,0,0,1-.21725-.21725v-.32918A.21723.21723,0,0,1,101.43,84.59013Z" />
            <rect style="fill:#fff" height="14.2557" width="2.37593" x="45.13907" y="72.05004" />
            <rect style="fill:#fff" height="14.2557" width="2.37593" x="48.95757" y="72.05004" />
            <rect style="fill:#fff" height="14.2557" width="2.37595" x="52.77604" y="72.05004" />
            <rect style="fill:#fff" height="14.2557" width="2.37595" x="56.59454" y="72.05004" />
            <rect style="fill:#fff" height="14.2557" width="2.37597" x="60.41302" y="72.05004" />
            <rect style="fill:#fff" height="14.2557" width="2.37593" x="64.23154" y="72.05004" />
            <rect style="fill:#fff" height="14.2557" width="2.37593" x="68.05004" y="72.05004" />
            <path style="fill:#fff" d="M43.91374,73.6623H69.86933a.21723.21723,0,0,1,.21723.21723v.32924a.21723.21723,0,0,1-.21723.21723H43.91377a.21725.21725,0,0,1-.21725-.21725v-.32921A.21723.21723,0,0,1,43.91374,73.6623Z" />
            <path style="fill:#fff" d="M43.91375,84.59013H69.86933a.21723.21723,0,0,1,.21723.21723v.32924a.2172.2172,0,0,1-.2172.2172H43.91377a.21725.21725,0,0,1-.21725-.21725v-.32918a.21723.21723,0,0,1,.21723-.21723Z" />
            <path style="fill:#fff" d="M65.51065,8.39749c.18112-1.316-1.67614-2.39859-3.07173-2.511a7.90356,7.90356,0,0,1-1.98735-.17166c-1.36606-.47613-1.91174-2.241-3.24467-2.80316a3.81365,3.81365,0,0,0-3.10989.44006,8.11721,8.11721,0,0,1-3.00014,1.16721c-.93881.06009-1.95835-.28807-2.77972.17054-.61208.34174-.9327,1.047-1.49687,1.46314a3.57027,3.57027,0,0,1-1.9567.53052,5.51234,5.51234,0,0,0-2.01732.32969,1.5944,1.5944,0,0,0-1.01,1.61837Z" />
            <path style="fill:#fff" d="M75.75109,17.43145c.09693-.70416-.89683-1.28341-1.64357-1.34359a4.22961,4.22961,0,0,1-1.06337-.09185c-.73094-.25476-1.02289-1.19908-1.73612-1.49989a2.04048,2.04048,0,0,0-1.664.23548,4.34351,4.34351,0,0,1-1.60529.62453c-.50232.03214-1.04784-.15414-1.48733.09124-.32753.18286-.49906.56026-.80093.78288a1.91019,1.91019,0,0,1-1.047.28387,2.94925,2.94925,0,0,0-1.0794.17642.85306.85306,0,0,0-.54043.86593Z" />
            <polyline style="fill:#fff" points="107.111 84.948 110.428 92.846 77.343 92.966 79.641 81.548" />
            <path style="fill:#fff" d="M105.61078,85.85513c-.344.42963-15.59847,6.48083-22.84716-1.60231L82.47131,50.62l5.36987-6.3812,6.5916.06293,10.38791,18.9565Z" />
            <path style="fill:#fff" d="M81.08528,48.19951s-6.04751,3.1834-3.44137,25.21251l-3.33926,9.55563h8.66959l1.80724-21.81147Z" />
            <path style="fill:#fff" d="M85.88295,54.18818l-.4633,29.79269a4.76435,4.76435,0,0,1-3.85033,1.87426S79.54818,49.36839,80.84069,48.383a49.13208,49.13208,0,0,1,7.00049-4.1442Z" />
            <line style="fill:#fff" x1="81.38596" x2="80.28572" y1="82.96765" y2="58.34773" />
            <path style="fill:#fff" d="M78.36816,25.6452a.13518.13518,0,0,0-.0684.002,1.24648,1.24648,0,0,0-.9159,1.54612c.27928,1.28087,4.436,3.88383,7.2809,2.26562l-1.04065-2.79917Z" />
            <path style="fill:#fff" d="M83.58973,36.29827a1.93532,1.93532,0,1,1-1.46146-2.3141A1.93534,1.93534,0,0,1,83.58973,36.29827Z" />
            <path style="fill:#fff" d="M85.41965,40.73364,87.1291,48.383l5.01505-1.874a1.88255,1.88255,0,0,0,1.14161-2.3129l-2.86229-9.37993Z" />
            <path style="fill:#fff" d="M86.0353,43.49611s3.31394-.3639,3.02875-4.26l-3.48763,2.23354Z" />
            <path style="fill:#fff" d="M81.24958,29.794s-1.03529,6.5573-.0066,9.06974,3.21294,3.98538,6.51622,3.08967c0,0,3.86738-.47134,4.42656-6.30228C93.02761,26.87258,84.95748,24.88545,81.24958,29.794Z" />
            <path style="fill:#fff" d="M90.27111,34.44776s-.67522-1.06887.00681-3.96748-7.16768-2.82181-9.02834-.68625c0,0,1.25111-3.23543,5.94-3.40594s8.48272,2.81979,6.86292,8.05967L92.90186,36.2803Z" />
            <circle style="fill:#fff" cx="92.90095" cy="35.87194" r="2.3485" />
            <path style="fill:#fff" d="M93.90805,35.1113a1.72053,1.72053,0,0,0-2.07313,1.55376" />
            <path style="fill:#fff" d="M82.1372,34.72414a.4428.4428,0,1,1-.35385-.51667A.44282.44282,0,0,1,82.1372,34.72414Z" />
            <path style="fill:#fff" d="M85.87534,34.52917a.44281.44281,0,1,1-.35385-.51667A.44283.44283,0,0,1,85.87534,34.52917Z" />
            <path style="fill:#fff" d="M84.49373,31.75661h0a.60974.60974,0,0,0,.62634.653,7.00411,7.00411,0,0,1,2.08638.22894.53181.53181,0,0,0,.65967-.33577h0a.55526.55526,0,0,0-.29481-.65463,3.49433,3.49433,0,0,0-2.54631-.456A.62662.62662,0,0,0,84.49373,31.75661Z" />
            <path style="fill:#fff" d="M82.76306,31.89354h0c-.01253.35248-.22755.66251-.4643.66873a3.4317,3.4317,0,0,0-1.38983.31951c-.18848.09169-.36854-.03514-.40657-.2991h0a.751.751,0,0,1,.2465-.6552,1.92735,1.92735,0,0,1,1.71045-.563C82.64355,31.40153,82.77314,31.60978,82.76306,31.89354Z" />
            <path style="fill:#fff" d="M82.331,37.7129l3.13628-.00864s-.01336,1.07744-1.61212,1.09331S82.331,37.7129,82.331,37.7129Z" />
            <path style="fill:#fff" d="M83.07314,35.33677s-.62764.50466,0,1.32829" />
            <path style="fill:#fff" d="M92.76922,25.5819a.94571.94571,0,1,1-.78789-1.08072A.9457.9457,0,0,1,92.76922,25.5819Z" />
            <path style="fill:#fff" d="M90.46548,24.727a6.49246,6.49246,0,0,1,3.91636,8.25519L82.79111,26.51512A6.662,6.662,0,0,1,90.46548,24.727Z" />
            <path style="fill:#fff" d="M90.24127,30.672s-2.977-3.94041-7.2667-4.377L78.359,25.64352s3.56891,1.31736,4.98064,2.8315S88.52368,31.10951,90.24127,30.672Z" />
            <path style="fill:#fff" d="M87.1291,48.383l-.39025,1.818a4.30906,4.30906,0,0,0,5.87347-1.3205l.67344-4.68442Z" />
            <path style="fill:#fff" d="M90.02694,54.288s-.40278,26.60528,3.01758,29.0957c6.32229,4.60338,16.04484,3.87442,16.04484,3.87442s-2.12257-14.24592-4.844-31.24926l.52321-9.56393A22.28649,22.28649,0,0,0,93.28576,44.1961Z" />
            <path style="fill:#fff" d="M70.49562,77.106a1.15,1.15,0,0,0-1.08046.92157,11.16894,11.16894,0,0,0-.25423,1.23936s-.97639.87724,0,1.11223,1.33469-1.08046,1.33469-1.08046L70.646,77.106Z" />
            <g style="opacity:0.30000000000000004">
                <path style="fill:#fff" d="M89.6732,55.96823A.50623.50623,0,0,1,89.769,55.648a.82339.82339,0,0,1,.96906-.24063,1.5644,1.5644,0,0,1,.7389,1.18148c.09561.51936.08164,1.05431.17945,1.57325a1.889,1.889,0,0,0,.79041,1.31709c.56394.33279,1.304.182,1.89644.46091.88214.41538,1.08622,1.56167,1.13043,2.53572.08369,1.84407.00391,3.69119-.07589,5.53544q-.25482,5.89035-.50968,11.7807l-.46327,5.90994-2.38947,1.01542L88.87556,65.95412Z" />
            </g>
            <polygon style="fill:#fff" points="93.992 61.025 78.994 58.311 71.994 59.847 87.66 62.668 93.992 61.025" />
            <polygon style="fill:#fff" points="93.992 61.025 78.994 58.311 71.994 59.847 87.66 62.668 93.992 61.025" />
            <path style="fill:#fff" d="M84.40225,67.56527c.20341-2.76423.96147-9.78488,1.53029-12.49759a6.26067,6.26067,0,0,1,.83846-2.32425,2.27884,2.27884,0,0,1,2.10687-1.06318,2.25356,2.25356,0,0,1,1.6166,1.38482,4.92518,4.92518,0,0,1,.37726,2.17526c-.14106,3.353-.43082,7.10985-.42821,10.21865" />
            <path style="fill:#fff" d="M89.48153,60.98248c.003.01327-.2131.06893-.5563.17612A11.16824,11.16824,0,0,0,86.3753,62.315c-.30676.18758-.491.31347-.499.30244-.00352-.00484.03866-.04165.11814-.10423.07906-.06314.19773-.14888.34784-.24981a8.753,8.753,0,0,1,2.56584-1.16363c.17484-.04643.31753-.07923.41714-.09712A.55264.55264,0,0,1,89.48153,60.98248Z" />
            <path style="fill:#fff" d="M89.73094,57.79122c.00287.01416-.22552.064-.58476.17506A7.89836,7.89836,0,0,0,86.56333,59.324c-.29518.23293-.4657.39277-.47571.38239a.60442.60442,0,0,1,.10807-.12452c.07291-.07694.185-.18182.32882-.30526a6.73967,6.73967,0,0,1,2.60466-1.3692c.18324-.04851.33319-.08136.4379-.0978A.60552.60552,0,0,1,89.73094,57.79122Z" />
            <path style="fill:#fff" d="M89.39366,55.22328c.00051.01483-.17789.0229-.45887.07457a3.966,3.966,0,0,0-1.96754.97992c-.21052.19312-.32442.33063-.336.32128-.00467-.00373.01961-.04132.06789-.10653a2.40573,2.40573,0,0,1,.22561-.2589,3.49359,3.49359,0,0,1,2.00033-.99627,2.40524,2.40524,0,0,1,.34259-.02405A.35714.35714,0,0,1,89.39366,55.22328Z" />
            <path style="fill:#fff" d="M87.53141,63.22171l.00261.01437v9.5973c0,.4208-.33858.85584-.9626,1.185a5.82809,5.82809,0,0,1-2.66536.55618h-.01439c-2.27119-.00458-3.628-.89722-3.628-1.74113v-9.5973l.00246-.01437-.00246-.01919a5.701,5.701,0,0,1,1.38837-2.8855,4.0987,4.0987,0,0,0,.59965-2.12348c.00246-.0653.00491-.12334.00491-.17657h-.06278a.50723.50723,0,0,1-.54178-.46455v-.40618a.50725.50725,0,0,1,.54178-.46677h3.41a.5506.5506,0,0,1,.5006.283.43345.43345,0,0,1,.0412.18375v.40618a.50724.50724,0,0,1-.5418.46455h-.06276c0,.05323.00245.11127.00473.17657a4.10085,4.10085,0,0,0,.59983,2.12348,5.69921,5.69921,0,0,1,1.38835,2.8855Z" />
            <path style="fill:#fff"
                d="M87.53141,63.22171a.90267.90267,0,0,0-.00531-.09819,2.30086,2.30086,0,0,0-.03535-.28705,3.69244,3.69244,0,0,0-.39678-1.04081,14.137,14.137,0,0,0-.982-1.48907,3.05327,3.05327,0,0,1-.445-1.0323,5.6206,5.6206,0,0,1-.15412-1.25729l-.00048-.02936.02876.00108a.62645.62645,0,0,0,.36228-.08325.431.431,0,0,0,.20838-.30119c.00775-.128.0017-.27288.00323-.4113a.40916.40916,0,0,0-.148-.35436.56836.56836,0,0,0-.38508-.127l-.4474.00072-.925.00139-1.96442.00252a.56769.56769,0,0,0-.44183.15774.40156.40156,0,0,0-.10734.20815,2.26,2.26,0,0,0-.00594.25525c.00133.08562-.00263.18055.00306.2595a.39513.39513,0,0,0,.10264.21555.56762.56762,0,0,0,.46092.16555l.03953-.00246-.00057.04143a5.8,5.8,0,0,1-.12775,1.16315,3.20368,3.20368,0,0,1-.45527,1.12c-.23443.33356-.47636.66538-.69778,1.01775a5.424,5.424,0,0,0-.56609,1.12015,2.58163,2.58163,0,0,0-.13522.61805c-.011.20906-.006.431-.00709.64818l.00035,1.32384.0003,2.71682-.00088,4.71852a2.87343,2.87343,0,0,0,.02563.55656,1.08533,1.08533,0,0,0,.26208.46911,2.56355,2.56355,0,0,0,.89606.61018,5,5,0,0,0,1.03171.30766,6.86034,6.86034,0,0,0,1.04915.1191,7.2015,7.2015,0,0,0,2.02-.184,4.4138,4.4138,0,0,0,.9119-.33056,2.32616,2.32616,0,0,0,.7422-.55759,1.14338,1.14338,0,0,0,.21837-.38873,1.4612,1.4612,0,0,0,.03605-.441l.00128-.88434.0028-1.66238c.0058-2.11634.01051-3.82934.01377-5.01654.004-1.18436.01424-1.83918.01424-1.83918a.47974.47974,0,0,1,.00705.1206l.00429.35468.00814,1.3639c.00326,1.1872.008,2.9002.01376,5.01654l.00281,1.66238.00128.88434-.00057.22709a.90669.90669,0,0,1-.03726.2343,1.21374,1.21374,0,0,1-.23064.41408,2.39544,2.39544,0,0,1-.7641.57791,4.48414,4.48414,0,0,1-.92684.33837,7.2667,7.2667,0,0,1-2.04182.18989,6.928,6.928,0,0,1-1.06134-.11895,5.07674,5.07674,0,0,1-1.04922-.31166,2.64272,2.64272,0,0,1-.926-.63058,1.16759,1.16759,0,0,1-.28116-.50461,2.89971,2.89971,0,0,1-.02849-.57655l-.00088-4.71852.0003-2.71682.00035-1.32384c.00133-.22006-.004-.43258.00781-.65491a2.66424,2.66424,0,0,1,.14-.63864,5.49967,5.49967,0,0,1,.57565-1.13726c.22327-.35445.46768-.68883.70079-1.01958a3.12684,3.12684,0,0,0,.44453-1.091,5.72918,5.72918,0,0,0,.12783-1.14583l.03894.03893a.64509.64509,0,0,1-.51775-.19163.47185.47185,0,0,1-.12161-.2581c-.00665-.09748-.0017-.179-.00311-.26877a2.208,2.208,0,0,1,.0076-.26821.47678.47678,0,0,1,.12765-.247.64191.64191,0,0,1,.49571-.17952l1.96442.00251.925.00138.4474.00073a.63218.63218,0,0,1,.42581.14343.47285.47285,0,0,1,.16862.40225c-.00231.14211.00406.275-.00537.41959a.48975.48975,0,0,1-.23716.34247.68426.68426,0,0,1-.39269.09019l.02823-.02823a4.15846,4.15846,0,0,0,.57893,2.26414,13.79357,13.79357,0,0,1,.97273,1.50009,3.60518,3.60518,0,0,1,.38529,1.05245,2.01508,2.01508,0,0,1,.02778.28949A.28957.28957,0,0,1,87.53141,63.22171Z" />
            <path style="fill:#fff" d="M85.34809,57.9936a26.62977,26.62977,0,0,1-3.03631,0,26.62363,26.62363,0,0,1,3.03631,0Z" />
            <path style="fill:#fff" d="M87.22778,64.50391a1.088,1.088,0,0,0-1.0403.044,3.91764,3.91764,0,0,1-.99792.43223,1.92212,1.92212,0,0,1-1.21959-.312,7.535,7.535,0,0,0-1.131-.61634,2.20114,2.20114,0,0,0-2.269.53452v8.24128s.453,1.40609,3.64016,1.18514,2.93607-1.627,2.93607-1.627Z" />
            <path style="fill:#fff" d="M78.78414,58.89474a2.33607,2.33607,0,0,0-1.96841-2.66726.23282.23282,0,0,0-.16714.01938.23772.23772,0,0,0-.06245.22493,2.82161,2.82161,0,0,0,2.19519,2.48988" />
            <path style="fill:#fff" d="M75.51111,63.20484A3.11932,3.11932,0,0,0,77.996,65.2769c.20971.0073.36827-.13051.56857-.14224a1.288,1.288,0,0,1,.3356.12629.46676.46676,0,0,0,.17491.03959,3.25353,3.25353,0,0,0,2.62966-2.0957c.86669-1.78566.59894-3.70393-.597-4.28672a2.847,2.847,0,0,0-.48937-.19124,2.0108,2.0108,0,0,0-.5947-.06978,4.44507,4.44507,0,0,0-1.359.30753c-.01845.00712-.03959.01424-.05824.02116a2.78736,2.78736,0,0,0-2.50088-.06767C74.90969,59.50091,74.64385,61.41918,75.51111,63.20484Z" />
            <path style="fill:#fff" d="M75.5321,61.3961a.90333.90333,0,0,1-.10072-.35888,1.93369,1.93369,0,0,1,.607-1.64262.90323.90323,0,0,1,.30988-.20711c.00847.01292-.11053.09032-.26728.25114a2.112,2.112,0,0,0-.58866,1.59284C75.50687,61.25557,75.54694,61.39179,75.5321,61.3961Z" />
            <path style="fill:#fff" d="M75.75179,62.245c-.0233.00539-.06261-.07872-.08779-.18782s-.0267-.20193-.00338-.20732.06261.07871.0878.18784S75.7751,62.23961,75.75179,62.245Z" />
            <path style="fill:#fff" d="M81.25531,55.97356c.0063.0155-.22374.10183-.56042.30371a4.497,4.497,0,0,0-.55965.39944A4.47548,4.47548,0,0,0,79.075,57.97232a4.49625,4.49625,0,0,0-.28082.62769c-.13127.37-.17037.61248-.18681.60937a.65922.65922,0,0,1,.01767-.1717,1.613,1.613,0,0,1,.03984-.19845c.01959-.07647.03767-.165.07126-.25882a3.98945,3.98945,0,0,1,.26846-.6457,4.20638,4.20638,0,0,1,1.07983-1.31956,3.9887,3.9887,0,0,1,.57978-.39089c.08527-.05149.16852-.08674.23958-.12107a1.61361,1.61361,0,0,1,.18668-.07832A.65829.65829,0,0,1,81.25531,55.97356Z" />
            <path style="fill:#fff" d="M71.9937,59.84686,70.10845,83.62219l17.56663,4.24663s6.127-2.07751,6.21043-2.21938.10643-24.62446.10643-24.62446l-6.33186,1.64265Z" />
            <path style="fill:#fff" d="M93.88584,86.03928l-.00242-.36454" />
            <path style="fill:#fff" d="M87.66791,87.79975s-.00321-.042-.00545-.12426l-.00795-.36544-.0212-1.40994c-.01525-1.22691-.0247-3.00791-.02338-5.22394.0079-2.21661.01738-4.86736.028-7.83389.01154-2.96687.01981-6.24985-.02411-9.72928l.04628-.44537h0c1.00232-.26013,1.97941-.5134,3.05389-.79226,1.09449-.28383,2.25656-.58552,3.278-.85039l.04.38912-.0003.05586c-.0356,6.9422-.06719,13.09747-.08988,17.51966-.0151,2.20862-.02726,3.98395-.03564,5.20991l-.01369,1.4062" />
            <path style="fill:#fff" d="M110.29942,61.93334l-6.66112,1.60812.76843,6.27735-12.74146,9.569c-.51.07129-1.0312.15344-1.321.2259-.697.17426-1.92739,1.92234-2.27587,2.09659l-2.483,1.91669s-.21781.87123.91478.697a10.43888,10.43888,0,0,0,2.52654-1.04547c.1307,0,.52753.26545.34011.82766-.16679.50028-.84949,2.21525-.84949,2.21525l-.84222,1.54738s3.64543.11909,4.66529-1.23349c.69237-.91826,2.8237-3.5219,2.8237-3.5219S110.162,75.73471,111.06228,74.19C112.2848,72.09244,110.29942,61.93334,110.29942,61.93334Z" />
            <path style="fill:#fff" d="M107.23168,72.52339a4.16167,4.16167,0,0,0-.02991-.686,2.38924,2.38924,0,0,0-2.25412-2.03949,4.16068,4.16068,0,0,0-.68547.03863.64831.64831,0,0,1,.179-.05462,2.13516,2.13516,0,0,1,.50912-.04521,2.36907,2.36907,0,0,1,2.31206,2.0919,2.13445,2.13445,0,0,1,.00577.51111A.64792.64792,0,0,1,107.23168,72.52339Z" />
            <path style="fill:#fff" d="M90.67072,85.52885a1.93006,1.93006,0,0,1-.08753.41986,4.46742,4.46742,0,0,1-.36819.97027,1.948,1.948,0,0,1-.70181.76657,1.06417,1.06417,0,0,1-.2948.11946.26031.26031,0,0,1-.11592.01233,2.74374,2.74374,0,0,0,.37862-.184,2.0895,2.0895,0,0,0,.65779-.75577,5.79682,5.79682,0,0,0,.38562-.94644A2.31367,2.31367,0,0,1,90.67072,85.52885Z" />
            <path style="fill:#fff" d="M92.43741,84.94853a1.74957,1.74957,0,0,1-.12865.40513,7.98785,7.98785,0,0,1-.98722,1.793,1.74891,1.74891,0,0,1-.27352.32531,2.51974,2.51974,0,0,1,.2232-.36022c.14259-.21843.33381-.52356.52577-.87168.19144-.34823.347-.673.45537-.91024A2.51915,2.51915,0,0,1,92.43741,84.94853Z" />
            <path style="fill:#fff" d="M112.0695,62.81474l-10.079,2.76884L99.8926,44.71095l5.29853,1.6816a7.56277,7.56277,0,0,1,4.83769,5.81061Z" />
            <polyline style="fill:#fff" points="20.148 77.865 18.221 92.966 44.264 92.966 44.082 82.58" />
            <polyline style="fill:#fff" points="55.115 69.476 42.478 74.449 41.146 66.497 53.67 64.522" />
            <path style="fill:#fff" d="M36.4336,42.95174a20.38191,20.38191,0,0,0-7.10015.62314A5.59125,5.59125,0,0,0,26.56,45.28116a2.76775,2.76775,0,0,0-.33694,3.08321c.70143,1.12224,2.22851,1.35033,3.5515,1.31672A22.99921,22.99921,0,0,0,34.792,48.94a5.23861,5.23861,0,0,0,2.83146-1.43934,2.82047,2.82047,0,0,0-1.07664-4.42643" />
            <path style="fill:#fff" d="M47.17594,50.34962s4.18785,3.52888-1.53662,21.96832l-5.76591.69738Z" />
            <path style="fill:#fff" d="M59.355,64.699s-1.85568-1.72393.24146-4.127l3.15973-3.76153a.726.726,0,0,1,1.08713-.00611h0a.726.726,0,0,1,.1109.80412l-1.08,2.29962,5.61841-3.09011a.78671.78671,0,0,1,1.13675.37734h0a.78673.78673,0,0,1-.29652.95266l-3.64952,2.32707.04707.21466L69.84483,58.825a.75791.75791,0,0,1,1.00141.60748h0a.75791.75791,0,0,1-.49678.82188l-3.99791,2.06848.03045.27023,3.82844-1.23588c.34341-.07109,1.30914.157,1.36773.50278h0c.05468.32276-.78329.63231-1.10218.70639l-3.98763,1.573.01874.24995,3.658-1.029a.54632.54632,0,0,1,.56341.63679h0a.54631.54631,0,0,1-.49208.45328l-4.18918,1.34387s-3.91319,2.17147-5.45073.59951Z" />
            <polygon style="fill:#fff" points="53.67 64.522 59.972 62.525 62.254 66.445 55.115 69.476 53.67 64.522" />
            <polygon style="fill:#fff" points="55.985 63.3 58.62 62.525 60.9 66.99 57.646 68.401 55.985 63.3" />
            <path style="fill:#fff" d="M25.31385,85.27057s9.032,7.24478,17.63593.96622l.48157-17.85211,1.20813-12.12284-1.6897-2.835-5.0311-1.29321-6.0196.59735-.79,10.6537Z" />
            <path style="fill:#fff" d="M34.842,50.00029s4.28356,4.77562,8.35877.89145L41.21287,45.352,34.416,45.11809Z" />
            <path style="fill:#fff" d="M42.7296,52.4575S41.002,73.67471,41.91745,85.91967a.58066.58066,0,0,0,1.03233.31712h0a7.89581,7.89581,0,0,0,1.13239-3.65688L45.139,63.53562l2.92525-10.05777a3.06634,3.06634,0,0,0-.87673-3.1176,16.35183,16.35183,0,0,0-4.45537-2.83244Z" />
            <path style="fill:#fff" d="M36.068,54.477s1.342,16.59713-5.51056,31.26024a1.73717,1.73717,0,0,1-2.01365.94618c-1.80472-.4731-5.22476-1.87092-8.39551-7.22156l1.601-27.234a3.27868,3.27868,0,0,1,1.55687-2.59815,30.37063,30.37063,0,0,1,7.58272-3.33352A12.09574,12.09574,0,0,1,36.068,54.477Z" />
            <path style="fill:#fff" d="M23.28939,49.64s7.27553,6.81683,1.84316,20.78576l-.91244,4.93791a5.06865,5.06865,0,0,1-6.17357,4.00614h0a5.06347,5.06347,0,0,1-3.82269-5.6841C15.38189,66.12066,18.224,51.70385,23.28939,49.64Z" />
            <path style="fill:#fff" d="M37.50469,71.72474s-1.24617-2.20512,1.48041-3.85988l4.15082-2.62751a.726.726,0,0,1,1.0379.32354h0a.726.726,0,0,1-.13794.79993L42.31,68.22518l6.29053-1.24275a.78672.78672,0,0,1,.969.704h0a.78671.78671,0,0,1-.57119.818l-4.183,1.11208-.02019.21881,4.48595-.53065a.7579.7579,0,0,1,.77031.88231h0a.75793.75793,0,0,1-.72242.63275l-4.43669.76008-.05287.26676,4.023-.018a.619.619,0,0,1,.54891.70206h0a.61906.61906,0,0,1-.66216.53076l-4.27679.291-.05787.24389,3.79782.12762a.54632.54632,0,0,1,.344.77755h0a.54634.54634,0,0,1-.60629.2829L43.5506,74.796s-4.38715.8839-5.37621-1.08Z" />
            <polygon style="fill:#fff" points="31.274 70.13 38.752 69.84 39.738 74.267 31.754 75.48 31.274 70.13" />
            <polygon style="fill:#fff" points="34.403 69.267 37.657 69.084 38.512 74.768 34.947 75.236 34.403 69.267" />
            <path style="fill:#fff" d="M46.98084,28.73685a3.95675,3.95675,0,0,1-.66762,2.80746l-.86793-3.072Z" />
            <circle style="fill:#fff" cx="45.76451" cy="35.06796" r="1.93115" />
            <polygon style="fill:#fff" points="42.241 39.743 41.491 47.528 34.706 45.137 36.556 34.5 42.241 39.743" />
            <path style="fill:#fff" d="M41.91417,43.1372s-3.31116-.14141-3.49252-4.63656l3.75482,1.99014Z" />
            <path style="fill:#fff" d="M46.46913,28.97194s1.03306,6.54316.00658,9.0502-3.206,3.97678-6.50215,3.083c0,0-3.85907-.47033-4.417-6.28869C34.7165,26.0568,42.76922,24.074,46.46913,28.97194Z" />
            <path style="fill:#fff" d="M45.58342,33.89142a.44185.44185,0,1,0,.35309-.51555A.44184.44184,0,0,0,45.58342,33.89142Z" />
            <path style="fill:#fff" d="M41.85335,33.69687a.44185.44185,0,1,0,.35309-.51554A.44184.44184,0,0,0,41.85335,33.69687Z" />
            <path style="fill:#fff" d="M43.20056,30.95487h0a.6084.6084,0,0,1-.54585.7192,6.9897,6.9897,0,0,0-2.04177.46647.53065.53065,0,0,1-.69242-.25706h0a.55408.55408,0,0,1,.21706-.68274,3.48672,3.48672,0,0,1,2.47159-.74432A.62528.62528,0,0,1,43.20056,30.95487Z" />
            <path style="fill:#fff" d="M44.9675,31.10348h0c-.04858.34878.114.68991.35128.73589a3.54714,3.54714,0,0,1,1.34364.54826c.1738.12192.37711.02749.46121-.22572h0a.73543.73543,0,0,0-.13439-.68594,1.97716,1.97716,0,0,0-1.6241-.84175C45.17322,30.63967,45.00661,30.82268,44.9675,31.10348Z" />
            <path style="fill:#fff" d="M45.35266,36.87654,42.045,36.54459a1.5341,1.5341,0,0,0,1.57179,1.68328A1.40941,1.40941,0,0,0,45.35266,36.87654Z" />
            <g style="clip-path:url(#clip-path)">
                <polygon style="fill:#fff" points="45.515 37.411 41.613 37.035 41.778 36.051 46.247 36.113 45.515 37.411" />
                <circle style="fill:#fff" cx="42.78956" cy="38.46267" r="1.10341" />
            </g>
            <path style="fill:#fff" d="M42.96348,28.0977a10.2043,10.2043,0,0,0-4.60959.86471c.45363,5.73019-1.44234,5.88547-1.44234,5.88547l-2.45555.09678c-3.226-7.278-.17818-10.854,3.68755-11.96766a5.65268,5.65268,0,0,1,3.02474-.00749c1.97523.52928,5.89639,1.26659,6.57876-.98342C47.74705,21.98609,50.70763,28.40008,42.96348,28.0977Z" />
            <polygon style="fill:#fff" points="34.842 35.444 35.656 38.972 36.754 36.142 34.842 35.444" />
            <circle style="fill:#fff" cx="35.35454" cy="34.62748" r="2.34343" transform="translate(-4.48323 63.98659) rotate(-80.79374)" />
            <path style="fill:#fff" d="M34.34961,33.86851a1.71679,1.71679,0,0,1,2.06866,1.55037" />
            <rect style="fill:#fff" height="15.37334" rx="0.93413" transform="matrix(0.96528, 0.2612, -0.2612, 0.96528, 17.84557, -15.11916)" width="7.76335" x="61.91954" y="51.88897" />
            <path style="fill:#fff" d="M59.056,55.81629H72.54638a.81917.81917,0,0,1,.81917.81917v5.88035a.81918.81918,0,0,1-.81918.81918H59.056a.81919.81919,0,0,1-.81919-.81919V56.63548a.81918.81918,0,0,1,.81918-.81918Z" transform="translate(140.49601 11.62002) rotate(105.14136)" />
            <path style="fill:#fff" d="M67.11227,52.59594a.08634.08634,0,1,1,.0451-.16668l1.07177.29a.08634.08634,0,1,1-.04511.16668Z" />
            <path style="fill:#fff" d="M66.53763,52.44045a.08634.08634,0,1,1,.10587-.0608A.08645.08645,0,0,1,66.53763,52.44045Z" />
            <path style="fill:#fff" d="M66.84436,52.52345a.08634.08634,0,1,1,.10587-.0608A.08644.08644,0,0,1,66.84436,52.52345Z" />
            <path style="fill:#fff" d="M68.76335,53.04271a.08634.08634,0,1,1,.10586-.06079A.08643.08643,0,0,1,68.76335,53.04271Z" />
            <path style="fill:#fff" d="M68.45662,52.95971a.08634.08634,0,1,1,.10586-.06079A.08643.08643,0,0,1,68.45662,52.95971Z" />
            <path style="fill:#fff" d="M70.69508,53.171l-1.29729-.351a.22789.22789,0,0,0-.2542.10149l-.15941.26191a.2552.2552,0,0,1-.28464.11366l-2.235-.6048a.25517.25517,0,0,1-.18849-.24167l-.00558-.30656a.2279.2279,0,0,0-.16834-.21583l-1.0088-.273a.83221.83221,0,0,0-1.0207.58595l-3.507,12.96033a.56245.56245,0,0,0,.396.68984l5.90021,1.59657a.494.494,0,0,0,.60585-.3478l3.603-13.31492A.53335.53335,0,0,0,70.69508,53.171Z" />
            <path style="fill:#fff" d="M64.07259,52.24109l-3.507,12.96033a.56245.56245,0,0,0,.396.68984l5.90021,1.59657a.494.494,0,0,0,.60585-.3478l3.50786-12.96346" />
            <path style="fill:#fff" d="M70.49062,56.37108h.01158a0,0,0,0,1,0,0V58.138a0,0,0,0,1,0,0h-.01158a.03929.03929,0,0,1-.03929-.03929v-1.6883A.03929.03929,0,0,1,70.49062,56.37108Z" transform="translate(123.55192 130.93004) rotate(-164.85864)" />
            <path style="fill:#fff" d="M62.7462,55.39213h.01347a0,0,0,0,1,0,0V56.5108a0,0,0,0,1,0,0H62.7462a.03929.03929,0,0,1-.03929-.03929V55.43142a.03929.03929,0,0,1,.03929-.03929Z" transform="translate(16.79243 -14.44363) rotate(15.14136)" />
            <path style="fill:#fff" d="M63.12794,53.98138h.01347a0,0,0,0,1,0,0V55.1a0,0,0,0,1,0,0h-.01347a.03929.03929,0,0,1-.03929-.03929V54.02067A.03929.03929,0,0,1,63.12794,53.98138Z" transform="translate(16.43719 -14.59232) rotate(15.14136)" />
            <path style="fill:#fff" d="M63.49544,52.93377H63.506a0,0,0,0,1,0,0v.52014a0,0,0,0,1,0,0h-.01057a.03492.03492,0,0,1-.03492-.03492V52.9687A.03493.03493,0,0,1,63.49544,52.93377Z" transform="translate(16.09817 -14.73526) rotate(15.14136)" />
            <rect style="fill:#fff" height="0.07476" transform="translate(16.35314 -16.2782) rotate(15.14136)" width="0.05329" x="69.38868" y="53.3442" />
            <rect style="fill:#fff" height="0.10807" transform="translate(16.35792 -16.30099) rotate(15.14136)" width="0.05329" x="69.4768" y="53.33414" />
            <rect style="fill:#fff" height="0.13305" transform="translate(16.36372 -16.32336) rotate(15.14136)" width="0.05329" x="69.56384" y="53.33226" />
            <rect style="fill:#fff" height="0.18135" transform="translate(16.36668 -16.34691) rotate(15.14136)" width="0.05329" x="69.65393" y="53.30747" />
            <path style="fill:#fff" d="M70.44155,53.70189l-.25836-.06991a.01922.01922,0,0,1-.01351-.02354l.03475-.12842a.01913.01913,0,0,1,.02335-.01356l.25855.06995.003.00229.00047.00372-.01146.04233.02766.00749.00345.006-.01675.06189-.006.00345-.02766-.00748-.01145.04233Zm.03749-.1573-.25382-.06866a.00917.00917,0,0,0-.01132.00665l-.03475.12843a.00939.00939,0,0,0,.00661.01151l.25362.06863.01146-.04234.006-.00345.02766.00749.01418-.05243-.02765-.00748-.00345-.006Z" />
            <polygon style="fill:#fff" points="70.203 53.605 70.232 53.5 70.452 53.56 70.44 53.607 70.437 53.617 70.424 53.664 70.203 53.605" />
            <path style="fill:#fff" d="M69.93068,53.553a.01956.01956,0,1,0-.024.01377A.01956.01956,0,0,0,69.93068,53.553Z" />
            <path style="fill:#fff" d="M69.85971,53.485l.01759.03062a.059.059,0,0,1,.08059.02181l.03062-.01757a.09424.09424,0,0,0-.1288-.03486Z" />
            <path style="fill:#fff" d="M69.94588,53.422a.14958.14958,0,0,0-.11385.01478l.01757.03062a.11452.11452,0,0,1,.15652.04235l.03063-.01758A.14963.14963,0,0,0,69.94588,53.422Z" />
            <path style="fill:#fff" d="M69.80343,53.38694l.01758.03063a.17191.17191,0,0,1,.23493.06356l.03063-.01757a.20719.20719,0,0,0-.28314-.07662Z" />
            <path style="fill:#fff" d="M60.14124,59.9986s2.72038-.13778,3.2468-.69109.89968-.0254.89968-.0254a1.48484,1.48484,0,0,1-.3915,1.44321,21.62291,21.62291,0,0,1-3.13033,1.651A2.85461,2.85461,0,0,1,60.14124,59.9986Z" />
            <path style="fill:#fff" d="M30.8889,46.29618a39.44859,39.44859,0,0,1,3.8168-1.15949s4.18406,1.73067,4.61165,4.50333c0,0,.283-2.83861,2.28036-3.21555a2.01945,2.01945,0,0,0,1.13446,1.10334c.9482.45059.96435,4.886.96435,4.886l-4.48611,2.29608-6.16568-2.69248Z" />
            <path style="fill:#fff" d="M31.27448,70.12964l.4791,5.35058-12.1478,1.57031a3.18193,3.18193,0,0,1-3.58984-3.15567h0a3.18192,3.18192,0,0,1,3.02938-3.17826Z" />
            <line style="fill:#fff" x1="36.75356" x2="36.75356" y1="49.64002" y2="61.21124" />
            <line style="fill:#fff" x1="41.84574" x2="43.64121" y1="49.92328" y2="59.90816" />
            <rect style="fill:#fff" height="2.6462" rx="1.3231" transform="translate(-2.99626 4.59138) rotate(-6.38061)" width="14.94404" x="32.21629" y="27.85025" />
            <path style="fill:#fff" d="M44.60138,34.74536s.52678.98133-.14773,1.4773" />
            <g style="opacity:0.6000000000000001">
                <path style="fill:#e0e0e0" d="M15.53756,42.3092c-.37076,1.35206,4.411,10.92036,6.55334,12.20643l.50476,25.67656-.71775,5.67909h4.45271L25.18877,63.0147l5.73405-18.255L29.41449,44.039,24.39443,60.411,22.476,44.385l-1.19627-.346.957,7.43818s-4.30663-3.97858-5.144-9.168Z" />
                <path style="fill:#e0e0e0" d="M46.20422,23.69032a4.21988,4.21988,0,0,0-4.72881-1.51952,10.27224,10.27224,0,0,0,1.79881-4.11528,3.5123,3.5123,0,0,0-1.914-3.74036,15.83956,15.83956,0,0,1-2.514-.61987c-1.2348-.71134-1.29993-2.44379-1.15916-3.86185a21.85,21.85,0,0,0,.19029-4.72924,5.89069,5.89069,0,0,0-2.11392-4.09885,7.27162,7.27162,0,0,0-5.1823-.9086C23.09574.96115,16.301,5.61006,12.11279,11.874A35.53857,35.53857,0,0,0,6.07143,33.16248,19.855,19.855,0,0,0,9.189,42.976a15.78974,15.78974,0,0,0,7.04631,6.07816,26.861,26.861,0,0,0,3.82847,1.30306,19.65436,19.65436,0,0,0,4.5189.505h1.25366c4.77666-.212,7.89374-2.34055,11.46569-5.519s5.8568-7.36225,8.07039-11.6003a16.68867,16.68867,0,0,0,1.88173-4.96895A6.66333,6.66333,0,0,0,46.20422,23.69032Z" />
                <rect style="fill:#e0e0e0" height="4.22792" width="0.65766" x="18.72191" y="81.64336" />
                <rect style="fill:#e0e0e0" height="4.22792" width="0.65768" x="23.83597" y="81.64336" />
                <rect style="fill:#e0e0e0" height="4.22792" width="0.65769" x="28.95008" y="81.64336" />
                <rect style="fill:#e0e0e0" height="0.74642" width="12.16323" x="17.86476" y="82.26566" />
                <path style="fill:#e0e0e0" d="M86.16317,43.34124c-.36608,1.33492,4.355,10.78183,6.47019,12.0516l.49837,25.35084-.70864,5.60705h4.39622L95.692,63.7841l5.66129-18.02348-1.48918-.71151L94.90767,61.21347,93.01359,45.3907l-1.1811-.34159.94488,7.34383s-4.252-3.9281-5.07877-9.0517Z" />
                <path style="fill:#e0e0e0" d="M116.6636,25.62065a4.16635,4.16635,0,0,0-4.66883-1.50023,10.14175,10.14175,0,0,0,1.776-4.06309,3.46771,3.46771,0,0,0-1.88973-3.6929,15.6378,15.6378,0,0,1-2.48214-.612c-1.21913-.70231-1.28343-2.41279-1.14445-3.81285a21.57274,21.57274,0,0,0,.18787-4.66926,5.816,5.816,0,0,0-2.08709-4.04684,7.17938,7.17938,0,0,0-5.11656-.89708c-7.3904.85344-14.099,5.44337-18.234,11.62787a35.08769,35.08769,0,0,0-5.96474,21.0184,19.60313,19.60313,0,0,0,3.07806,9.689,15.58951,15.58951,0,0,0,6.95692,6.00106,26.5195,26.5195,0,0,0,3.77991,1.28653,19.405,19.405,0,0,0,4.46157.49855h1.23777c4.716-.20928,7.79359-2.31086,11.32024-5.44895s5.7825-7.26887,7.968-11.45315a16.4775,16.4775,0,0,0,1.85785-4.90591A6.57889,6.57889,0,0,0,116.6636,25.62065Z" />
                <rect style="fill:#e0e0e0" height="4.17429" width="0.64933" x="89.30711" y="82.17644" />
                <rect style="fill:#e0e0e0" height="4.17429" width="0.64933" x="94.3563" y="82.17644" />
                <rect style="fill:#e0e0e0" height="4.17429" width="0.64936" x="99.40553" y="82.17644" />
                <rect style="fill:#e0e0e0" height="0.73695" width="12.00893" x="88.46084" y="82.79087" />
                <rect style="fill:#e0e0e0" height="14.2557" width="2.37595" x="1.44255" y="72.05004" />
                <rect style="fill:#e0e0e0" height="14.2557" width="2.37594" x="5.26105" y="72.05004" />
                <rect style="fill:#e0e0e0" height="14.2557" width="2.37594" x="9.07953" y="72.05004" />
                <rect style="fill:#e0e0e0" height="14.2557" width="2.37595" x="12.89802" y="72.05004" />
                <rect style="fill:#e0e0e0" height="14.2557" width="2.37597" x="16.7165" y="72.05004" />
                <rect style="fill:#e0e0e0" height="14.2557" width="2.37593" x="20.53502" y="72.05004" />
                <rect style="fill:#e0e0e0" height="14.2557" width="2.37593" x="24.35352" y="72.05004" />
                <path style="fill:#e0e0e0" d="M.21723,73.6623H26.17281a.21723.21723,0,0,1,.21723.21723v.32924a.21723.21723,0,0,1-.21723.21723H.21725A.21725.21725,0,0,1,0,74.20874v-.32921A.21723.21723,0,0,1,.21723,73.6623Z" />
                <path style="fill:#e0e0e0" d="M.21723,84.59013H26.17281a.21723.21723,0,0,1,.21723.21723v.32924a.2172.2172,0,0,1-.2172.2172H.21725A.21725.21725,0,0,1,0,85.13655v-.32919A.21723.21723,0,0,1,.21723,84.59013Z" />
                <rect style="fill:#e0e0e0" height="14.2557" width="2.37593" x="102.65534" y="72.05004" />
                <rect style="fill:#e0e0e0" height="14.2557" width="2.37593" x="106.47384" y="72.05004" />
                <rect style="fill:#e0e0e0" height="14.2557" width="2.37595" x="110.29231" y="72.05004" />
                <rect style="fill:#e0e0e0" height="14.2557" width="2.37595" x="114.11081" y="72.05004" />
                <rect style="fill:#e0e0e0" height="14.2557" width="2.37597" x="117.92929" y="72.05004" />
                <rect style="fill:#e0e0e0" height="14.2557" width="2.37593" x="121.74781" y="72.05004" />
                <rect style="fill:#e0e0e0" height="14.2557" width="2.37593" x="125.56631" y="72.05004" />
                <path style="fill:#e0e0e0" d="M101.43,73.6623h25.95559a.21723.21723,0,0,1,.21723.21723v.32924a.21723.21723,0,0,1-.21723.21723H101.43a.21725.21725,0,0,1-.21725-.21725v-.32921A.21723.21723,0,0,1,101.43,73.6623Z" />
                <path style="fill:#e0e0e0" d="M101.43,84.59013h25.95559a.21723.21723,0,0,1,.21723.21723v.32924a.2172.2172,0,0,1-.2172.2172H101.43a.21725.21725,0,0,1-.21725-.21725v-.32918A.21723.21723,0,0,1,101.43,84.59013Z" />
                <rect style="fill:#e0e0e0" height="14.2557" width="2.37593" x="45.13907" y="72.05004" />
                <rect style="fill:#e0e0e0" height="14.2557" width="2.37593" x="48.95757" y="72.05004" />
                <rect style="fill:#e0e0e0" height="14.2557" width="2.37595" x="52.77604" y="72.05004" />
                <rect style="fill:#e0e0e0" height="14.2557" width="2.37595" x="56.59454" y="72.05004" />
                <rect style="fill:#e0e0e0" height="14.2557" width="2.37597" x="60.41302" y="72.05004" />
                <rect style="fill:#e0e0e0" height="14.2557" width="2.37593" x="64.23154" y="72.05004" />
                <rect style="fill:#e0e0e0" height="14.2557" width="2.37593" x="68.05004" y="72.05004" />
                <path style="fill:#e0e0e0" d="M43.91374,73.6623H69.86933a.21723.21723,0,0,1,.21723.21723v.32924a.21723.21723,0,0,1-.21723.21723H43.91377a.21725.21725,0,0,1-.21725-.21725v-.32921A.21723.21723,0,0,1,43.91374,73.6623Z" />
                <path style="fill:#e0e0e0" d="M43.91375,84.59013H69.86933a.21723.21723,0,0,1,.21723.21723v.32924a.2172.2172,0,0,1-.2172.2172H43.91377a.21725.21725,0,0,1-.21725-.21725v-.32918a.21723.21723,0,0,1,.21723-.21723Z" />
                <path style="fill:#e0e0e0" d="M65.51065,8.39749c.18112-1.316-1.67614-2.39859-3.07173-2.511a7.90356,7.90356,0,0,1-1.98735-.17166c-1.36606-.47613-1.91174-2.241-3.24467-2.80316a3.81365,3.81365,0,0,0-3.10989.44006,8.11721,8.11721,0,0,1-3.00014,1.16721c-.93881.06009-1.95835-.28807-2.77972.17054-.61208.34174-.9327,1.047-1.49687,1.46314a3.57027,3.57027,0,0,1-1.9567.53052,5.51234,5.51234,0,0,0-2.01732.32969,1.5944,1.5944,0,0,0-1.01,1.61837Z" />
                <path style="fill:#e0e0e0" d="M75.75109,17.43145c.09693-.70416-.89683-1.28341-1.64357-1.34359a4.22961,4.22961,0,0,1-1.06337-.09185c-.73094-.25476-1.02289-1.19908-1.73612-1.49989a2.04048,2.04048,0,0,0-1.664.23548,4.34351,4.34351,0,0,1-1.60529.62453c-.50232.03214-1.04784-.15414-1.48733.09124-.32753.18286-.49906.56026-.80093.78288a1.91019,1.91019,0,0,1-1.047.28387,2.94925,2.94925,0,0,0-1.0794.17642.85306.85306,0,0,0-.54043.86593Z" />
                <polyline style="fill:#324850" points="107.111 84.948 110.428 92.846 77.343 92.966 79.641 81.548" />
                <path style="fill:#fff" d="M105.61078,85.85513c-.344.42963-15.59847,6.48083-22.84716-1.60231L82.47131,50.62l5.36987-6.3812,6.5916.06293,10.38791,18.9565Z" />
                <path style="fill:#447e98" d="M81.08528,48.19951s-6.04751,3.1834-3.44137,25.21251l-3.33926,9.55563h8.66959l1.80724-21.81147Z" />
                <path style="fill:#447e98" d="M85.88295,54.18818l-.4633,29.79269a4.76435,4.76435,0,0,1-3.85033,1.87426S79.54818,49.36839,80.84069,48.383a49.13208,49.13208,0,0,1,7.00049-4.1442Z" />
                <line style="fill:none;stroke:#a23a6b;stroke-linecap:round;stroke-linejoin:round;stroke-width:0.421283892392267px" x1="81.38596" x2="80.28572" y1="82.96765" y2="58.34773" />
                <path style="fill:#24383d" d="M78.36816,25.6452a.13518.13518,0,0,0-.0684.002,1.24648,1.24648,0,0,0-.9159,1.54612c.27928,1.28087,4.436,3.88383,7.2809,2.26562l-1.04065-2.79917Z" />
                <path style="fill:#ed8b62" d="M83.58973,36.29827a1.93532,1.93532,0,1,1-1.46146-2.3141A1.93534,1.93534,0,0,1,83.58973,36.29827Z" />
                <path style="fill:#fbb891" d="M85.41965,40.73364,87.1291,48.383l5.01505-1.874a1.88255,1.88255,0,0,0,1.14161-2.3129l-2.86229-9.37993Z" />
                <path style="fill:#ed8b62" d="M86.0353,43.49611s3.31394-.3639,3.02875-4.26l-3.48763,2.23354Z" />
                <path style="fill:#fbb891" d="M81.24958,29.794s-1.03529,6.5573-.0066,9.06974,3.21294,3.98538,6.51622,3.08967c0,0,3.86738-.47134,4.42656-6.30228C93.02761,26.87258,84.95748,24.88545,81.24958,29.794Z" />
                <path style="fill:#121212" d="M90.27111,34.44776s-.67522-1.06887.00681-3.96748-7.16768-2.82181-9.02834-.68625c0,0,1.25111-3.23543,5.94-3.40594s8.48272,2.81979,6.86292,8.05967L92.90186,36.2803Z" />
                <circle style="fill:#fbb891" cx="92.90095" cy="35.87194" r="2.3485" />
                <path style="fill:none;stroke:#ed8b62;stroke-linecap:round;stroke-linejoin:round;stroke-width:0.275552668069012px" d="M93.90805,35.1113a1.72053,1.72053,0,0,0-2.07313,1.55376" />
                <path style="fill:#121212" d="M82.1372,34.72414a.4428.4428,0,1,1-.35385-.51667A.44282.44282,0,0,1,82.1372,34.72414Z" />
                <path style="fill:#121212" d="M85.87534,34.52917a.44281.44281,0,1,1-.35385-.51667A.44283.44283,0,0,1,85.87534,34.52917Z" />
                <path style="fill:#121212" d="M84.49373,31.75661h0a.60974.60974,0,0,0,.62634.653,7.00411,7.00411,0,0,1,2.08638.22894.53181.53181,0,0,0,.65967-.33577h0a.55526.55526,0,0,0-.29481-.65463,3.49433,3.49433,0,0,0-2.54631-.456A.62662.62662,0,0,0,84.49373,31.75661Z" />
                <path style="fill:#121212" d="M82.76306,31.89354h0c-.01253.35248-.22755.66251-.4643.66873a3.4317,3.4317,0,0,0-1.38983.31951c-.18848.09169-.36854-.03514-.40657-.2991h0a.751.751,0,0,1,.2465-.6552,1.92735,1.92735,0,0,1,1.71045-.563C82.64355,31.40153,82.77314,31.60978,82.76306,31.89354Z" />
                <path style="fill:#fff" d="M82.331,37.7129l3.13628-.00864s-.01336,1.07744-1.61212,1.09331S82.331,37.7129,82.331,37.7129Z" />
                <path style="fill:none;stroke:#ed8b62;stroke-linecap:round;stroke-linejoin:round;stroke-width:0.275552668069012px" d="M83.07314,35.33677s-.62764.50466,0,1.32829" />
                <path style="fill:#324850" d="M92.76922,25.5819a.94571.94571,0,1,1-.78789-1.08072A.9457.9457,0,0,1,92.76922,25.5819Z" />
                <path style="fill:#6b98a4" d="M90.46548,24.727a6.49246,6.49246,0,0,1,3.91636,8.25519L82.79111,26.51512A6.662,6.662,0,0,1,90.46548,24.727Z" />
                <path style="fill:#324850" d="M90.24127,30.672s-2.977-3.94041-7.2667-4.377L78.359,25.64352s3.56891,1.31736,4.98064,2.8315S88.52368,31.10951,90.24127,30.672Z" />
                <path style="fill:#fbb891" d="M87.1291,48.383l-.39025,1.818a4.30906,4.30906,0,0,0,5.87347-1.3205l.67344-4.68442Z" />
                <path style="fill:#447e98" d="M90.02694,54.288s-.40278,26.60528,3.01758,29.0957c6.32229,4.60338,16.04484,3.87442,16.04484,3.87442s-2.12257-14.24592-4.844-31.24926l.52321-9.56393A22.28649,22.28649,0,0,0,93.28576,44.1961Z" />
                <path style="fill:#fbbd9d" d="M70.49562,77.106a1.15,1.15,0,0,0-1.08046.92157,11.16894,11.16894,0,0,0-.25423,1.23936s-.97639.87724,0,1.11223,1.33469-1.08046,1.33469-1.08046L70.646,77.106Z" />
                <g style="opacity:0.30000000000000004">
                    <path d="M89.6732,55.96823A.50623.50623,0,0,1,89.769,55.648a.82339.82339,0,0,1,.96906-.24063,1.5644,1.5644,0,0,1,.7389,1.18148c.09561.51936.08164,1.05431.17945,1.57325a1.889,1.889,0,0,0,.79041,1.31709c.56394.33279,1.304.182,1.89644.46091.88214.41538,1.08622,1.56167,1.13043,2.53572.08369,1.84407.00391,3.69119-.07589,5.53544q-.25482,5.89035-.50968,11.7807l-.46327,5.90994-2.38947,1.01542L88.87556,65.95412Z" />
                </g>
                <polygon style="fill:#e7515b" points="93.992 61.025 78.994 58.311 71.994 59.847 87.66 62.668 93.992 61.025" />
                <polygon style="fill:#965e29" points="93.992 61.025 78.994 58.311 71.994 59.847 87.66 62.668 93.992 61.025" />
                <path style="fill:#e3a45a" d="M84.40225,67.56527c.20341-2.76423.96147-9.78488,1.53029-12.49759a6.26067,6.26067,0,0,1,.83846-2.32425,2.27884,2.27884,0,0,1,2.10687-1.06318,2.25356,2.25356,0,0,1,1.6166,1.38482,4.92518,4.92518,0,0,1,.37726,2.17526c-.14106,3.353-.43082,7.10985-.42821,10.21865" />
                <path style="fill:#263238" d="M89.48153,60.98248c.003.01327-.2131.06893-.5563.17612A11.16824,11.16824,0,0,0,86.3753,62.315c-.30676.18758-.491.31347-.499.30244-.00352-.00484.03866-.04165.11814-.10423.07906-.06314.19773-.14888.34784-.24981a8.753,8.753,0,0,1,2.56584-1.16363c.17484-.04643.31753-.07923.41714-.09712A.55264.55264,0,0,1,89.48153,60.98248Z" />
                <path style="fill:#263238" d="M89.73094,57.79122c.00287.01416-.22552.064-.58476.17506A7.89836,7.89836,0,0,0,86.56333,59.324c-.29518.23293-.4657.39277-.47571.38239a.60442.60442,0,0,1,.10807-.12452c.07291-.07694.185-.18182.32882-.30526a6.73967,6.73967,0,0,1,2.60466-1.3692c.18324-.04851.33319-.08136.4379-.0978A.60552.60552,0,0,1,89.73094,57.79122Z" />
                <path style="fill:#263238" d="M89.39366,55.22328c.00051.01483-.17789.0229-.45887.07457a3.966,3.966,0,0,0-1.96754.97992c-.21052.19312-.32442.33063-.336.32128-.00467-.00373.01961-.04132.06789-.10653a2.40573,2.40573,0,0,1,.22561-.2589,3.49359,3.49359,0,0,1,2.00033-.99627,2.40524,2.40524,0,0,1,.34259-.02405A.35714.35714,0,0,1,89.39366,55.22328Z" />
                <path style="fill:#fafbfb" d="M87.53141,63.22171l.00261.01437v9.5973c0,.4208-.33858.85584-.9626,1.185a5.82809,5.82809,0,0,1-2.66536.55618h-.01439c-2.27119-.00458-3.628-.89722-3.628-1.74113v-9.5973l.00246-.01437-.00246-.01919a5.701,5.701,0,0,1,1.38837-2.8855,4.0987,4.0987,0,0,0,.59965-2.12348c.00246-.0653.00491-.12334.00491-.17657h-.06278a.50723.50723,0,0,1-.54178-.46455v-.40618a.50725.50725,0,0,1,.54178-.46677h3.41a.5506.5506,0,0,1,.5006.283.43345.43345,0,0,1,.0412.18375v.40618a.50724.50724,0,0,1-.5418.46455h-.06276c0,.05323.00245.11127.00473.17657a4.10085,4.10085,0,0,0,.59983,2.12348,5.69921,5.69921,0,0,1,1.38835,2.8855Z" />
                <path style="fill:#263238"
                    d="M87.53141,63.22171a.90267.90267,0,0,0-.00531-.09819,2.30086,2.30086,0,0,0-.03535-.28705,3.69244,3.69244,0,0,0-.39678-1.04081,14.137,14.137,0,0,0-.982-1.48907,3.05327,3.05327,0,0,1-.445-1.0323,5.6206,5.6206,0,0,1-.15412-1.25729l-.00048-.02936.02876.00108a.62645.62645,0,0,0,.36228-.08325.431.431,0,0,0,.20838-.30119c.00775-.128.0017-.27288.00323-.4113a.40916.40916,0,0,0-.148-.35436.56836.56836,0,0,0-.38508-.127l-.4474.00072-.925.00139-1.96442.00252a.56769.56769,0,0,0-.44183.15774.40156.40156,0,0,0-.10734.20815,2.26,2.26,0,0,0-.00594.25525c.00133.08562-.00263.18055.00306.2595a.39513.39513,0,0,0,.10264.21555.56762.56762,0,0,0,.46092.16555l.03953-.00246-.00057.04143a5.8,5.8,0,0,1-.12775,1.16315,3.20368,3.20368,0,0,1-.45527,1.12c-.23443.33356-.47636.66538-.69778,1.01775a5.424,5.424,0,0,0-.56609,1.12015,2.58163,2.58163,0,0,0-.13522.61805c-.011.20906-.006.431-.00709.64818l.00035,1.32384.0003,2.71682-.00088,4.71852a2.87343,2.87343,0,0,0,.02563.55656,1.08533,1.08533,0,0,0,.26208.46911,2.56355,2.56355,0,0,0,.89606.61018,5,5,0,0,0,1.03171.30766,6.86034,6.86034,0,0,0,1.04915.1191,7.2015,7.2015,0,0,0,2.02-.184,4.4138,4.4138,0,0,0,.9119-.33056,2.32616,2.32616,0,0,0,.7422-.55759,1.14338,1.14338,0,0,0,.21837-.38873,1.4612,1.4612,0,0,0,.03605-.441l.00128-.88434.0028-1.66238c.0058-2.11634.01051-3.82934.01377-5.01654.004-1.18436.01424-1.83918.01424-1.83918a.47974.47974,0,0,1,.00705.1206l.00429.35468.00814,1.3639c.00326,1.1872.008,2.9002.01376,5.01654l.00281,1.66238.00128.88434-.00057.22709a.90669.90669,0,0,1-.03726.2343,1.21374,1.21374,0,0,1-.23064.41408,2.39544,2.39544,0,0,1-.7641.57791,4.48414,4.48414,0,0,1-.92684.33837,7.2667,7.2667,0,0,1-2.04182.18989,6.928,6.928,0,0,1-1.06134-.11895,5.07674,5.07674,0,0,1-1.04922-.31166,2.64272,2.64272,0,0,1-.926-.63058,1.16759,1.16759,0,0,1-.28116-.50461,2.89971,2.89971,0,0,1-.02849-.57655l-.00088-4.71852.0003-2.71682.00035-1.32384c.00133-.22006-.004-.43258.00781-.65491a2.66424,2.66424,0,0,1,.14-.63864,5.49967,5.49967,0,0,1,.57565-1.13726c.22327-.35445.46768-.68883.70079-1.01958a3.12684,3.12684,0,0,0,.44453-1.091,5.72918,5.72918,0,0,0,.12783-1.14583l.03894.03893a.64509.64509,0,0,1-.51775-.19163.47185.47185,0,0,1-.12161-.2581c-.00665-.09748-.0017-.179-.00311-.26877a2.208,2.208,0,0,1,.0076-.26821.47678.47678,0,0,1,.12765-.247.64191.64191,0,0,1,.49571-.17952l1.96442.00251.925.00138.4474.00073a.63218.63218,0,0,1,.42581.14343.47285.47285,0,0,1,.16862.40225c-.00231.14211.00406.275-.00537.41959a.48975.48975,0,0,1-.23716.34247.68426.68426,0,0,1-.39269.09019l.02823-.02823a4.15846,4.15846,0,0,0,.57893,2.26414,13.79357,13.79357,0,0,1,.97273,1.50009,3.60518,3.60518,0,0,1,.38529,1.05245,2.01508,2.01508,0,0,1,.02778.28949A.28957.28957,0,0,1,87.53141,63.22171Z" />
                <path style="fill:#263238" d="M85.34809,57.9936a26.62977,26.62977,0,0,1-3.03631,0,26.62363,26.62363,0,0,1,3.03631,0Z" />
                <path style="fill:#e7515b" d="M87.22778,64.50391a1.088,1.088,0,0,0-1.0403.044,3.91764,3.91764,0,0,1-.99792.43223,1.92212,1.92212,0,0,1-1.21959-.312,7.535,7.535,0,0,0-1.131-.61634,2.20114,2.20114,0,0,0-2.269.53452v8.24128s.453,1.40609,3.64016,1.18514,2.93607-1.627,2.93607-1.627Z" />
                <path style="fill:#455b64" d="M78.78414,58.89474a2.33607,2.33607,0,0,0-1.96841-2.66726.23282.23282,0,0,0-.16714.01938.23772.23772,0,0,0-.06245.22493,2.82161,2.82161,0,0,0,2.19519,2.48988" />
                <path style="fill:#e7515b" d="M75.51111,63.20484A3.11932,3.11932,0,0,0,77.996,65.2769c.20971.0073.36827-.13051.56857-.14224a1.288,1.288,0,0,1,.3356.12629.46676.46676,0,0,0,.17491.03959,3.25353,3.25353,0,0,0,2.62966-2.0957c.86669-1.78566.59894-3.70393-.597-4.28672a2.847,2.847,0,0,0-.48937-.19124,2.0108,2.0108,0,0,0-.5947-.06978,4.44507,4.44507,0,0,0-1.359.30753c-.01845.00712-.03959.01424-.05824.02116a2.78736,2.78736,0,0,0-2.50088-.06767C74.90969,59.50091,74.64385,61.41918,75.51111,63.20484Z" />
                <path style="fill:#fafbfb" d="M75.5321,61.3961a.90333.90333,0,0,1-.10072-.35888,1.93369,1.93369,0,0,1,.607-1.64262.90323.90323,0,0,1,.30988-.20711c.00847.01292-.11053.09032-.26728.25114a2.112,2.112,0,0,0-.58866,1.59284C75.50687,61.25557,75.54694,61.39179,75.5321,61.3961Z" />
                <path style="fill:#fafbfb" d="M75.75179,62.245c-.0233.00539-.06261-.07872-.08779-.18782s-.0267-.20193-.00338-.20732.06261.07871.0878.18784S75.7751,62.23961,75.75179,62.245Z" />
                <path style="fill:#263238" d="M81.25531,55.97356c.0063.0155-.22374.10183-.56042.30371a4.497,4.497,0,0,0-.55965.39944A4.47548,4.47548,0,0,0,79.075,57.97232a4.49625,4.49625,0,0,0-.28082.62769c-.13127.37-.17037.61248-.18681.60937a.65922.65922,0,0,1,.01767-.1717,1.613,1.613,0,0,1,.03984-.19845c.01959-.07647.03767-.165.07126-.25882a3.98945,3.98945,0,0,1,.26846-.6457,4.20638,4.20638,0,0,1,1.07983-1.31956,3.9887,3.9887,0,0,1,.57978-.39089c.08527-.05149.16852-.08674.23958-.12107a1.61361,1.61361,0,0,1,.18668-.07832A.65829.65829,0,0,1,81.25531,55.97356Z" />
                <path style="fill:#dca25e" d="M71.9937,59.84686,70.10845,83.62219l17.56663,4.24663s6.127-2.07751,6.21043-2.21938.10643-24.62446.10643-24.62446l-6.33186,1.64265Z" />
                <path style="fill:#c1813f" d="M93.88584,86.03928l-.00242-.36454" />
                <path style="fill:#c1813f" d="M87.66791,87.79975s-.00321-.042-.00545-.12426l-.00795-.36544-.0212-1.40994c-.01525-1.22691-.0247-3.00791-.02338-5.22394.0079-2.21661.01738-4.86736.028-7.83389.01154-2.96687.01981-6.24985-.02411-9.72928l.04628-.44537h0c1.00232-.26013,1.97941-.5134,3.05389-.79226,1.09449-.28383,2.25656-.58552,3.278-.85039l.04.38912-.0003.05586c-.0356,6.9422-.06719,13.09747-.08988,17.51966-.0151,2.20862-.02726,3.98395-.03564,5.20991l-.01369,1.4062" />
                <path style="fill:#fbbd9d" d="M110.29942,61.93334l-6.66112,1.60812.76843,6.27735-12.74146,9.569c-.51.07129-1.0312.15344-1.321.2259-.697.17426-1.92739,1.92234-2.27587,2.09659l-2.483,1.91669s-.21781.87123.91478.697a10.43888,10.43888,0,0,0,2.52654-1.04547c.1307,0,.52753.26545.34011.82766-.16679.50028-.84949,2.21525-.84949,2.21525l-.84222,1.54738s3.64543.11909,4.66529-1.23349c.69237-.91826,2.8237-3.5219,2.8237-3.5219S110.162,75.73471,111.06228,74.19C112.2848,72.09244,110.29942,61.93334,110.29942,61.93334Z" />
                <path style="fill:#ec996f" d="M107.23168,72.52339a4.16167,4.16167,0,0,0-.02991-.686,2.38924,2.38924,0,0,0-2.25412-2.03949,4.16068,4.16068,0,0,0-.68547.03863.64831.64831,0,0,1,.179-.05462,2.13516,2.13516,0,0,1,.50912-.04521,2.36907,2.36907,0,0,1,2.31206,2.0919,2.13445,2.13445,0,0,1,.00577.51111A.64792.64792,0,0,1,107.23168,72.52339Z" />
                <path style="fill:#ec996f" d="M90.67072,85.52885a1.93006,1.93006,0,0,1-.08753.41986,4.46742,4.46742,0,0,1-.36819.97027,1.948,1.948,0,0,1-.70181.76657,1.06417,1.06417,0,0,1-.2948.11946.26031.26031,0,0,1-.11592.01233,2.74374,2.74374,0,0,0,.37862-.184,2.0895,2.0895,0,0,0,.65779-.75577,5.79682,5.79682,0,0,0,.38562-.94644A2.31367,2.31367,0,0,1,90.67072,85.52885Z" />
                <path style="fill:#ec996f" d="M92.43741,84.94853a1.74957,1.74957,0,0,1-.12865.40513,7.98785,7.98785,0,0,1-.98722,1.793,1.74891,1.74891,0,0,1-.27352.32531,2.51974,2.51974,0,0,1,.2232-.36022c.14259-.21843.33381-.52356.52577-.87168.19144-.34823.347-.673.45537-.91024A2.51915,2.51915,0,0,1,92.43741,84.94853Z" />
                <path style="fill:#397084" d="M112.0695,62.81474l-10.079,2.76884L99.8926,44.71095l5.29853,1.6816a7.56277,7.56277,0,0,1,4.83769,5.81061Z" />
                <polyline style="fill:#324850" points="20.148 77.865 18.221 92.966 44.264 92.966 44.082 82.58" />
                <polyline style="fill:#edab8a" points="55.115 69.476 42.478 74.449 41.146 66.497 53.67 64.522" />
                <path style="fill:#ffcd51" d="M36.4336,42.95174a20.38191,20.38191,0,0,0-7.10015.62314A5.59125,5.59125,0,0,0,26.56,45.28116a2.76775,2.76775,0,0,0-.33694,3.08321c.70143,1.12224,2.22851,1.35033,3.5515,1.31672A22.99921,22.99921,0,0,0,34.792,48.94a5.23861,5.23861,0,0,0,2.83146-1.43934,2.82047,2.82047,0,0,0-1.07664-4.42643" />
                <path style="fill:#ffcd51" d="M47.17594,50.34962s4.18785,3.52888-1.53662,21.96832l-5.76591.69738Z" />
                <path style="fill:#edab8a" d="M59.355,64.699s-1.85568-1.72393.24146-4.127l3.15973-3.76153a.726.726,0,0,1,1.08713-.00611h0a.726.726,0,0,1,.1109.80412l-1.08,2.29962,5.61841-3.09011a.78671.78671,0,0,1,1.13675.37734h0a.78673.78673,0,0,1-.29652.95266l-3.64952,2.32707.04707.21466L69.84483,58.825a.75791.75791,0,0,1,1.00141.60748h0a.75791.75791,0,0,1-.49678.82188l-3.99791,2.06848.03045.27023,3.82844-1.23588c.34341-.07109,1.30914.157,1.36773.50278h0c.05468.32276-.78329.63231-1.10218.70639l-3.98763,1.573.01874.24995,3.658-1.029a.54632.54632,0,0,1,.56341.63679h0a.54631.54631,0,0,1-.49208.45328l-4.18918,1.34387s-3.91319,2.17147-5.45073.59951Z" />
                <polygon style="fill:#edab8a" points="53.67 64.522 59.972 62.525 62.254 66.445 55.115 69.476 53.67 64.522" />
                <polygon style="fill:#fff" points="55.985 63.3 58.62 62.525 60.9 66.99 57.646 68.401 55.985 63.3" />
                <path style="fill:#ffcd51" d="M25.31385,85.27057s9.032,7.24478,17.63593.96622l.48157-17.85211,1.20813-12.12284-1.6897-2.835-5.0311-1.29321-6.0196.59735-.79,10.6537Z" />
                <path style="fill:#fbb891" d="M34.842,50.00029s4.28356,4.77562,8.35877.89145L41.21287,45.352,34.416,45.11809Z" />
                <path style="fill:#ffcd51" d="M42.7296,52.4575S41.002,73.67471,41.91745,85.91967a.58066.58066,0,0,0,1.03233.31712h0a7.89581,7.89581,0,0,0,1.13239-3.65688L45.139,63.53562l2.92525-10.05777a3.06634,3.06634,0,0,0-.87673-3.1176,16.35183,16.35183,0,0,0-4.45537-2.83244Z" />
                <path style="fill:#ffcd51" d="M36.068,54.477s1.342,16.59713-5.51056,31.26024a1.73717,1.73717,0,0,1-2.01365.94618c-1.80472-.4731-5.22476-1.87092-8.39551-7.22156l1.601-27.234a3.27868,3.27868,0,0,1,1.55687-2.59815,30.37063,30.37063,0,0,1,7.58272-3.33352A12.09574,12.09574,0,0,1,36.068,54.477Z" />
                <path style="fill:#ffcd51" d="M23.28939,49.64s7.27553,6.81683,1.84316,20.78576l-.91244,4.93791a5.06865,5.06865,0,0,1-6.17357,4.00614h0a5.06347,5.06347,0,0,1-3.82269-5.6841C15.38189,66.12066,18.224,51.70385,23.28939,49.64Z" />
                <path style="fill:#fbb891" d="M37.50469,71.72474s-1.24617-2.20512,1.48041-3.85988l4.15082-2.62751a.726.726,0,0,1,1.0379.32354h0a.726.726,0,0,1-.13794.79993L42.31,68.22518l6.29053-1.24275a.78672.78672,0,0,1,.969.704h0a.78671.78671,0,0,1-.57119.818l-4.183,1.11208-.02019.21881,4.48595-.53065a.7579.7579,0,0,1,.77031.88231h0a.75793.75793,0,0,1-.72242.63275l-4.43669.76008-.05287.26676,4.023-.018a.619.619,0,0,1,.54891.70206h0a.61906.61906,0,0,1-.66216.53076l-4.27679.291-.05787.24389,3.79782.12762a.54632.54632,0,0,1,.344.77755h0a.54634.54634,0,0,1-.60629.2829L43.5506,74.796s-4.38715.8839-5.37621-1.08Z" />
                <polygon style="fill:#fbb891" points="31.274 70.13 38.752 69.84 39.738 74.267 31.754 75.48 31.274 70.13" />
                <polygon style="fill:#fff" points="34.403 69.267 37.657 69.084 38.512 74.768 34.947 75.236 34.403 69.267" />
                <path style="fill:#121212" d="M46.98084,28.73685a3.95675,3.95675,0,0,1-.66762,2.80746l-.86793-3.072Z" />
                <circle style="fill:#ed8b62" cx="45.76451" cy="35.06796" r="1.93115" />
                <polygon style="fill:#fbb891" points="42.241 39.743 41.491 47.528 34.706 45.137 36.556 34.5 42.241 39.743" />
                <path style="fill:#ed8b62" d="M41.91417,43.1372s-3.31116-.14141-3.49252-4.63656l3.75482,1.99014Z" />
                <path style="fill:#fbb891" d="M46.46913,28.97194s1.03306,6.54316.00658,9.0502-3.206,3.97678-6.50215,3.083c0,0-3.85907-.47033-4.417-6.28869C34.7165,26.0568,42.76922,24.074,46.46913,28.97194Z" />
                <path style="fill:#121212" d="M45.58342,33.89142a.44185.44185,0,1,0,.35309-.51555A.44184.44184,0,0,0,45.58342,33.89142Z" />
                <path style="fill:#121212" d="M41.85335,33.69687a.44185.44185,0,1,0,.35309-.51554A.44184.44184,0,0,0,41.85335,33.69687Z" />
                <path style="fill:#121212" d="M43.20056,30.95487h0a.6084.6084,0,0,1-.54585.7192,6.9897,6.9897,0,0,0-2.04177.46647.53065.53065,0,0,1-.69242-.25706h0a.55408.55408,0,0,1,.21706-.68274,3.48672,3.48672,0,0,1,2.47159-.74432A.62528.62528,0,0,1,43.20056,30.95487Z" />
                <path style="fill:#121212" d="M44.9675,31.10348h0c-.04858.34878.114.68991.35128.73589a3.54714,3.54714,0,0,1,1.34364.54826c.1738.12192.37711.02749.46121-.22572h0a.73543.73543,0,0,0-.13439-.68594,1.97716,1.97716,0,0,0-1.6241-.84175C45.17322,30.63967,45.00661,30.82268,44.9675,31.10348Z" />
                <path style="fill:#411915" d="M45.35266,36.87654,42.045,36.54459a1.5341,1.5341,0,0,0,1.57179,1.68328A1.40941,1.40941,0,0,0,45.35266,36.87654Z" />
                <g style="clip-path:url(#clip-path-2)">
                    <polygon style="fill:#fff" points="45.515 37.411 41.613 37.035 41.778 36.051 46.247 36.113 45.515 37.411" />
                    <circle style="fill:#eb7bb1" cx="42.78956" cy="38.46267" r="1.10341" />
                </g>
                <path style="fill:#121212" d="M42.96348,28.0977a10.2043,10.2043,0,0,0-4.60959.86471c.45363,5.73019-1.44234,5.88547-1.44234,5.88547l-2.45555.09678c-3.226-7.278-.17818-10.854,3.68755-11.96766a5.65268,5.65268,0,0,1,3.02474-.00749c1.97523.52928,5.89639,1.26659,6.57876-.98342C47.74705,21.98609,50.70763,28.40008,42.96348,28.0977Z" />
                <polygon style="fill:#121212" points="34.842 35.444 35.656 38.972 36.754 36.142 34.842 35.444" />
                <circle style="fill:#fbb891" cx="35.35454" cy="34.62748" r="2.34343" transform="translate(-4.48323 63.98659) rotate(-80.79374)" />
                <path style="fill:none;stroke:#ed8b62;stroke-linecap:round;stroke-linejoin:round;stroke-width:0.274957410659229px" d="M34.34961,33.86851a1.71679,1.71679,0,0,1,2.06866,1.55037" />
                <rect style="fill:#455b64" height="15.37334" rx="0.93413" transform="matrix(0.96528, 0.2612, -0.2612, 0.96528, 17.84557, -15.11916)" width="7.76335" x="61.91954" y="51.88897" />
                <path style="fill:#263238" d="M59.056,55.81629H72.54638a.81917.81917,0,0,1,.81917.81917v5.88035a.81918.81918,0,0,1-.81918.81918H59.056a.81919.81919,0,0,1-.81919-.81919V56.63548a.81918.81918,0,0,1,.81918-.81918Z" transform="translate(140.49601 11.62002) rotate(105.14136)" />
                <path style="fill:#455b64" d="M67.11227,52.59594a.08634.08634,0,1,1,.0451-.16668l1.07177.29a.08634.08634,0,1,1-.04511.16668Z" />
                <path style="fill:#455b64" d="M66.53763,52.44045a.08634.08634,0,1,1,.10587-.0608A.08645.08645,0,0,1,66.53763,52.44045Z" />
                <path style="fill:#455b64" d="M66.84436,52.52345a.08634.08634,0,1,1,.10587-.0608A.08644.08644,0,0,1,66.84436,52.52345Z" />
                <path style="fill:#455b64" d="M68.76335,53.04271a.08634.08634,0,1,1,.10586-.06079A.08643.08643,0,0,1,68.76335,53.04271Z" />
                <path style="fill:#455b64" d="M68.45662,52.95971a.08634.08634,0,1,1,.10586-.06079A.08643.08643,0,0,1,68.45662,52.95971Z" />
                <path style="fill:#fff" d="M70.69508,53.171l-1.29729-.351a.22789.22789,0,0,0-.2542.10149l-.15941.26191a.2552.2552,0,0,1-.28464.11366l-2.235-.6048a.25517.25517,0,0,1-.18849-.24167l-.00558-.30656a.2279.2279,0,0,0-.16834-.21583l-1.0088-.273a.83221.83221,0,0,0-1.0207.58595l-3.507,12.96033a.56245.56245,0,0,0,.396.68984l5.90021,1.59657a.494.494,0,0,0,.60585-.3478l3.603-13.31492A.53335.53335,0,0,0,70.69508,53.171Z" />
                <path style="fill:#447e98" d="M64.07259,52.24109l-3.507,12.96033a.56245.56245,0,0,0,.396.68984l5.90021,1.59657a.494.494,0,0,0,.60585-.3478l3.50786-12.96346" />
                <path style="fill:#455b64" d="M70.49062,56.37108h.01158a0,0,0,0,1,0,0V58.138a0,0,0,0,1,0,0h-.01158a.03929.03929,0,0,1-.03929-.03929v-1.6883A.03929.03929,0,0,1,70.49062,56.37108Z" transform="translate(123.55192 130.93004) rotate(-164.85864)" />
                <path style="fill:#455b64" d="M62.7462,55.39213h.01347a0,0,0,0,1,0,0V56.5108a0,0,0,0,1,0,0H62.7462a.03929.03929,0,0,1-.03929-.03929V55.43142a.03929.03929,0,0,1,.03929-.03929Z" transform="translate(16.79243 -14.44363) rotate(15.14136)" />
                <path style="fill:#455b64" d="M63.12794,53.98138h.01347a0,0,0,0,1,0,0V55.1a0,0,0,0,1,0,0h-.01347a.03929.03929,0,0,1-.03929-.03929V54.02067A.03929.03929,0,0,1,63.12794,53.98138Z" transform="translate(16.43719 -14.59232) rotate(15.14136)" />
                <path style="fill:#455b64" d="M63.49544,52.93377H63.506a0,0,0,0,1,0,0v.52014a0,0,0,0,1,0,0h-.01057a.03492.03492,0,0,1-.03492-.03492V52.9687A.03493.03493,0,0,1,63.49544,52.93377Z" transform="translate(16.09817 -14.73526) rotate(15.14136)" />
                <rect style="fill:#263238" height="0.07476" transform="translate(16.35314 -16.2782) rotate(15.14136)" width="0.05329" x="69.38868" y="53.3442" />
                <rect style="fill:#263238" height="0.10807" transform="translate(16.35792 -16.30099) rotate(15.14136)" width="0.05329" x="69.4768" y="53.33414" />
                <rect style="fill:#263238" height="0.13305" transform="translate(16.36372 -16.32336) rotate(15.14136)" width="0.05329" x="69.56384" y="53.33226" />
                <rect style="fill:#263238" height="0.18135" transform="translate(16.36668 -16.34691) rotate(15.14136)" width="0.05329" x="69.65393" y="53.30747" />
                <path style="fill:#263238" d="M70.44155,53.70189l-.25836-.06991a.01922.01922,0,0,1-.01351-.02354l.03475-.12842a.01913.01913,0,0,1,.02335-.01356l.25855.06995.003.00229.00047.00372-.01146.04233.02766.00749.00345.006-.01675.06189-.006.00345-.02766-.00748-.01145.04233Zm.03749-.1573-.25382-.06866a.00917.00917,0,0,0-.01132.00665l-.03475.12843a.00939.00939,0,0,0,.00661.01151l.25362.06863.01146-.04234.006-.00345.02766.00749.01418-.05243-.02765-.00748-.00345-.006Z" />
                <polygon style="fill:#263238" points="70.203 53.605 70.232 53.5 70.452 53.56 70.44 53.607 70.437 53.617 70.424 53.664 70.203 53.605" />
                <path style="fill:#263238" d="M69.93068,53.553a.01956.01956,0,1,0-.024.01377A.01956.01956,0,0,0,69.93068,53.553Z" />
                <path style="fill:#263238" d="M69.85971,53.485l.01759.03062a.059.059,0,0,1,.08059.02181l.03062-.01757a.09424.09424,0,0,0-.1288-.03486Z" />
                <path style="fill:#263238" d="M69.94588,53.422a.14958.14958,0,0,0-.11385.01478l.01757.03062a.11452.11452,0,0,1,.15652.04235l.03063-.01758A.14963.14963,0,0,0,69.94588,53.422Z" />
                <path style="fill:#263238" d="M69.80343,53.38694l.01758.03063a.17191.17191,0,0,1,.23493.06356l.03063-.01757a.20719.20719,0,0,0-.28314-.07662Z" />
                <path style="fill:#edab8a" d="M60.14124,59.9986s2.72038-.13778,3.2468-.69109.89968-.0254.89968-.0254a1.48484,1.48484,0,0,1-.3915,1.44321,21.62291,21.62291,0,0,1-3.13033,1.651A2.85461,2.85461,0,0,1,60.14124,59.9986Z" />
                <path style="fill:#ffcd51" d="M30.8889,46.29618a39.44859,39.44859,0,0,1,3.8168-1.15949s4.18406,1.73067,4.61165,4.50333c0,0,.283-2.83861,2.28036-3.21555a2.01945,2.01945,0,0,0,1.13446,1.10334c.9482.45059.96435,4.886.96435,4.886l-4.48611,2.29608-6.16568-2.69248Z" />
                <path style="fill:#fbb891" d="M31.27448,70.12964l.4791,5.35058-12.1478,1.57031a3.18193,3.18193,0,0,1-3.58984-3.15567h0a3.18192,3.18192,0,0,1,3.02938-3.17826Z" />
                <path style="fill:#fff" d="M36.21062,49.64V61.21124a.54326.54326,0,0,0,1.08587,0V49.64a.54326.54326,0,0,0-1.08587,0Z" />
                <path style="fill:#fff" d="M41.3222,50.06761l1.56888,8.72479.22659,1.26009c.12348.68669,1.17015.39574,1.04708-.28867L42.59587,51.039l-.22659-1.2601c-.12348-.68668-1.17015-.39573-1.04708.28867Z" />
                <rect style="fill:#fff" height="2.6462" rx="1.3231" transform="translate(-2.99626 4.59138) rotate(-6.38061)" width="14.94404" x="32.21629" y="27.85025" />
                <path style="fill:none;stroke:#ed8b62;stroke-linecap:round;stroke-linejoin:round;stroke-width:0.274957410659229px" d="M44.60138,34.74536s.52678.98133-.14773,1.4773" />
            </g>
        </g>
    </g>
</svg>