<svg data-name="Layer 1" id="Layer_1" viewBox="0 0 127.67 99.71" xmlns="http://www.w3.org/2000/svg">
    <defs>
        <clipPath id="clip-path">
            <path style="fill:#fff" d="M41.87,60.55l-3.68.18A1.69,1.69,0,0,0,40,62.26,1.88,1.88,0,0,0,41.87,60.55Z" />
        </clipPath>
        <clipPath id="clip-path-2">
            <path style="fill:#200e0c" d="M41.87,60.55l-3.68.18A1.69,1.69,0,0,0,40,62.26,1.88,1.88,0,0,0,41.87,60.55Z" />
        </clipPath>
    </defs>
    <title>intro</title>
    <rect style="fill:#fff" height="28.24" width="22.26" y="17.87" />
    <rect style="fill:#fff" height="28.94" width="22.26" y="48.7" />
    <rect style="fill:#fff" height="28.24" width="22.26" x="24.66" y="17.87" />
    <rect style="fill:#fff" height="28.94" width="22.26" x="24.66" y="48.7" />
    <circle style="fill:#fff" cx="91.71" cy="8.69" r="8.5" />
    <polyline style="fill:#fff" points="91.71 5.06 91.71 8.69 97.45 8.69" />
    <rect style="fill:#fff" height="46.5" width="29.42" x="98.24" y="22.04" />
    <rect style="fill:#fff" height="44.86" width="27.74" x="99.04" y="22.91" />
    <rect style="fill:#fff" height="17.16" width="11.06" x="112.91" y="25.52" />
    <path style="fill:#fff" d="M119,27a.41.41,0,0,1-.42.41.41.41,0,1,1,0-.82A.41.41,0,0,1,119,27Z" />
    <rect style="fill:#fff" height="17.16" width="11.06" x="101.76" y="47.46" />
    <path style="fill:#fff" d="M107.88,49a.42.42,0,1,1-.41-.41A.41.41,0,0,1,107.88,49Z" />
    <rect style="fill:#fff" height="13.4" width="9.45" x="101.61" y="25.52" />
    <path style="fill:#fff" d="M106.68,26.74a.35.35,0,0,1-.35.34.34.34,0,0,1,0-.68A.35.35,0,0,1,106.68,26.74Z" />
    <rect style="fill:#fff" height="5.63" transform="translate(-4.97 13.73) rotate(-6.44)" width="10.17" x="114.51" y="48.25" />
    <path style="fill:#fff" d="M119.75,49.33a.35.35,0,1,1-.35-.35A.35.35,0,0,1,119.75,49.33Z" />
    <path style="fill:#fff" d="M111.34,51.38s-1.73.08-3.87.08-3.88,0-3.88-.08,1.73-.09,3.88-.09S111.34,51.33,111.34,51.38Z" />
    <path style="fill:#fff" d="M111.34,52.6s-1.73.09-3.87.09-3.88,0-3.88-.09,1.73-.08,3.88-.08S111.34,52.56,111.34,52.6Z" />
    <path style="fill:#fff" d="M111.34,53.83c0,.05-1.73.09-3.87.09s-3.88,0-3.88-.09,1.73-.08,3.88-.08S111.34,53.79,111.34,53.83Z" />
    <path style="fill:#fff" d="M111.34,55.06s-1.73.08-3.87.08-3.88,0-3.88-.08,1.73-.08,3.88-.08S111.34,55,111.34,55.06Z" />
    <path style="fill:#fff" d="M111.34,56.29s-1.73.08-3.87.08-3.88,0-3.88-.08,1.73-.08,3.88-.08S111.34,56.24,111.34,56.29Z" />
    <path style="fill:#fff" d="M111.34,57.52s-1.73.08-3.87.08-3.88,0-3.88-.08,1.73-.09,3.88-.09S111.34,57.47,111.34,57.52Z" />
    <path style="fill:#fff" d="M111.34,58.74s-1.73.09-3.87.09-3.88,0-3.88-.09,1.73-.08,3.88-.08S111.34,58.7,111.34,58.74Z" />
    <path style="fill:#fff" d="M123.38,50.06s-1.7.33-3.83.62-3.84.51-3.85.47,1.71-.33,3.83-.63S123.38,50,123.38,50.06Z" />
    <path style="fill:#fff" d="M123.54,50.83s-1.71.32-3.83.62-3.85.51-3.85.46,1.7-.32,3.83-.62S123.53,50.78,123.54,50.83Z" />
    <path style="fill:#fff" d="M123.68,51.54s-1.71.32-3.83.62-3.85.51-3.85.46,1.71-.32,3.83-.62S123.67,51.49,123.68,51.54Z" />
    <path style="fill:#fff" d="M123,29.11c0,.05-2,.09-4.38.09s-4.38,0-4.38-.09,2-.08,4.38-.08S123,29.07,123,29.11Z" />
    <path style="fill:#fff" d="M123,29.84c0,.05-2,.09-4.38.09s-4.38,0-4.38-.09,2-.08,4.38-.08S123,29.8,123,29.84Z" />
    <path style="fill:#fff" d="M123,30.57c0,.05-2,.09-4.38.09s-4.38,0-4.38-.09,2-.08,4.38-.08S123,30.53,123,30.57Z" />
    <path style="fill:#fff" d="M123,31.3c0,.05-2,.09-4.38.09s-4.38,0-4.38-.09,2-.08,4.38-.08S123,31.26,123,31.3Z" />
    <path style="fill:#fff" d="M123,32s-2,.09-4.38.09-4.38,0-4.38-.09,2-.08,4.38-.08S123,32,123,32Z" />
    <path style="fill:#fff" d="M123,32.76c0,.05-2,.09-4.38.09s-4.38,0-4.38-.09,2-.08,4.38-.08S123,32.72,123,32.76Z" />
    <path style="fill:#fff" d="M123,33.49s-2,.09-4.38.09-4.38,0-4.38-.09,2-.08,4.38-.08S123,33.45,123,33.49Z" />
    <path style="fill:#fff" d="M123,35.66c0,.05-2,.08-4.38.08s-4.38,0-4.38-.08,2-.08,4.38-.08S123,35.61,123,35.66Z" />
    <path style="fill:#fff" d="M123.06,36.43s-2,.08-4.39.08-4.38,0-4.38-.08,2-.08,4.38-.08S123.06,36.39,123.06,36.43Z" />
    <path style="fill:#fff" d="M123.12,37.2s-2,.09-4.38.09-4.39,0-4.39-.09,2-.08,4.39-.08S123.12,37.16,123.12,37.2Z" />
    <path style="fill:#fff" d="M123.18,38c0,.05-2,.09-4.38.09s-4.38,0-4.38-.09,2-.08,4.38-.08S123.18,37.93,123.18,38Z" />
    <path style="fill:#fff" d="M123.24,38.74s-2,.09-4.38.09-4.38,0-4.38-.09,2-.08,4.38-.08S123.24,38.7,123.24,38.74Z" />
    <path style="fill:#fff" d="M123.3,39.52s-2,.08-4.38.08-4.38,0-4.38-.08,2-.09,4.38-.09S123.3,39.47,123.3,39.52Z" />
    <path style="fill:#fff" d="M30.89,98.75V77.86a2.16,2.16,0,0,1,4.31,0V98.75" />
    <polyline style="fill:#fff" points="33.61 95.17 33.51 82.84 33.04 75.71 10.05 75.71 11.45 92.58 10.52 99.52" />
    <path style="fill:#fff" d="M7.9,98.75V77.86a2.16,2.16,0,0,1,4.31,0V98.75" />
    <polygon style="fill:#fff" points="52.09 89.98 66.36 92.99 67.12 95.85 48.44 96.11 46.94 88.36 52.09 89.98" />
    <path style="fill:#fff" d="M64.19,92.82a8.58,8.58,0,0,1,5.81-1c1.9.49,3.79,2.32,3.65,4.28h0L62,95.92Z" />
    <path style="fill:#fff" d="M52.9,79.67l1.65,12.22s-7.13,3.75-7,3.3S46,79.67,46,79.67Z" />
    <path style="fill:#fff" d="M46.53,69.56s5.24.83,6.43,5.29c1.56,5.83,2.15,6.66,2.15,6.66l-7.92,1.16Z" />
    <path style="fill:#fff" d="M36.47,68.08l10.06,1.48a2.09,2.09,0,0,1,1.79,2l.24,23.87-22.45.07L24.59,74.73l.83-2.82a3.59,3.59,0,0,1,2.87-2.52Z" />
    <polygon style="fill:#fff" points="29.88 81.43 25.68 92.3 19.19 86.66 21.71 78.84 29.88 81.43" />
    <path style="fill:#fff" d="M34,68.92s-7.81-.07-9.75,2.24c-2.45,2.91-5.35,10.33-5.35,10.33l12.7,2.8Z" />
    <path style="fill:#fff" d="M26.4,90.49l14.67,3.26L40.46,97l-17.32.11s-7.75-1.56-3.95-10.45Z" />
    <path style="fill:#fff" d="M41.07,93.75a13.53,13.53,0,0,1,6.29-.81,3.92,3.92,0,0,1,3.1,4.17h0L38.94,97Z" />
    <line style="fill:#fff" x1="26.4" x2="22.78" y1="90.49" y2="89.98" />
    <path style="fill:#fff" d="M43.19,51.31s4,3.75.06,5.11Z" />
    <path style="fill:#fff" d="M40.09,63.86l.2,5.32a2.59,2.59,0,0,1-2.77,3h0c-1.52,0-3.22-.63-3.22-2.28l.06-8.38Z" />
    <path style="fill:#fff" d="M40.24,67.4a5.62,5.62,0,0,1-5.86-4.29c-.48-1.52,5.69.21,5.69.21Z" />
    <path style="fill:#fff" d="M38.55,65.48h0A5.63,5.63,0,0,0,44,60.23l0-5.36a5.9,5.9,0,0,0-5.61-5.94h0c-3.18-.1-6.39,2.47-6.48,5.75l.09,4.18A6.69,6.69,0,0,0,38.55,65.48Z" />
    <path style="fill:#fff" d="M41.79,57.68a.52.52,0,0,0,.53.53.54.54,0,1,0-.53-.53Z" />
    <path style="fill:#fff" d="M37.21,57.71a.54.54,0,0,0,.53.53.53.53,0,0,0,.52-.54.53.53,0,1,0-1,0Z" />
    <path style="fill:#fff" d="M47.12,49.51l-2.31-.33,1.35-.85a12,12,0,0,0-3.66-.54,10.94,10.94,0,0,0-4.94-1.27,6.55,6.55,0,0,0-5.79,3h0a2.44,2.44,0,0,0-2.52,2.37c-.4,3.26,3.52,8.64,3.52,8.64l.44-4.26c2.43-.17,2.55-2.31,2.35-3.71a29.46,29.46,0,0,0,7.82-.32A3.21,3.21,0,0,0,44.5,52C45.89,51.47,46.93,50.71,47.12,49.51Z" />
    <path style="fill:#fff" d="M29.14,58.86a2.14,2.14,0,1,0,2.19-2.13A2.15,2.15,0,0,0,29.14,58.86Z" />
    <path style="fill:#fff" d="M32,59.48s.05-1.59-1.44-1.39" />
    <path style="fill:#fff" d="M32.24,68.76l4.23-.68,5.62.83s.35,3.28-4.41,3.42S32.24,68.76,32.24,68.76Z" />
    <path style="fill:#fff" d="M40.69,59.58a1.08,1.08,0,0,0,.05-1.3" />
    <path style="fill:#fff" d="M37.26,54.53s1.78-.38,1.91.44c0,0,.07.56-1.49.86s-2.19.28-2.4-.22S36.41,54.64,37.26,54.53Z" />
    <path style="fill:#fff" d="M42.49,54.48s-1.31-.23-1.47.43c0,0-.1.46,1,.63.83.13,1.14,0,1.21-.33S43,54.53,42.49,54.48Z" />
    <path style="fill:#fff" d="M41.87,60.55l-3.68.18A1.69,1.69,0,0,0,40,62.26,1.88,1.88,0,0,0,41.87,60.55Z" />
    <g style="clip-path:url(#clip-path)">
        <path style="fill:#fff" d="M38.15,63.35a1.3,1.3,0,1,0,.57-1.74A1.3,1.3,0,0,0,38.15,63.35Z" />
        <polygon style="fill:#fff" points="42.14 61.04 37.95 61.19 37.93 60.48 42.11 60.17 42.14 61.04" />
    </g>
    <polygon style="fill:#fff" points="57.79 85.03 59.79 86.47 73.95 74.51 108.43 55.48 106.57 54.13 82.91 61.39 57.79 85.03" />
    <path style="fill:#fff" d="M62.68,55.23,57.07,83.12A1.93,1.93,0,0,0,59,85.43H99.37a1.93,1.93,0,0,0,1.88-1.53l6-27.89a1.93,1.93,0,0,0-1.88-2.33H64.57A1.93,1.93,0,0,0,62.68,55.23Z" />
    <path style="fill:#fff" d="M64.5,56.54,58.89,84.43a1.93,1.93,0,0,0,1.89,2.31h40.41a1.92,1.92,0,0,0,1.88-1.52l6-27.89A1.92,1.92,0,0,0,107.16,55H66.39A1.94,1.94,0,0,0,64.5,56.54Z" />
    <polygon style="fill:#fff" points="79.21 79.37 78.46 86.74 81.74 86.74 79.21 79.37" />
    <polygon style="fill:#fff" points="79.21 79.22 82.56 95.73 94.76 95.73 89.04 79.22 79.21 79.22" />
    <circle style="fill:#fff" cx="85.62" cy="66.51" r="2.71" />
    <path style="fill:#fff" d="M102,94.19H73.22a.8.8,0,0,0-.8.8h0a.8.8,0,0,0,.8.8H102a.8.8,0,0,0,.8-.8h0A.8.8,0,0,0,102,94.19Z" />
    <path style="fill:#fff" d="M66.13,94.19H50.9a.8.8,0,0,0-.8.8h0a.8.8,0,0,0,.8.8H66.13a.79.79,0,0,0,.79-.8h0A.79.79,0,0,0,66.13,94.19Z" />
    <rect style="fill:#fff" height="3.79" width="31.31" x="10.52" y="95.73" />
    <rect style="fill:#fff" height="3.79" width="79.01" x="41.76" y="95.73" />
    <path style="fill:#fff" d="M113.57,80a4.53,4.53,0,0,1,2.79-.34,2.37,2.37,0,0,1,1.38.62,1,1,0,0,1,0,1.37,1.24,1.24,0,0,1-.87.22,3.37,3.37,0,0,0-2.14.31c-.33.25-.56.67-1,.79a.93.93,0,0,1-1-.46,1.61,1.61,0,0,1-.12-1.2A1.82,1.82,0,0,1,113.57,80Z" />
    <path style="fill:#fff" d="M111.63,76.22a1.33,1.33,0,0,0,2,0,3.81,3.81,0,0,0,.85-1.73,9.3,9.3,0,0,0,.52-4.38,2.44,2.44,0,0,0-.56-1.19,1.29,1.29,0,0,0-1.2-.4,1.86,1.86,0,0,0-1.06,1.1,10.53,10.53,0,0,0-1,4.48,3.68,3.68,0,0,0,.49,2.07" />
    <path style="fill:#fff" d="M110.21,77.29a2.71,2.71,0,0,0,.42-2.48,4.77,4.77,0,0,0-1.47-2.13,7.85,7.85,0,0,0-2.63-1.55,2.67,2.67,0,0,0-1.18-.2,1.2,1.2,0,0,0-1,.6,1.87,1.87,0,0,0,.27,1.69,20.12,20.12,0,0,0,1.73,2.62,4.66,4.66,0,0,0,1.9,1.63,1.71,1.71,0,0,0,2-.28" />
    <path style="fill:#fff" d="M111.6,87.39a1.91,1.91,0,0,0,0-.34l.09-.92c0-.38.1-.84.21-1.34a10.21,10.21,0,0,1,.49-1.59,5.68,5.68,0,0,1,.81-1.44,2.93,2.93,0,0,1,1-.85,2.83,2.83,0,0,1,.86-.27,1.38,1.38,0,0,0,.34,0,1.55,1.55,0,0,0-.35,0,2.68,2.68,0,0,0-.9.23,3,3,0,0,0-1.08.86,6,6,0,0,0-.84,1.47,10.42,10.42,0,0,0-.49,1.61,11.57,11.57,0,0,0-.17,1.37c0,.39,0,.7,0,.92A1.8,1.8,0,0,0,111.6,87.39Z" />
    <path style="fill:#fff" d="M111.66,86.68s0-.05,0-.15v-.45c0-.39,0-1,0-1.64,0-1.38.15-2.87.38-5s.51-4.28.82-5.77c.07-.34.13-.65.2-.92s.11-.5.16-.68l.1-.44,0-.15s0,0-.06.15l-.13.42-.18.69c-.07.26-.14.57-.21.91a50.75,50.75,0,0,0-.87,5.35c-.23,2.1-.33,4-.34,5.41,0,.69,0,1.25,0,1.64l0,.45C111.65,86.63,111.66,86.68,111.66,86.68Z" />
    <path style="fill:#fff" d="M111.67,83a2.84,2.84,0,0,0,0-.47,12.44,12.44,0,0,0-.15-1.26,15.79,15.79,0,0,0-.41-1.84,13.62,13.62,0,0,0-.77-2.18,11.44,11.44,0,0,0-2.26-3.52,4.66,4.66,0,0,0-.53-.49l-.23-.2-.2-.14a3.24,3.24,0,0,0-.39-.25A15.49,15.49,0,0,1,108,73.79a12.22,12.22,0,0,1,2.21,3.5,17.59,17.59,0,0,1,.77,2.16c.2.68.34,1.3.44,1.82s.15,1,.18,1.25A3.2,3.2,0,0,0,111.67,83Z" />
    <polygon style="fill:#fff" points="108.1 89.51 108.47 94.58 114.99 94.58 115.36 89.51 108.1 89.51" />
    <rect style="fill:#fff" height="2" width="8.67" x="107.47" y="87.51" />
    <polygon style="fill:#fff" points="107.47 94.39 107.47 94.94 107.88 94.94 115.99 94.94 115.99 94.39 107.47 94.39" />
    <polygon style="fill:#fff" points="108.27 95.92 107.88 94.94 115.68 94.94 115.22 95.92 108.27 95.92" />
    <path style="fill:#fff" d="M115.24,91.16s0,0,0,0l-.09.13-.38.49,0,0,0,0-.93-1.3h.06l-.92,1.31,0,0,0,0-1.09-1.3h.06l-.06.08-1,1.22,0,0,0,0-.92-1.3h.06c-.46.51-.84.95-1.13,1.29l0,0,0,0-.35-.59-.09-.16,0-.06,0,0,.1.16.37.58h0l1.12-1.31,0,0,0,0,.93,1.29h-.07l1-1.22.06-.08,0,0,0,0,1.09,1.3h-.07l.93-1.29,0,0,0,0,.91,1.3h0l.39-.47.11-.13Z" />
    <path style="fill:#fff" d="M115.45,89.47s-1.64,0-3.65,0-3.65,0-3.65,0,1.63,0,3.65,0S115.45,89.45,115.45,89.47Z" />
    <path style="fill:#fff" d="M115.78,95s-1.78,0-4,0-4,0-4,0,1.77,0,4,0S115.78,95,115.78,95Z" />
    <rect style="fill:#fff" height="15.25" width="14.63" x="57.68" y="19.15" />
    <rect style="fill:#fff" height="15.25" width="14.63" x="56.69" y="19.15" />
    <path style="fill:#fff" d="M71.32,34.4H56.68V19.15H71.32Zm-14.63,0H71.31V19.16H56.69Z" />
    <rect style="fill:#fff" height="11.15" width="10.69" x="58.65" y="21.2" />
    <path style="fill:#fff" d="M58.65,32.42a1.52,1.52,0,0,1-.26.31c-.17.18-.41.43-.68.69s-.52.5-.7.67a1.52,1.52,0,0,1-.31.26A1.52,1.52,0,0,1,57,34l.68-.69c.27-.27.52-.5.7-.67A1.92,1.92,0,0,1,58.65,32.42Z" />
    <path style="fill:#fff" d="M69.35,32.4a1.67,1.67,0,0,1,.3.26c.18.17.43.41.69.68s.5.52.67.7a1.52,1.52,0,0,1,.26.31,1.52,1.52,0,0,1-.31-.26l-.69-.69c-.26-.26-.5-.51-.67-.7A1.85,1.85,0,0,1,69.35,32.4Z" />
    <path style="fill:#fff" d="M69.32,21.23a1.67,1.67,0,0,1,.26-.3c.17-.18.41-.43.68-.69s.52-.5.7-.67a1.52,1.52,0,0,1,.31-.26,1.52,1.52,0,0,1-.26.31c-.17.18-.42.42-.69.69s-.51.5-.7.67A1.85,1.85,0,0,1,69.32,21.23Z" />
    <path style="fill:#fff" d="M58.62,21.26a1.67,1.67,0,0,1-.3-.26c-.18-.17-.43-.41-.69-.68s-.5-.52-.67-.7a1.52,1.52,0,0,1-.26-.31,1.52,1.52,0,0,1,.31.26l.69.68.67.7A1.65,1.65,0,0,1,58.62,21.26Z" />
    <path style="fill:#fff" d="M69.32,32.35a.18.18,0,0,0,0-.05v-.76c0-.53,0-1.3,0-2.27,0-2,0-4.74,0-8.07l0,0H58.65l.05-.05c0,4.09,0,7.92,0,11.15l0,0,7.72,0h0l-7.75,0h0V21.16H69.36v0c0,3.34,0,6.13,0,8.09,0,1,0,1.74,0,2.27v.79Z" />
    <rect style="fill:#fff" height="3.57" width="3.57" x="62.22" y="24.99" />
    <rect style="fill:#fff" height="10.35" width="9.93" x="79.13" y="33.69" />
    <rect style="fill:#fff" height="10.35" width="9.93" x="78.45" y="33.69" />
    <path style="fill:#fff" d="M88.39,44.05H78.45V33.69h9.94Zm-9.93,0h9.92V33.7H78.46Z" />
    <rect style="fill:#fff" height="7.57" width="7.26" x="79.79" y="35.08" />
    <path style="fill:#fff" d="M79.79,42.7a1.06,1.06,0,0,1-.18.21l-.46.47c-.18.18-.35.34-.48.45a1.06,1.06,0,0,1-.21.18l.18-.21.46-.47.48-.45C79.7,42.76,79.78,42.69,79.79,42.7Z" />
    <path style="fill:#fff" d="M87.05,42.68l.21.18.46.46.46.48c.11.12.18.2.17.21a2.1,2.1,0,0,1-.2-.18l-.47-.46-.46-.48C87.11,42.77,87,42.69,87.05,42.68Z" />
    <path style="fill:#fff" d="M87,35.1a1.13,1.13,0,0,1,.18-.2c.11-.13.28-.29.46-.47l.47-.46.21-.17s-.06.08-.18.21-.27.29-.46.47l-.47.45Z" />
    <path style="fill:#fff" d="M79.77,35.12s-.09-.06-.21-.18l-.47-.46L78.64,34l-.18-.21s.09.06.21.18l.47.46.46.47A1.61,1.61,0,0,1,79.77,35.12Z" />
    <path style="fill:#fff" d="M87,42.65V42.1c0-.36,0-.88,0-1.54,0-1.33,0-3.22,0-5.48l0,0H79.79l0,0v7.57l0,0,5.24,0h0l-5.26,0h0V35.05h7.3v0c0,2.27,0,4.17,0,5.5,0,.66,0,1.17,0,1.53v.54Z" />
    <rect style="fill:#fff" height="2.42" width="2.42" x="82.21" y="37.66" />
    <g style="opacity:0.6">
        <rect style="fill:#ebebeb" height="28.24" width="22.26" y="17.87" />
        <rect style="fill:#ebebeb" height="28.94" width="22.26" y="48.7" />
        <rect style="fill:#ebebeb" height="28.24" width="22.26" x="24.66" y="17.87" />
        <rect style="fill:#ebebeb" height="28.94" width="22.26" x="24.66" y="48.7" />
        <circle style="fill:none;stroke:#ebebeb;stroke-miterlimit:10" cx="91.71" cy="8.69" r="8.5" />
        <polyline style="fill:none;stroke:#ebebeb;stroke-miterlimit:10" points="91.71 5.06 91.71 8.69 97.45 8.69" />
        <rect style="fill:#e0e0e0" height="46.5" width="29.42" x="98.24" y="22.04" />
        <rect style="fill:#f5f5f5" height="44.86" width="27.74" x="99.04" y="22.91" />
        <rect style="fill:#fff" height="17.16" width="11.06" x="112.91" y="25.52" />
        <path style="fill:#e0e0e0" d="M119,27a.41.41,0,0,1-.42.41.41.41,0,1,1,0-.82A.41.41,0,0,1,119,27Z" />
        <rect style="fill:#fff" height="17.16" width="11.06" x="101.76" y="47.46" />
        <path style="fill:#e0e0e0" d="M107.88,49a.42.42,0,1,1-.41-.41A.41.41,0,0,1,107.88,49Z" />
        <rect style="fill:#fff" height="13.4" width="9.45" x="101.61" y="25.52" />
        <path style="fill:#e0e0e0" d="M106.68,26.74a.35.35,0,0,1-.35.34.34.34,0,0,1,0-.68A.35.35,0,0,1,106.68,26.74Z" />
        <rect style="fill:#fff" height="5.63" transform="translate(-4.97 13.73) rotate(-6.44)" width="10.17" x="114.51" y="48.25" />
        <path style="fill:#e0e0e0" d="M119.75,49.33a.35.35,0,1,1-.35-.35A.35.35,0,0,1,119.75,49.33Z" />
        <path style="fill:#e0e0e0" d="M111.34,51.38s-1.73.08-3.87.08-3.88,0-3.88-.08,1.73-.09,3.88-.09S111.34,51.33,111.34,51.38Z" />
        <path style="fill:#e0e0e0" d="M111.34,52.6s-1.73.09-3.87.09-3.88,0-3.88-.09,1.73-.08,3.88-.08S111.34,52.56,111.34,52.6Z" />
        <path style="fill:#e0e0e0" d="M111.34,53.83c0,.05-1.73.09-3.87.09s-3.88,0-3.88-.09,1.73-.08,3.88-.08S111.34,53.79,111.34,53.83Z" />
        <path style="fill:#e0e0e0" d="M111.34,55.06s-1.73.08-3.87.08-3.88,0-3.88-.08,1.73-.08,3.88-.08S111.34,55,111.34,55.06Z" />
        <path style="fill:#e0e0e0" d="M111.34,56.29s-1.73.08-3.87.08-3.88,0-3.88-.08,1.73-.08,3.88-.08S111.34,56.24,111.34,56.29Z" />
        <path style="fill:#e0e0e0" d="M111.34,57.52s-1.73.08-3.87.08-3.88,0-3.88-.08,1.73-.09,3.88-.09S111.34,57.47,111.34,57.52Z" />
        <path style="fill:#e0e0e0" d="M111.34,58.74s-1.73.09-3.87.09-3.88,0-3.88-.09,1.73-.08,3.88-.08S111.34,58.7,111.34,58.74Z" />
        <path style="fill:#e0e0e0" d="M123.38,50.06s-1.7.33-3.83.62-3.84.51-3.85.47,1.71-.33,3.83-.63S123.38,50,123.38,50.06Z" />
        <path style="fill:#e0e0e0" d="M123.54,50.83s-1.71.32-3.83.62-3.85.51-3.85.46,1.7-.32,3.83-.62S123.53,50.78,123.54,50.83Z" />
        <path style="fill:#e0e0e0" d="M123.68,51.54s-1.71.32-3.83.62-3.85.51-3.85.46,1.71-.32,3.83-.62S123.67,51.49,123.68,51.54Z" />
        <path style="fill:#e0e0e0" d="M123,29.11c0,.05-2,.09-4.38.09s-4.38,0-4.38-.09,2-.08,4.38-.08S123,29.07,123,29.11Z" />
        <path style="fill:#e0e0e0" d="M123,29.84c0,.05-2,.09-4.38.09s-4.38,0-4.38-.09,2-.08,4.38-.08S123,29.8,123,29.84Z" />
        <path style="fill:#e0e0e0" d="M123,30.57c0,.05-2,.09-4.38.09s-4.38,0-4.38-.09,2-.08,4.38-.08S123,30.53,123,30.57Z" />
        <path style="fill:#e0e0e0" d="M123,31.3c0,.05-2,.09-4.38.09s-4.38,0-4.38-.09,2-.08,4.38-.08S123,31.26,123,31.3Z" />
        <path style="fill:#e0e0e0" d="M123,32s-2,.09-4.38.09-4.38,0-4.38-.09,2-.08,4.38-.08S123,32,123,32Z" />
        <path style="fill:#e0e0e0" d="M123,32.76c0,.05-2,.09-4.38.09s-4.38,0-4.38-.09,2-.08,4.38-.08S123,32.72,123,32.76Z" />
        <path style="fill:#e0e0e0" d="M123,33.49s-2,.09-4.38.09-4.38,0-4.38-.09,2-.08,4.38-.08S123,33.45,123,33.49Z" />
        <path style="fill:#e0e0e0" d="M123,35.66c0,.05-2,.08-4.38.08s-4.38,0-4.38-.08,2-.08,4.38-.08S123,35.61,123,35.66Z" />
        <path style="fill:#e0e0e0" d="M123.06,36.43s-2,.08-4.39.08-4.38,0-4.38-.08,2-.08,4.38-.08S123.06,36.39,123.06,36.43Z" />
        <path style="fill:#e0e0e0" d="M123.12,37.2s-2,.09-4.38.09-4.39,0-4.39-.09,2-.08,4.39-.08S123.12,37.16,123.12,37.2Z" />
        <path style="fill:#e0e0e0" d="M123.18,38c0,.05-2,.09-4.38.09s-4.38,0-4.38-.09,2-.08,4.38-.08S123.18,37.93,123.18,38Z" />
        <path style="fill:#e0e0e0" d="M123.24,38.74s-2,.09-4.38.09-4.38,0-4.38-.09,2-.08,4.38-.08S123.24,38.7,123.24,38.74Z" />
        <path style="fill:#e0e0e0" d="M123.3,39.52s-2,.08-4.38.08-4.38,0-4.38-.08,2-.09,4.38-.09S123.3,39.47,123.3,39.52Z" />
        <path style="fill:#f26e67" d="M30.89,98.75V77.86a2.16,2.16,0,0,1,4.31,0V98.75" />
        <polyline style="fill:#447e98" points="33.61 95.17 33.51 82.84 33.04 75.71 10.05 75.71 11.45 92.58 10.52 99.52" />
        <path style="fill:#346577" d="M7.9,98.75V77.86a2.16,2.16,0,0,1,4.31,0V98.75" />
        <polygon style="fill:#fac0b7" points="52.09 89.98 66.36 92.99 67.12 95.85 48.44 96.11 46.94 88.36 52.09 89.98" />
        <path style="fill:#fac0b7" d="M64.19,92.82a8.58,8.58,0,0,1,5.81-1c1.9.49,3.79,2.32,3.65,4.28h0L62,95.92Z" />
        <path style="fill:#fac0b7" d="M52.9,79.67l1.65,12.22s-7.13,3.75-7,3.3S46,79.67,46,79.67Z" />
        <path style="fill:#f6c116" d="M46.53,69.56s5.24.83,6.43,5.29c1.56,5.83,2.15,6.66,2.15,6.66l-7.92,1.16Z" />
        <path style="fill:#f6c116" d="M36.47,68.08l10.06,1.48a2.09,2.09,0,0,1,1.79,2l.24,23.87-22.45.07L24.59,74.73l.83-2.82a3.59,3.59,0,0,1,2.87-2.52Z" />
        <polygon style="fill:#fac0b7" points="29.88 81.43 25.68 92.3 19.19 86.66 21.71 78.84 29.88 81.43" />
        <path style="fill:#f6c116" d="M34,68.92s-7.81-.07-9.75,2.24c-2.45,2.91-5.35,10.33-5.35,10.33l12.7,2.8Z" />
        <path style="fill:#fac0b7" d="M26.4,90.49l14.67,3.26L40.46,97l-17.32.11s-7.75-1.56-3.95-10.45Z" />
        <path style="fill:#fac0b7" d="M41.07,93.75a13.53,13.53,0,0,1,6.29-.81,3.92,3.92,0,0,1,3.1,4.17h0L38.94,97Z" />
        <line style="fill:none;stroke:#e98980;stroke-miterlimit:10;stroke-width:0.3198478978605725px" x1="26.4" x2="22.78" y1="90.49" y2="89.98" />
        <path style="fill:#0f1a1c" d="M43.19,51.31s4,3.75.06,5.11Z" />
        <path style="fill:#fac0b7" d="M40.09,63.86l.2,5.32a2.59,2.59,0,0,1-2.77,3h0c-1.52,0-3.22-.63-3.22-2.28l.06-8.38Z" />
        <path style="fill:#d68e85" d="M40.24,67.4a5.62,5.62,0,0,1-5.86-4.29c-.48-1.52,5.69.21,5.69.21Z" />
        <path style="fill:#fac0b7" d="M38.55,65.48h0A5.63,5.63,0,0,0,44,60.23l0-5.36a5.9,5.9,0,0,0-5.61-5.94h0c-3.18-.1-6.39,2.47-6.48,5.75l.09,4.18A6.69,6.69,0,0,0,38.55,65.48Z" />
        <path style="fill:#0f1a1c" d="M41.79,57.68a.52.52,0,0,0,.53.53.54.54,0,1,0-.53-.53Z" />
        <path style="fill:#0f1a1c" d="M37.21,57.71a.54.54,0,0,0,.53.53.53.53,0,0,0,.52-.54.53.53,0,1,0-1,0Z" />
        <path style="fill:#0f1a1c" d="M47.12,49.51l-2.31-.33,1.35-.85a12,12,0,0,0-3.66-.54,10.94,10.94,0,0,0-4.94-1.27,6.55,6.55,0,0,0-5.79,3h0a2.44,2.44,0,0,0-2.52,2.37c-.4,3.26,3.52,8.64,3.52,8.64l.44-4.26c2.43-.17,2.55-2.31,2.35-3.71a29.46,29.46,0,0,0,7.82-.32A3.21,3.21,0,0,0,44.5,52C45.89,51.47,46.93,50.71,47.12,49.51Z" />
        <path style="fill:#fac0b7" d="M29.14,58.86a2.14,2.14,0,1,0,2.19-2.13A2.15,2.15,0,0,0,29.14,58.86Z" />
        <path style="fill:none;stroke:#c0523c;stroke-linecap:round;stroke-linejoin:round;stroke-width:0.3172817826271057px" d="M32,59.48s.05-1.59-1.44-1.39" />
        <path style="fill:#fac0b7" d="M32.24,68.76l4.23-.68,5.62.83s.35,3.28-4.41,3.42S32.24,68.76,32.24,68.76Z" />
        <path style="fill:none;stroke:#c0523c;stroke-linecap:round;stroke-linejoin:round;stroke-width:0.3172817826271057px" d="M40.69,59.58a1.08,1.08,0,0,0,.05-1.3" />
        <path style="fill:#0f1a1c" d="M37.26,54.53s1.78-.38,1.91.44c0,0,.07.56-1.49.86s-2.19.28-2.4-.22S36.41,54.64,37.26,54.53Z" />
        <path style="fill:#0f1a1c" d="M42.49,54.48s-1.31-.23-1.47.43c0,0-.1.46,1,.63.83.13,1.14,0,1.21-.33S43,54.53,42.49,54.48Z" />
        <path style="fill:#200e0c" d="M41.87,60.55l-3.68.18A1.69,1.69,0,0,0,40,62.26,1.88,1.88,0,0,0,41.87,60.55Z" />
        <g style="clip-path:url(#clip-path-2)">
            <path style="fill:#f17db1" d="M38.15,63.35a1.3,1.3,0,1,0,.57-1.74A1.3,1.3,0,0,0,38.15,63.35Z" />
            <polygon style="fill:#fff" points="42.14 61.04 37.95 61.19 37.93 60.48 42.11 60.17 42.14 61.04" />
        </g>
        <polygon style="fill:#cc9ea9" points="57.79 85.03 59.79 86.47 73.95 74.51 108.43 55.48 106.57 54.13 82.91 61.39 57.79 85.03" />
        <path style="fill:#1d2a2d" d="M62.68,55.23,57.07,83.12A1.93,1.93,0,0,0,59,85.43H99.37a1.93,1.93,0,0,0,1.88-1.53l6-27.89a1.93,1.93,0,0,0-1.88-2.33H64.57A1.93,1.93,0,0,0,62.68,55.23Z" />
        <path style="fill:#324850" d="M64.5,56.54,58.89,84.43a1.93,1.93,0,0,0,1.89,2.31h40.41a1.92,1.92,0,0,0,1.88-1.52l6-27.89A1.92,1.92,0,0,0,107.16,55H66.39A1.94,1.94,0,0,0,64.5,56.54Z" />
        <polygon style="fill:#1d2a2d" points="79.21 79.37 78.46 86.74 81.74 86.74 79.21 79.37" />
        <polygon style="fill:#324850" points="79.21 79.22 82.56 95.73 94.76 95.73 89.04 79.22 79.21 79.22" />
        <circle style="fill:#fff" cx="85.62" cy="66.51" r="2.71" />
        <path style="fill:#93acc1" d="M102,94.19H73.22a.8.8,0,0,0-.8.8h0a.8.8,0,0,0,.8.8H102a.8.8,0,0,0,.8-.8h0A.8.8,0,0,0,102,94.19Z" />
        <path style="fill:#93acc1" d="M66.13,94.19H50.9a.8.8,0,0,0-.8.8h0a.8.8,0,0,0,.8.8H66.13a.79.79,0,0,0,.79-.8h0A.79.79,0,0,0,66.13,94.19Z" />
        <rect style="fill:#c2c1c0" height="3.79" width="31.31" x="10.52" y="95.73" />
        <rect style="fill:#ebebeb" height="3.79" width="79.01" x="41.76" y="95.73" />
        <path style="fill:#ebebeb" d="M113.57,80a4.53,4.53,0,0,1,2.79-.34,2.37,2.37,0,0,1,1.38.62,1,1,0,0,1,0,1.37,1.24,1.24,0,0,1-.87.22,3.37,3.37,0,0,0-2.14.31c-.33.25-.56.67-1,.79a.93.93,0,0,1-1-.46,1.61,1.61,0,0,1-.12-1.2A1.82,1.82,0,0,1,113.57,80Z" />
        <path style="fill:#ebebeb" d="M111.63,76.22a1.33,1.33,0,0,0,2,0,3.81,3.81,0,0,0,.85-1.73,9.3,9.3,0,0,0,.52-4.38,2.44,2.44,0,0,0-.56-1.19,1.29,1.29,0,0,0-1.2-.4,1.86,1.86,0,0,0-1.06,1.1,10.53,10.53,0,0,0-1,4.48,3.68,3.68,0,0,0,.49,2.07" />
        <path style="fill:#ebebeb" d="M110.21,77.29a2.71,2.71,0,0,0,.42-2.48,4.77,4.77,0,0,0-1.47-2.13,7.85,7.85,0,0,0-2.63-1.55,2.67,2.67,0,0,0-1.18-.2,1.2,1.2,0,0,0-1,.6,1.87,1.87,0,0,0,.27,1.69,20.12,20.12,0,0,0,1.73,2.62,4.66,4.66,0,0,0,1.9,1.63,1.71,1.71,0,0,0,2-.28" />
        <path style="fill:#e0e0e0" d="M111.6,87.39a1.91,1.91,0,0,0,0-.34l.09-.92c0-.38.1-.84.21-1.34a10.21,10.21,0,0,1,.49-1.59,5.68,5.68,0,0,1,.81-1.44,2.93,2.93,0,0,1,1-.85,2.83,2.83,0,0,1,.86-.27,1.38,1.38,0,0,0,.34,0,1.55,1.55,0,0,0-.35,0,2.68,2.68,0,0,0-.9.23,3,3,0,0,0-1.08.86,6,6,0,0,0-.84,1.47,10.42,10.42,0,0,0-.49,1.61,11.57,11.57,0,0,0-.17,1.37c0,.39,0,.7,0,.92A1.8,1.8,0,0,0,111.6,87.39Z" />
        <path style="fill:#e0e0e0" d="M111.66,86.68s0-.05,0-.15v-.45c0-.39,0-1,0-1.64,0-1.38.15-2.87.38-5s.51-4.28.82-5.77c.07-.34.13-.65.2-.92s.11-.5.16-.68l.1-.44,0-.15s0,0-.06.15l-.13.42-.18.69c-.07.26-.14.57-.21.91a50.75,50.75,0,0,0-.87,5.35c-.23,2.1-.33,4-.34,5.41,0,.69,0,1.25,0,1.64l0,.45C111.65,86.63,111.66,86.68,111.66,86.68Z" />
        <path style="fill:#e0e0e0" d="M111.67,83a2.84,2.84,0,0,0,0-.47,12.44,12.44,0,0,0-.15-1.26,15.79,15.79,0,0,0-.41-1.84,13.62,13.62,0,0,0-.77-2.18,11.44,11.44,0,0,0-2.26-3.52,4.66,4.66,0,0,0-.53-.49l-.23-.2-.2-.14a3.24,3.24,0,0,0-.39-.25A15.49,15.49,0,0,1,108,73.79a12.22,12.22,0,0,1,2.21,3.5,17.59,17.59,0,0,1,.77,2.16c.2.68.34,1.3.44,1.82s.15,1,.18,1.25A3.2,3.2,0,0,0,111.67,83Z" />
        <polygon style="fill:#e0e0e0" points="108.1 89.51 108.47 94.58 114.99 94.58 115.36 89.51 108.1 89.51" />
        <rect style="fill:#e0e0e0" height="2" width="8.67" x="107.47" y="87.51" />
        <polygon style="fill:#ebebeb" points="107.47 94.39 107.47 94.94 107.88 94.94 115.99 94.94 115.99 94.39 107.47 94.39" />
        <polygon style="fill:#e0e0e0" points="108.27 95.92 107.88 94.94 115.68 94.94 115.22 95.92 108.27 95.92" />
        <path style="fill:#f5f5f5" d="M115.24,91.16s0,0,0,0l-.09.13-.38.49,0,0,0,0-.93-1.3h.06l-.92,1.31,0,0,0,0-1.09-1.3h.06l-.06.08-1,1.22,0,0,0,0-.92-1.3h.06c-.46.51-.84.95-1.13,1.29l0,0,0,0-.35-.59-.09-.16,0-.06,0,0,.1.16.37.58h0l1.12-1.31,0,0,0,0,.93,1.29h-.07l1-1.22.06-.08,0,0,0,0,1.09,1.3h-.07l.93-1.29,0,0,0,0,.91,1.3h0l.39-.47.11-.13Z" />
        <path style="fill:#f5f5f5" d="M115.45,89.47s-1.64,0-3.65,0-3.65,0-3.65,0,1.63,0,3.65,0S115.45,89.45,115.45,89.47Z" />
        <path style="fill:#f5f5f5" d="M115.78,95s-1.78,0-4,0-4,0-4,0,1.77,0,4,0S115.78,95,115.78,95Z" />
        <rect style="fill:#e0e0e0" height="15.25" width="14.63" x="57.68" y="19.15" />
        <rect style="fill:#fafbfb" height="15.25" width="14.63" x="56.69" y="19.15" />
        <path style="fill:#e0e0e0" d="M71.32,34.4H56.68V19.15H71.32Zm-14.63,0H71.31V19.16H56.69Z" />
        <rect style="fill:#fafbfb" height="11.15" width="10.69" x="58.65" y="21.2" />
        <path style="fill:#e0e0e0" d="M58.65,32.42a1.52,1.52,0,0,1-.26.31c-.17.18-.41.43-.68.69s-.52.5-.7.67a1.52,1.52,0,0,1-.31.26A1.52,1.52,0,0,1,57,34l.68-.69c.27-.27.52-.5.7-.67A1.92,1.92,0,0,1,58.65,32.42Z" />
        <path style="fill:#e0e0e0" d="M69.35,32.4a1.67,1.67,0,0,1,.3.26c.18.17.43.41.69.68s.5.52.67.7a1.52,1.52,0,0,1,.26.31,1.52,1.52,0,0,1-.31-.26l-.69-.69c-.26-.26-.5-.51-.67-.7A1.85,1.85,0,0,1,69.35,32.4Z" />
        <path style="fill:#e0e0e0" d="M69.32,21.23a1.67,1.67,0,0,1,.26-.3c.17-.18.41-.43.68-.69s.52-.5.7-.67a1.52,1.52,0,0,1,.31-.26,1.52,1.52,0,0,1-.26.31c-.17.18-.42.42-.69.69s-.51.5-.7.67A1.85,1.85,0,0,1,69.32,21.23Z" />
        <path style="fill:#e0e0e0" d="M58.62,21.26a1.67,1.67,0,0,1-.3-.26c-.18-.17-.43-.41-.69-.68s-.5-.52-.67-.7a1.52,1.52,0,0,1-.26-.31,1.52,1.52,0,0,1,.31.26l.69.68.67.7A1.65,1.65,0,0,1,58.62,21.26Z" />
        <path style="fill:#e0e0e0" d="M69.32,32.35a.18.18,0,0,0,0-.05v-.76c0-.53,0-1.3,0-2.27,0-2,0-4.74,0-8.07l0,0H58.65l.05-.05c0,4.09,0,7.92,0,11.15l0,0,7.72,0h0l-7.75,0h0V21.16H69.36v0c0,3.34,0,6.13,0,8.09,0,1,0,1.74,0,2.27v.79Z" />
        <rect style="fill:#ebebeb" height="3.57" width="3.57" x="62.22" y="24.99" />
        <rect style="fill:#e0e0e0" height="10.35" width="9.93" x="79.13" y="33.69" />
        <rect style="fill:#fafbfb" height="10.35" width="9.93" x="78.45" y="33.69" />
        <path style="fill:#e0e0e0" d="M88.39,44.05H78.45V33.69h9.94Zm-9.93,0h9.92V33.7H78.46Z" />
        <rect style="fill:#fafbfb" height="7.57" width="7.26" x="79.79" y="35.08" />
        <path style="fill:#e0e0e0" d="M79.79,42.7a1.06,1.06,0,0,1-.18.21l-.46.47c-.18.18-.35.34-.48.45a1.06,1.06,0,0,1-.21.18l.18-.21.46-.47.48-.45C79.7,42.76,79.78,42.69,79.79,42.7Z" />
        <path style="fill:#e0e0e0" d="M87.05,42.68l.21.18.46.46.46.48c.11.12.18.2.17.21a2.1,2.1,0,0,1-.2-.18l-.47-.46-.46-.48C87.11,42.77,87,42.69,87.05,42.68Z" />
        <path style="fill:#e0e0e0" d="M87,35.1a1.13,1.13,0,0,1,.18-.2c.11-.13.28-.29.46-.47l.47-.46.21-.17s-.06.08-.18.21-.27.29-.46.47l-.47.45Z" />
        <path style="fill:#e0e0e0" d="M79.77,35.12s-.09-.06-.21-.18l-.47-.46L78.64,34l-.18-.21s.09.06.21.18l.47.46.46.47A1.61,1.61,0,0,1,79.77,35.12Z" />
        <path style="fill:#e0e0e0" d="M87,42.65V42.1c0-.36,0-.88,0-1.54,0-1.33,0-3.22,0-5.48l0,0H79.79l0,0v7.57l0,0,5.24,0h0l-5.26,0h0V35.05h7.3v0c0,2.27,0,4.17,0,5.5,0,.66,0,1.17,0,1.53v.54Z" />
        <rect style="fill:#ebebeb" height="2.42" width="2.42" x="82.21" y="37.66" />
    </g>
</svg>