<svg data-name="Layer 1" id="Layer_1" viewBox="0 0 127.67 99.71" xmlns="http://www.w3.org/2000/svg">
    <defs>
        <clipPath id="clip-path">
            <rect style="fill:#fff" height="75.36" width="89.88" x="20.43" y="25.17" />
        </clipPath>
        <clipPath id="clip-path-2">
            <path style="fill:#fff" d="M44.46,48l-3.69.17a1.7,1.7,0,0,0,1.85,1.53A1.89,1.89,0,0,0,44.46,48Z" />
        </clipPath>
        <clipPath id="clip-path-3">
            <rect style="fill:none" height="75.36" width="89.88" x="20.43" y="25.17" />
        </clipPath>
        <clipPath id="clip-path-4">
            <path style="fill:#200e0c" d="M44.46,48l-3.69.17a1.7,1.7,0,0,0,1.85,1.53A1.89,1.89,0,0,0,44.46,48Z" />
        </clipPath>
    </defs>
    <title>intro</title>
    <g style="opacity:0.6">
        <path style="fill:#fff" d="M52.64,8.28c.26-1.88-2.4-3.43-4.39-3.59a11.17,11.17,0,0,1-2.84-.25c-2-.68-2.74-3.2-4.64-4-1.43-.6-3.06-.07-4.45.63A11.67,11.67,0,0,1,32,2.73c-1.34.09-2.8-.41-4,.25-.87.49-1.33,1.49-2.14,2.09a5.13,5.13,0,0,1-2.79.76,7.74,7.74,0,0,0-2.88.47A2.28,2.28,0,0,0,18.8,8.61Z" />
        <path style="fill:#fff" d="M104.4,15.85c.16-1.18-1.5-2.14-2.75-2.24a7,7,0,0,1-1.77-.16c-1.22-.42-1.71-2-2.9-2.5a3.36,3.36,0,0,0-2.78.39,7.34,7.34,0,0,1-2.69,1c-.84.06-1.75-.26-2.48.15-.55.31-.84.94-1.34,1.31a3.2,3.2,0,0,1-1.75.48,4.93,4.93,0,0,0-1.8.29,1.44,1.44,0,0,0-.91,1.45Z" />
        <polygon style="fill:#fff" points="62.91 56.41 60.82 55.23 60.13 51.71 59.55 51.87 60.05 55.19 58.05 53.87 57.61 54.36 60.26 56.01 62.91 57.23 62.91 56.41" />
        <rect style="fill:#fff" height="32.65" width="1.53" x="62.62" y="51.27" />
        <path style="fill:#fff" d="M63,14.14C63,14.34,58.86,27,58.86,27l2-2L58,33.84l1.95-2.66L57.61,42.3l1.11-1.16L56.77,49l1.67-2L56.77,52.8l13.22-1-3.13-11,1.89,2-2.44-8,1.25.68L64.71,25.12,66,26Z" />
        <path style="fill:#fff" d="M63.41,36.77a1.23,1.23,0,0,1-.07.19l-.2.52c-.19.45-.45,1.06-.74,1.77l0,.08,0-.08a9.11,9.11,0,0,1-.54-1.17c-.05-.16-.11-.32-.15-.47h.08c-.37.91-.73,1.7-1,2.27-.13.28-.24.5-.32.66l-.09.17,0,.06a1.23,1.23,0,0,1,.1-.25l.3-.67c.26-.57.6-1.36,1-2.27l0-.12,0,.12c0,.15.1.3.16.46a8.42,8.42,0,0,0,.53,1.17h-.08l.77-1.76.23-.51A1.16,1.16,0,0,1,63.41,36.77Z" />
        <path style="fill:#fff" d="M64.82,32s0-.05-.08-.14l-.19-.38c-.16-.33-.4-.79-.71-1.31h.07l-.21.8-.13.51,0,.11,0-.11c-.28-.61-.53-1.15-.7-1.54l-.2-.46-.06-.17a.83.83,0,0,1,.09.16l.22.45c.19.38.44.92.72,1.53h-.08l.14-.51.21-.8,0-.09,0,.08a13.56,13.56,0,0,1,.69,1.32c.08.17.13.31.17.4A1,1,0,0,1,64.82,32Z" />
        <path style="fill:#fff" d="M63,22.32a4.21,4.21,0,0,1-.24.46c-.15.27-.37.66-.63,1.09l0,.1,0-.11-.08-.39-.11-.66h.07c-.23.37-.44.68-.59.9a3.51,3.51,0,0,1-.25.35,2.68,2.68,0,0,1,.21-.37l.56-.92.06-.09,0,.1.12.66.07.39H62l.65-1.08A3.9,3.9,0,0,1,63,22.32Z" />
        <polygon style="fill:#fff" points="12.88 63.97 10.58 62.65 9.82 58.69 9.18 58.87 9.74 62.61 7.53 61.12 7.05 61.67 9.97 63.53 12.88 64.9 12.88 63.97" />
        <rect style="fill:#fff" height="25.78" width="1.69" x="12.57" y="58.19" />
        <path style="fill:#fff" d="M13,16.42c0,.23-4.53,14.5-4.53,14.5l2.27-2.3-3.26,10,2.14-3L7,48.1l1.23-1.3L6.12,55.62,8,53.32,6.12,59.91,20.7,58.84,17.24,46.41l2.09,2.3-2.7-9.05,1.38.77L14.87,28.77l1.45,1Z" />
        <path style="fill:#fff" d="M13.44,41.89l-.07.21-.23.58-.82,2,0,.09,0-.08a10.71,10.71,0,0,1-.59-1.32c-.07-.18-.13-.36-.18-.53h.09c-.4,1-.8,1.91-1.09,2.55-.15.31-.27.57-.36.74l-.1.2s0,.06,0,.06l.12-.28.33-.75c.28-.64.66-1.53,1.06-2.56l0-.13,0,.13a5.34,5.34,0,0,0,.18.52,9.37,9.37,0,0,0,.58,1.31h-.08l.85-2,.25-.56C13.4,42,13.43,41.88,13.44,41.89Z" />
        <path style="fill:#fff" d="M15,36.56l-.08-.15L14.7,36c-.18-.37-.45-.89-.79-1.47H14l-.23.9-.15.57,0,.13L13.52,36c-.31-.69-.58-1.3-.77-1.74l-.21-.52a.7.7,0,0,1-.07-.19,1.85,1.85,0,0,1,.1.18l.24.5.8,1.73h-.09l.15-.57.24-.9,0-.11.06.1A15.21,15.21,0,0,1,14.75,36l.19.44C15,36.5,15,36.56,15,36.56Z" />
        <path style="fill:#fff" d="M12.93,25.63a3.59,3.59,0,0,1-.26.51L12,27.37l-.07.11,0-.13-.08-.43-.13-.75.08,0c-.26.41-.48.76-.65,1a3.12,3.12,0,0,1-.27.39,3,3,0,0,1,.23-.42c.15-.25.36-.61.62-1l.06-.1,0,.12.13.74.08.44-.08,0c.28-.48.53-.91.72-1.21A2.75,2.75,0,0,1,12.93,25.63Z" />
        <polygon style="fill:#fff" points="115.11 64.13 117.41 62.81 118.18 58.85 118.82 59.03 118.26 62.77 120.47 61.28 120.95 61.83 118.03 63.69 115.11 65.06 115.11 64.13" />
        <rect style="fill:#fff" height="25.78" transform="translate(229.18 142.48) rotate(180)" width="1.69" x="113.75" y="58.35" />
        <path style="fill:#fff" d="M115.05,16.58c0,.23,4.52,14.5,4.52,14.5l-2.26-2.3,3.26,10-2.15-3L121,48.26,119.73,47l2.15,8.82L120,53.48l1.85,6.59L107.3,59l3.45-12.43-2.08,2.3,2.7-9-1.38.77,3.14-11.66-1.46,1Z" />
        <path style="fill:#fff" d="M114.56,42.05s0,.07.07.21l.23.58.82,2,0,.09.05-.08a10.08,10.08,0,0,0,.59-1.32c.07-.18.13-.36.18-.53h-.09c.4,1,.79,1.91,1.09,2.55.15.32.27.57.36.74l.1.2s0,.07,0,.06a1.12,1.12,0,0,0-.11-.27l-.33-.76c-.28-.64-.66-1.53-1.06-2.56l0-.12,0,.13c0,.16-.11.34-.18.51a10.08,10.08,0,0,1-.58,1.32h.08c-.34-.8-.63-1.48-.85-2l-.25-.57Z" />
        <path style="fill:#fff" d="M113,36.72l.08-.15.21-.44c.18-.37.44-.89.79-1.46l-.09,0,.24.9.15.57,0,.13,0-.12c.32-.69.58-1.3.77-1.74l.22-.52a.7.7,0,0,0,.07-.19.76.76,0,0,0-.1.18l-.24.5c-.21.44-.49,1-.8,1.73h.09l-.15-.57-.24-.9,0-.11,0,.1a13.25,13.25,0,0,0-.76,1.49c-.09.19-.15.34-.19.45S113,36.72,113,36.72Z" />
        <path style="fill:#fff" d="M115.07,25.79a3.59,3.59,0,0,0,.26.51l.69,1.23.07.11,0-.12.08-.44.13-.74h-.09l.65,1a2.75,2.75,0,0,0,.28.39,3,3,0,0,0-.23-.42c-.15-.25-.36-.61-.62-1l-.06-.1,0,.12-.14.74-.07.44.08,0c-.28-.48-.53-.91-.72-1.21A4.35,4.35,0,0,0,115.07,25.79Z" />
        <path style="fill:#fff" d="M24.69,35.21s2.63,5.55,3.28,5.3c.84-.32,2.35-6.19,2.35-6.19S25.19,35.15,24.69,35.21Z" />
        <path style="fill:#fff" d="M30.87,34.23s3.07,5.28,3.7,5c.81-.4,1.83-6.4,1.83-6.4S31.37,34.12,30.87,34.23Z" />
        <path style="fill:#fff" d="M36.93,32.63s3.5,4.95,4.1,4.58c.77-.48,1.29-6.55,1.29-6.55S37.42,32.47,36.93,32.63Z" />
        <path style="fill:#fff" d="M42.57,30.58s3.76,4.72,4.33,4.31c.75-.53,1-6.62,1-6.62S43.05,30.39,42.57,30.58Z" />
        <path style="fill:#fff" d="M48.14,28s4.18,4.27,4.71,3.8c.7-.61.32-6.7.32-6.7S48.6,27.76,48.14,28Z" />
        <path style="fill:#fff" d="M53.45,24.91s4.46,3.91,5,3.39c.65-.66-.15-6.7-.15-6.7S53.89,24.63,53.45,24.91Z" />
        <path style="fill:#fff" d="M18.53,35.6s2.22,5.77,2.88,5.57c.86-.24,2.79-6,2.79-6S19,35.59,18.53,35.6Z" />
        <path style="fill:#fff" d="M62.84,18l-.11.1-.33.29-.54.47-.34.3-.4.33-.94.77-1.14.9c-.2.16-.42.32-.64.48l-.68.51-.36.27-.38.26-.77.55a70.23,70.23,0,0,1-7.78,4.67c-1.51.77-3.12,1.54-4.81,2.26s-3.48,1.39-5.32,2l-1.38.44-1.37.4-.34.1-.34.09-.68.18-.67.18-.67.16c-.45.1-.88.22-1.32.31l-1.3.27L29,34.53l-.63.11-.63.1c-1.65.27-3.23.43-4.71.56s-2.87.19-4.13.19h-.93c-.3,0-.59,0-.87,0-.57,0-1.11,0-1.61-.05s-1,0-1.4-.08l-1.17-.09-.5-.05-.44,0-.68-.07-.42-.05-.14,0h.14l.42,0,.69.08.43,0,.5,0,1.17.09c.43,0,.9.05,1.4.08s1,0,1.61,0c.28,0,.57,0,.87,0h.93c1.26,0,2.64-.09,4.12-.2s3.06-.3,4.71-.57l.63-.1.63-.11,1.28-.24,1.3-.27c.43-.09.87-.21,1.32-.31l.67-.16.67-.18.67-.18.34-.09.34-.1,1.37-.4,1.38-.44c1.84-.62,3.62-1.29,5.32-2s3.3-1.49,4.81-2.26a73.88,73.88,0,0,0,7.78-4.66l.77-.55.38-.26.36-.26.68-.51c.23-.16.44-.32.64-.48l1.14-.89.94-.77.4-.33.35-.3.54-.46.33-.29Z" />
        <path style="fill:#fff" d="M15.89,35.58l-.46,0-.51,0c-.31,0-.61,0-.89-.05l-1.35-.11a3.16,3.16,0,0,1-.32,0l-1.54-.17-.15,0,0-.24h.15l1.54.16.31,0,1.36.11.87,0,.53,0q.57,0,1.23,0h2.17c1.14,0,2.45-.07,4.12-.2,1.39-.13,3-.29,4.7-.57l1.25-.21.45-.08.83-.16,1.3-.27.84-.2.47-.11,1.34-.34,1.35-.36,1.37-.41L38.25,32c1.76-.59,3.55-1.26,5.31-2,1.56-.67,3.18-1.42,4.8-2.25a71.55,71.55,0,0,0,7.77-4.65l1.71-1.22.57-.43c.19-.14.38-.27.55-.41l1.14-.89,1.68-1.39.87-.75.12-.1.14.19-.12.1-1.61,1.39-.93.78-1.14.89-.56.42-.9.67-.23.18-1.15.81A72,72,0,0,1,48.48,28c-1.63.83-3.25,1.59-4.82,2.26-1.77.75-3.56,1.42-5.33,2L37,32.72l-3.41,1-.67.16-.47.11c-.29.07-.57.14-.85.19l-1.3.28-.84.15-.45.08-1.25.22c-1.7.28-3.33.44-4.72.56-1.68.13-3,.19-4.14.19h-.93c-.19,0-.39,0-.58,0h-.66Z" />
        <path style="fill:#fff" d="M101.42,32.57s-2.31,5.71-3,5.5c-.85-.27-2.64-6-2.64-6S100.92,32.54,101.42,32.57Z" />
        <path style="fill:#fff" d="M95.26,32s-2.77,5.46-3.41,5.19c-.82-.35-2.14-6.27-2.14-6.27S94.76,31.91,95.26,32Z" />
        <path style="fill:#fff" d="M89.18,30.75s-3.2,5.17-3.81,4.83c-.79-.43-1.62-6.46-1.62-6.46S88.69,30.63,89.18,30.75Z" />
        <path style="fill:#fff" d="M83.5,29.06S80,34,79.43,33.64c-.76-.49-1.27-6.56-1.27-6.56S83,28.9,83.5,29.06Z" />
        <path style="fill:#fff" d="M77.86,26.83S74,31.35,73.39,30.91s-.65-6.66-.65-6.66S77.4,26.62,77.86,26.83Z" />
        <path style="fill:#fff" d="M72.45,24.07s-4.21,4.18-4.74,3.7-.19-6.7-.19-6.7S72,23.82,72.45,24.07Z" />
        <path style="fill:#fff" d="M107.54,32.59s-1.9,5.89-2.57,5.74c-.86-.2-3.06-5.79-3.06-5.79S107,32.6,107.54,32.59Z" />
        <path style="fill:#fff" d="M62.81,17.74l.12.1.34.27.55.43.36.28.41.3,1,.72,1.17.82.66.45.71.46.36.25.39.24.8.5a69.34,69.34,0,0,0,7.92,4.18c1.54.68,3.17,1.34,4.88,2s3.51,1.17,5.37,1.67l1.39.36,1.37.31.34.08.34.07.68.14.68.14.67.11c.44.08.88.17,1.32.23l1.3.19,1.28.16.63.07.62.06c1.65.17,3.22.23,4.69.27s2.85,0,4.1-.06l.91,0c.3,0,.59-.05.87-.07.56-.05,1.09-.08,1.58-.15s1-.1,1.38-.16l1.16-.17.49-.07.43-.08.67-.12.41-.08.14,0-.14,0-.41.07-.68.11-.43.08-.49.07L112,32c-.42.06-.88.1-1.38.16s-1,.1-1.58.14l-.87.07-.92,0c-1.25.07-2.62.08-4.09.06s-3-.11-4.69-.28l-.62-.06-.63-.07-1.27-.16-1.3-.19-1.33-.23-.66-.12-.68-.13-.68-.14-.34-.07L90.58,31l-1.37-.31-1.39-.36q-2.77-.75-5.36-1.67c-1.71-.62-3.34-1.28-4.88-1.95a72.17,72.17,0,0,1-7.93-4.17l-.79-.5-.39-.24-.37-.24-.7-.47-.66-.44-1.17-.81-1-.72-.41-.3-.36-.27-.56-.44-.34-.26Z" />
        <path style="fill:#fff" d="M110.14,32.4l.46,0,.5-.05.88-.11,1.33-.2.31,0,1.52-.28.14,0,0-.23-.14,0-1.52.26-.31,0-1.33.19-.86.1-.52.06c-.38.05-.79.08-1.22.11l-.36,0-.31,0-.56,0-.91,0c-1.13.06-2.43.08-4.09.06-1.38,0-3-.1-4.68-.28L97.2,32l-.45-.06-.83-.1-1.3-.19-.85-.14-.47-.09L92,31.15l-1.35-.28-1.38-.32-1.38-.36c-1.78-.48-3.58-1-5.36-1.66-1.58-.57-3.22-1.23-4.87-2a68.74,68.74,0,0,1-7.91-4.16L68,21.3l-.59-.39-.56-.38-1.17-.82-1.74-1.28-.9-.7-.12-.09-.13.2.12.09,1.67,1.29,1,.72,1.18.82.57.39.92.61.24.16,1.18.74a70,70,0,0,0,7.94,4.19c1.66.73,3.3,1.39,4.89,2,1.78.63,3.59,1.2,5.37,1.68l1.39.35,3.42.74.67.12.47.08c.29.06.57.11.86.15l1.3.19.83.1.45.06,1.25.13c1.69.17,3.31.23,4.7.27,1.66,0,3,0,4.1-.06l.92,0,.57,0,.3,0,.36,0Z" />
        <path style="fill:#fff" d="M127.67,84.11s-28.58.09-63.83.09S0,84.16,0,84.11,28.58,84,63.84,84,127.67,84.06,127.67,84.11Z" />
        <path style="fill:#fff" d="M115.23,83.58s-.07-.4-.24-1a8.22,8.22,0,0,0-1.07-2.35,8.94,8.94,0,0,0-1.82-2c-.56-.44-.94-.66-.92-.69a1.23,1.23,0,0,1,.29.13,6.13,6.13,0,0,1,.73.45,8,8,0,0,1,1.91,2,7.09,7.09,0,0,1,1,2.42,5.26,5.26,0,0,1,.11.78C115.25,83.48,115.25,83.58,115.23,83.58Z" />
        <path style="fill:#fff" d="M118,71.68a1.65,1.65,0,0,1-.14.48c-.1.3-.24.75-.4,1.3a24.65,24.65,0,0,0-.84,4.36,24,24,0,0,0,0,4.43c.06.57.11,1,.16,1.34a1.81,1.81,0,0,1,0,.49,2.44,2.44,0,0,1-.13-.48c-.07-.31-.15-.77-.22-1.34a20.51,20.51,0,0,1-.07-4.45,21.06,21.06,0,0,1,.91-4.39c.18-.55.34-1,.47-1.28A2.6,2.6,0,0,1,118,71.68Z" />
        <path style="fill:#fff" d="M121.49,78.5a11.11,11.11,0,0,0-1.77,2.58,10.69,10.69,0,0,0-.72,3,2.72,2.72,0,0,1,0-.9,6.2,6.2,0,0,1,.55-2.12,6.87,6.87,0,0,1,1.24-1.88A2.88,2.88,0,0,1,121.49,78.5Z" />
        <rect style="fill:#fff" height="75.36" width="89.88" x="20.43" y="25.17" />
        <g style="clip-path:url(#clip-path)">
            <path style="fill:#fff" d="M37.22,35.93s2.58-1.14,6.05.93c4.34,2.6,1,5.69,1,5.69Z" />
            <path style="fill:#fff" d="M29.08,44a8.14,8.14,0,0,0,16.25-.59,8,8,0,0,0-8.41-7.46,8.12,8.12,0,0,0-7.54,5.64A7.16,7.16,0,0,0,29.08,44Z" />
            <path style="fill:#fff" d="M42.91,47a2.1,2.1,0,1,0,1.31-2.67A2.11,2.11,0,0,0,42.91,47Z" />
            <polygon style="fill:#fff" points="40.41 51.2 40.49 56.35 34.42 56.12 35.03 46.93 40.41 51.2" />
            <path style="fill:#fff" d="M40.46,54.54s-5-1.28-4.86-5.74l4.79,2.28Z" />
            <path style="fill:#fff" d="M44.1,38.85a3,3,0,0,1,1.07,1.72c.48,2,1.4,5.51.76,7.67a5.61,5.61,0,0,1-6.67,4.3s-4.39-.28-5.49-5.78C32,38,39.42,35.17,44.1,38.85Z" />
            <path style="fill:#fff" d="M43.42,46.07a1,1,0,0,1,0,1.26" />
            <path style="fill:#fff" d="M39.85,41.46s1.78-.38,1.91.44c0,0,.07.56-1.49.86s-2.19.28-2.41-.23S39,41.57,39.85,41.46Z" />
            <path style="fill:#fff" d="M45.08,41.41s-1.31-.23-1.48.43c0,0-.1.45,1,.63.84.12,1.15,0,1.22-.33S45.57,41.46,45.08,41.41Z" />
            <path style="fill:#fff" d="M44.46,48l-3.69.17a1.7,1.7,0,0,0,1.85,1.53A1.89,1.89,0,0,0,44.46,48Z" />
            <g style="clip-path:url(#clip-path-2)">
                <path style="fill:#fff" d="M40.73,50.84a1.3,1.3,0,1,0,.58-1.75A1.3,1.3,0,0,0,40.73,50.84Z" />
                <polygon style="fill:#fff" points="44.73 48.52 40.54 48.67 40.52 47.96 44.7 47.66 44.73 48.52" />
            </g>
            <path style="fill:#fff" d="M41.71,45.28a1.43,1.43,0,0,0-1.88.07" />
            <path style="fill:#fff" d="M45.79,45a.91.91,0,0,0-1.37.17" />
            <path style="fill:#fff" d="M34.37,46.47s1.78.59,2-2.74a6.77,6.77,0,0,1,5-6.22s-2.21-2.71-7.07,1.05S34.37,46.47,34.37,46.47Z" />
            <circle style="fill:#fff" cx="33.24" cy="47.14" r="2.41" transform="translate(-20.3 68.6) rotate(-76.65)" />
            <path style="fill:#fff" d="M32.13,46.48a1.45,1.45,0,0,1,2,1.19" />
            <path style="fill:#fff" d="M41.43,37.51A2.82,2.82,0,0,0,40,36.68a3.69,3.69,0,0,1,1.37,1.47Z" />
            <path style="fill:#fff" d="M48.47,80.34s5.43,6.47,6.06,19.41a199.7,199.7,0,0,1-.47,24.74H44.4L41,80.34Z" />
            <path style="fill:#fff" d="M33.06,80.34s-3,7.36-4,22.61c-1.36,21.43-1,21.54-1,21.54h10.1L44.31,96.4l1.6-16.06Z" />
            <polyline style="fill:#fff" points="42.92 103.14 44.34 93.06 48.02 90.55" />
            <path style="fill:#fff" d="M34.26,55.49h-7c-.77,0-.68.63-.66,1.4.1,3.35,2.18,13.67,6.42,23.45H48.47L46.76,58.53c0-1,.4-1.91-.62-2.13l-5.7-.91Z" />
            <path style="fill:#fff" d="M32.59,55.49h7.85l1.64.26s1.76,3-2.87,3S32.7,56,32.59,55.49Z" />
            <path style="fill:#fff" d="M40.91,77.18s5.58.9,7-1.26L43,74.51,41.55,74Z" />
            <path style="fill:#fff" d="M30.58,58.41A89.51,89.51,0,0,0,34.46,74a3.24,3.24,0,0,1-.52,3.17h0a3.17,3.17,0,0,1-5.25-.53A43.54,43.54,0,0,1,24.86,65.9,68.5,68.5,0,0,1,24,59a3.3,3.3,0,0,1,3.3-3.51h0A3.31,3.31,0,0,1,30.58,58.41Z" />
            <polygon style="fill:#fff" points="31.81 78.33 41.67 78.33 42.14 72.83 34.91 71.03 31.81 72.25 31.81 78.33" />
            <line style="fill:#fff" x1="33.12" x2="31.32" y1="69.64" y2="60.73" />
            <line style="fill:#fff" x1="33.77" x2="31.81" y1="72.02" y2="72.25" />
            <polyline style="fill:#fff" points="32.34 78.23 41.7 78 41.76 77.37" />
            <path style="fill:#fff" d="M45,56.38A5.47,5.47,0,0,1,50.7,60c1.26,3.52,5.68,11.56,5.92,15.86a2.23,2.23,0,0,1-.19.92,2.8,2.8,0,0,1-3.17,1.57L51.64,78,44.41,64.4Z" />
            <path style="fill:#fff" d="M48.24,70.7s2.89-6-1.34-10.2" />
            <path style="fill:#fff" d="M42.72,70.3l-5.34-1s-2.88-1-4.26.58L33.77,72a4.19,4.19,0,0,1,2.33,0c.81.41,6.92,2.43,6.92,2.49S42.72,70.3,42.72,70.3Z" />
            <polygon style="fill:#fff" points="51.64 78 41.9 75.67 41.49 69.97 52.39 71.43 51.64 78" />
            <line style="fill:#fff" x1="41.49" x2="52.39" y1="69.97" y2="71.43" />
            <path style="fill:#fff" d="M77.49,83.92l-9,40.37H81l5.72-23.46,2.06,23.68h11.42s0-38.89-4.25-40.59Z" />
            <line style="fill:#fff" x1="86.69" x2="81.78" y1="100.83" y2="99.33" />
            <path style="fill:#fff" d="M77.23,56s-5.34,1.42-4.45,15.68l7.89,3Z" />
            <path style="fill:#fff" d="M57.39,58.36s1.94,4.06,4.12,3.67l2-.66S66,61,65.72,57.85a2.56,2.56,0,0,0-2.82-2.79" />
            <line style="fill:#fff" x1="58" x2="57.84" y1="56.75" y2="56.95" />
            <path style="fill:#fff" d="M63.42,55.4l-2.79-5.81a.8.8,0,0,0-1.15-.35h0a.8.8,0,0,0-.32.95l1.63,4-.16.15-2.28-3.92a.75.75,0,0,0-1.17-.09h0a.77.77,0,0,0-.08,1l2.07,4-.18.2-2.42-3.24" />
            <path style="fill:#fff" d="M63.42,55.4A3.76,3.76,0,0,0,61.66,59" />
            <polygon style="fill:#fff" points="68.27 64.54 64.27 59.23 60.12 61.11 68.48 73.61 68.27 64.54" />
            <path style="fill:#fff" d="M79.83,76.39c1.38,2.21-.39,5.86-2.75,7a4.33,4.33,0,0,1-5.61-1.84l-11.13-16,6.5-4.14Z" />
            <line style="fill:#fff" x1="72.84" x2="74.09" y1="68.31" y2="69.75" />
            <path style="fill:#fff" d="M89.27,52.82l9.53,3c1.39.55,1.45,2.08,1.33,3.73L97.89,87.92l-21.79,0-1.19-28.1A3.81,3.81,0,0,1,77.23,56l8-3.17Z" />
            <polygon style="fill:#fff" points="93.55 54.14 89.27 52.82 83.61 53.47 81.7 54.25 84.35 58.67 93.55 54.14" />
            <line style="fill:#fff" x1="75.35" x2="75.96" y1="62.37" y2="83.68" />
            <path style="fill:#fff" d="M101.92,58.56c2.07,4.68,5.9,12.22,8,17a4.54,4.54,0,0,1-2.68,6.12h0a5.22,5.22,0,0,1-6-2.24L92.78,62.91a5.06,5.06,0,0,1,2.9-7.1h0A5.08,5.08,0,0,1,101.92,58.56Z" />
            <line style="fill:#fff" x1="98.82" x2="94.15" y1="75.01" y2="65.6" />
            <polygon style="fill:#fff" points="95.3 88.72 94.26 90.51 95.81 97.08 98.21 92.5 95.3 88.72" />
            <polygon style="fill:#fff" points="101.69 73.81 95.3 88.72 100.17 95.03 109.77 79.54 101.69 73.81" />
            <line style="fill:#fff" x1="100.17" x2="101.69" y1="77.37" y2="73.81" />
            <line style="fill:#fff" x1="98.4" x2="95.78" y1="81.49" y2="87.6" />
            <polygon style="fill:#fff" points="93.7 39.95 89.88 48.72 88.65 44.97 93.7 39.95" />
            <path style="fill:#fff" d="M81.06,43.71a2.14,2.14,0,1,1-1.7-2.5A2.14,2.14,0,0,1,81.06,43.71Z" />
            <polygon style="fill:#fff" points="83.31 47.96 83.42 53.71 90.84 53.27 89.62 42.19 83.31 47.96" />
            <path style="fill:#fff" d="M83.39,52.29s5.25-1.48,5.47-6.45L83.31,48.2Z" />
            <path style="fill:#fff" d="M81.29,34.05A5.56,5.56,0,0,0,78,38.79c-.16,2.37-.26,6,.54,7.8,1.23,2.74,3.69,4.28,7.3,3.17,0,0,4.25-.67,4.64-7.12C91,35,85.54,32.21,81.29,34.05Z" />
            <path style="fill:#fff" d="M88.54,42.7s-.35-.79.14-4.57a1.76,1.76,0,0,0-.22-1.1h0a1.71,1.71,0,0,0-1.84-.86c-4.37,1.07-5.81.93-8,.3,0,0,.87-4.6,8-4.37,11.26.35,8,10.68,2.68,12.8Z" />
            <circle style="fill:#fff" cx="90.78" cy="43.11" r="2.59" transform="translate(-0.1 0.2) rotate(-0.13)" />
            <path style="fill:#fff" d="M91.86,42.23A1.91,1.91,0,0,0,89.63,44" />
            <path style="fill:#fff" d="M83.87,38s-1.54-.27-1.59.56c0,0,0,.56,1.32.76s1.88.14,2-.38S84.6,38.07,83.87,38Z" />
            <path style="fill:#fff" d="M78.12,39.37s1.39-.45,1.6.35c0,0,.13.54-1.09.89-.89.25-1.22.1-1.32-.26S77.6,39.49,78.12,39.37Z" />
            <path style="fill:#fff" d="M80,45.19l2.94.08a2,2,0,0,1-1.75.94A1.2,1.2,0,0,1,80,45.19Z" />
            <path style="fill:#fff" d="M83.77,41.92a.58.58,0,0,1-1.15,0,.58.58,0,1,1,1.15,0Z" />
            <path style="fill:#fff" d="M79.37,42a.53.53,0,1,1-.52-.53A.52.52,0,0,1,79.37,42Z" />
            <path style="fill:#fff" d="M80.49,43.07a.94.94,0,0,0,0,1.26" />
            <rect style="fill:#fff" height="12.64" transform="translate(-4.96 6.14) rotate(-5.7)" width="5.19" x="56.62" y="46.59" />
            <rect style="fill:#fff" height="12.78" transform="matrix(0.97, 0.26, -0.26, 0.97, 16.17, -14.58)" width="5.19" x="60.32" y="47.12" />
            <path style="fill:#fff" d="M65.36,56.2s-3.13-.15-3.74-.79-1,0-1,0A1.71,1.71,0,0,0,61,57a24.31,24.31,0,0,0,3.6,1.9A3.29,3.29,0,0,0,65.36,56.2Z" />
            <rect style="fill:#fff" height="1.32" rx="0.66" transform="translate(16.59 -13.07) rotate(15.15)" width="3.34" x="55.78" y="55.18" />
            <rect style="fill:#fff" height="1.32" rx="0.66" transform="translate(16.25 -13.15) rotate(15.15)" width="3.34" x="55.9" y="53.86" />
            <rect style="fill:#fff" height="1.32" rx="0.66" transform="translate(15.92 -13.23) rotate(15.15)" width="3.34" x="56.02" y="52.58" />
            <rect style="fill:#fff" height="1.32" rx="0.66" transform="translate(16.86 -12.92) rotate(15.15)" width="2.22" x="55.9" y="56.24" />
        </g>
    </g>
    <g style="opacity:0.6">
        <path style="fill:#ebebeb" d="M52.64,8.28c.26-1.88-2.4-3.43-4.39-3.59a11.17,11.17,0,0,1-2.84-.25c-2-.68-2.74-3.2-4.64-4-1.43-.6-3.06-.07-4.45.63A11.67,11.67,0,0,1,32,2.73c-1.34.09-2.8-.41-4,.25-.87.49-1.33,1.49-2.14,2.09a5.13,5.13,0,0,1-2.79.76,7.74,7.74,0,0,0-2.88.47A2.28,2.28,0,0,0,18.8,8.61Z" />
        <path style="fill:#f5f5f5" d="M104.4,15.85c.16-1.18-1.5-2.14-2.75-2.24a7,7,0,0,1-1.77-.16c-1.22-.42-1.71-2-2.9-2.5a3.36,3.36,0,0,0-2.78.39,7.34,7.34,0,0,1-2.69,1c-.84.06-1.75-.26-2.48.15-.55.31-.84.94-1.34,1.31a3.2,3.2,0,0,1-1.75.48,4.93,4.93,0,0,0-1.8.29,1.44,1.44,0,0,0-.91,1.45Z" />
        <polygon style="fill:#ebebeb" points="62.91 56.41 60.82 55.23 60.13 51.71 59.55 51.87 60.05 55.19 58.05 53.87 57.61 54.36 60.26 56.01 62.91 57.23 62.91 56.41" />
        <rect style="fill:#ebebeb" height="32.65" width="1.53" x="62.62" y="51.27" />
        <path style="fill:#e0e0e0" d="M63,14.14C63,14.34,58.86,27,58.86,27l2-2L58,33.84l1.95-2.66L57.61,42.3l1.11-1.16L56.77,49l1.67-2L56.77,52.8l13.22-1-3.13-11,1.89,2-2.44-8,1.25.68L64.71,25.12,66,26Z" />
        <path style="fill:#ebebeb" d="M63.41,36.77a1.23,1.23,0,0,1-.07.19l-.2.52c-.19.45-.45,1.06-.74,1.77l0,.08,0-.08a9.11,9.11,0,0,1-.54-1.17c-.05-.16-.11-.32-.15-.47h.08c-.37.91-.73,1.7-1,2.27-.13.28-.24.5-.32.66l-.09.17,0,.06a1.23,1.23,0,0,1,.1-.25l.3-.67c.26-.57.6-1.36,1-2.27l0-.12,0,.12c0,.15.1.3.16.46a8.42,8.42,0,0,0,.53,1.17h-.08l.77-1.76.23-.51A1.16,1.16,0,0,1,63.41,36.77Z" />
        <path style="fill:#ebebeb" d="M64.82,32s0-.05-.08-.14l-.19-.38c-.16-.33-.4-.79-.71-1.31h.07l-.21.8-.13.51,0,.11,0-.11c-.28-.61-.53-1.15-.7-1.54l-.2-.46-.06-.17a.83.83,0,0,1,.09.16l.22.45c.19.38.44.92.72,1.53h-.08l.14-.51.21-.8,0-.09,0,.08a13.56,13.56,0,0,1,.69,1.32c.08.17.13.31.17.4A1,1,0,0,1,64.82,32Z" />
        <path style="fill:#ebebeb" d="M63,22.32a4.21,4.21,0,0,1-.24.46c-.15.27-.37.66-.63,1.09l0,.1,0-.11-.08-.39-.11-.66h.07c-.23.37-.44.68-.59.9a3.51,3.51,0,0,1-.25.35,2.68,2.68,0,0,1,.21-.37l.56-.92.06-.09,0,.1.12.66.07.39H62l.65-1.08A3.9,3.9,0,0,1,63,22.32Z" />
        <polygon style="fill:#ebebeb" points="12.88 63.97 10.58 62.65 9.82 58.69 9.18 58.87 9.74 62.61 7.53 61.12 7.05 61.67 9.97 63.53 12.88 64.9 12.88 63.97" />
        <rect style="fill:#ebebeb" height="25.78" width="1.69" x="12.57" y="58.19" />
        <path style="fill:#e0e0e0" d="M13,16.42c0,.23-4.53,14.5-4.53,14.5l2.27-2.3-3.26,10,2.14-3L7,48.1l1.23-1.3L6.12,55.62,8,53.32,6.12,59.91,20.7,58.84,17.24,46.41l2.09,2.3-2.7-9.05,1.38.77L14.87,28.77l1.45,1Z" />
        <path style="fill:#ebebeb" d="M13.44,41.89l-.07.21-.23.58-.82,2,0,.09,0-.08a10.71,10.71,0,0,1-.59-1.32c-.07-.18-.13-.36-.18-.53h.09c-.4,1-.8,1.91-1.09,2.55-.15.31-.27.57-.36.74l-.1.2s0,.06,0,.06l.12-.28.33-.75c.28-.64.66-1.53,1.06-2.56l0-.13,0,.13a5.34,5.34,0,0,0,.18.52,9.37,9.37,0,0,0,.58,1.31h-.08l.85-2,.25-.56C13.4,42,13.43,41.88,13.44,41.89Z" />
        <path style="fill:#ebebeb" d="M15,36.56l-.08-.15L14.7,36c-.18-.37-.45-.89-.79-1.47H14l-.23.9-.15.57,0,.13L13.52,36c-.31-.69-.58-1.3-.77-1.74l-.21-.52a.7.7,0,0,1-.07-.19,1.85,1.85,0,0,1,.1.18l.24.5.8,1.73h-.09l.15-.57.24-.9,0-.11.06.1A15.21,15.21,0,0,1,14.75,36l.19.44C15,36.5,15,36.56,15,36.56Z" />
        <path style="fill:#ebebeb" d="M12.93,25.63a3.59,3.59,0,0,1-.26.51L12,27.37l-.07.11,0-.13-.08-.43-.13-.75.08,0c-.26.41-.48.76-.65,1a3.12,3.12,0,0,1-.27.39,3,3,0,0,1,.23-.42c.15-.25.36-.61.62-1l.06-.1,0,.12.13.74.08.44-.08,0c.28-.48.53-.91.72-1.21A2.75,2.75,0,0,1,12.93,25.63Z" />
        <polygon style="fill:#ebebeb" points="115.11 64.13 117.41 62.81 118.18 58.85 118.82 59.03 118.26 62.77 120.47 61.28 120.95 61.83 118.03 63.69 115.11 65.06 115.11 64.13" />
        <rect style="fill:#ebebeb" height="25.78" transform="translate(229.18 142.48) rotate(180)" width="1.69" x="113.75" y="58.35" />
        <path style="fill:#e0e0e0" d="M115.05,16.58c0,.23,4.52,14.5,4.52,14.5l-2.26-2.3,3.26,10-2.15-3L121,48.26,119.73,47l2.15,8.82L120,53.48l1.85,6.59L107.3,59l3.45-12.43-2.08,2.3,2.7-9-1.38.77,3.14-11.66-1.46,1Z" />
        <path style="fill:#ebebeb" d="M114.56,42.05s0,.07.07.21l.23.58.82,2,0,.09.05-.08a10.08,10.08,0,0,0,.59-1.32c.07-.18.13-.36.18-.53h-.09c.4,1,.79,1.91,1.09,2.55.15.32.27.57.36.74l.1.2s0,.07,0,.06a1.12,1.12,0,0,0-.11-.27l-.33-.76c-.28-.64-.66-1.53-1.06-2.56l0-.12,0,.13c0,.16-.11.34-.18.51a10.08,10.08,0,0,1-.58,1.32h.08c-.34-.8-.63-1.48-.85-2l-.25-.57Z" />
        <path style="fill:#ebebeb" d="M113,36.72l.08-.15.21-.44c.18-.37.44-.89.79-1.46l-.09,0,.24.9.15.57,0,.13,0-.12c.32-.69.58-1.3.77-1.74l.22-.52a.7.7,0,0,0,.07-.19.76.76,0,0,0-.1.18l-.24.5c-.21.44-.49,1-.8,1.73h.09l-.15-.57-.24-.9,0-.11,0,.1a13.25,13.25,0,0,0-.76,1.49c-.09.19-.15.34-.19.45S113,36.72,113,36.72Z" />
        <path style="fill:#ebebeb" d="M115.07,25.79a3.59,3.59,0,0,0,.26.51l.69,1.23.07.11,0-.12.08-.44.13-.74h-.09l.65,1a2.75,2.75,0,0,0,.28.39,3,3,0,0,0-.23-.42c-.15-.25-.36-.61-.62-1l-.06-.1,0,.12-.14.74-.07.44.08,0c-.28-.48-.53-.91-.72-1.21A4.35,4.35,0,0,0,115.07,25.79Z" />
        <path style="fill:#f5f5f5" d="M24.69,35.21s2.63,5.55,3.28,5.3c.84-.32,2.35-6.19,2.35-6.19S25.19,35.15,24.69,35.21Z" />
        <path style="fill:#ebebeb" d="M30.87,34.23s3.07,5.28,3.7,5c.81-.4,1.83-6.4,1.83-6.4S31.37,34.12,30.87,34.23Z" />
        <path style="fill:#f5f5f5" d="M36.93,32.63s3.5,4.95,4.1,4.58c.77-.48,1.29-6.55,1.29-6.55S37.42,32.47,36.93,32.63Z" />
        <path style="fill:#ebebeb" d="M42.57,30.58s3.76,4.72,4.33,4.31c.75-.53,1-6.62,1-6.62S43.05,30.39,42.57,30.58Z" />
        <path style="fill:#f5f5f5" d="M48.14,28s4.18,4.27,4.71,3.8c.7-.61.32-6.7.32-6.7S48.6,27.76,48.14,28Z" />
        <path style="fill:#ebebeb" d="M53.45,24.91s4.46,3.91,5,3.39c.65-.66-.15-6.7-.15-6.7S53.89,24.63,53.45,24.91Z" />
        <path style="fill:#ebebeb" d="M18.53,35.6s2.22,5.77,2.88,5.57c.86-.24,2.79-6,2.79-6S19,35.59,18.53,35.6Z" />
        <path style="fill:#455b64" d="M62.84,18l-.11.1-.33.29-.54.47-.34.3-.4.33-.94.77-1.14.9c-.2.16-.42.32-.64.48l-.68.51-.36.27-.38.26-.77.55a70.23,70.23,0,0,1-7.78,4.67c-1.51.77-3.12,1.54-4.81,2.26s-3.48,1.39-5.32,2l-1.38.44-1.37.4-.34.1-.34.09-.68.18-.67.18-.67.16c-.45.1-.88.22-1.32.31l-1.3.27L29,34.53l-.63.11-.63.1c-1.65.27-3.23.43-4.71.56s-2.87.19-4.13.19h-.93c-.3,0-.59,0-.87,0-.57,0-1.11,0-1.61-.05s-1,0-1.4-.08l-1.17-.09-.5-.05-.44,0-.68-.07-.42-.05-.14,0h.14l.42,0,.69.08.43,0,.5,0,1.17.09c.43,0,.9.05,1.4.08s1,0,1.61,0c.28,0,.57,0,.87,0h.93c1.26,0,2.64-.09,4.12-.2s3.06-.3,4.71-.57l.63-.1.63-.11,1.28-.24,1.3-.27c.43-.09.87-.21,1.32-.31l.67-.16.67-.18.67-.18.34-.09.34-.1,1.37-.4,1.38-.44c1.84-.62,3.62-1.29,5.32-2s3.3-1.49,4.81-2.26a73.88,73.88,0,0,0,7.78-4.66l.77-.55.38-.26.36-.26.68-.51c.23-.16.44-.32.64-.48l1.14-.89.94-.77.4-.33.35-.3.54-.46.33-.29Z" />
        <path style="fill:#e0e0e0" d="M15.89,35.58l-.46,0-.51,0c-.31,0-.61,0-.89-.05l-1.35-.11a3.16,3.16,0,0,1-.32,0l-1.54-.17-.15,0,0-.24h.15l1.54.16.31,0,1.36.11.87,0,.53,0q.57,0,1.23,0h2.17c1.14,0,2.45-.07,4.12-.2,1.39-.13,3-.29,4.7-.57l1.25-.21.45-.08.83-.16,1.3-.27.84-.2.47-.11,1.34-.34,1.35-.36,1.37-.41L38.25,32c1.76-.59,3.55-1.26,5.31-2,1.56-.67,3.18-1.42,4.8-2.25a71.55,71.55,0,0,0,7.77-4.65l1.71-1.22.57-.43c.19-.14.38-.27.55-.41l1.14-.89,1.68-1.39.87-.75.12-.1.14.19-.12.1-1.61,1.39-.93.78-1.14.89-.56.42-.9.67-.23.18-1.15.81A72,72,0,0,1,48.48,28c-1.63.83-3.25,1.59-4.82,2.26-1.77.75-3.56,1.42-5.33,2L37,32.72l-3.41,1-.67.16-.47.11c-.29.07-.57.14-.85.19l-1.3.28-.84.15-.45.08-1.25.22c-1.7.28-3.33.44-4.72.56-1.68.13-3,.19-4.14.19h-.93c-.19,0-.39,0-.58,0h-.66Z" />
        <path style="fill:#f5f5f5" d="M101.42,32.57s-2.31,5.71-3,5.5c-.85-.27-2.64-6-2.64-6S100.92,32.54,101.42,32.57Z" />
        <path style="fill:#ebebeb" d="M95.26,32s-2.77,5.46-3.41,5.19c-.82-.35-2.14-6.27-2.14-6.27S94.76,31.91,95.26,32Z" />
        <path style="fill:#f5f5f5" d="M89.18,30.75s-3.2,5.17-3.81,4.83c-.79-.43-1.62-6.46-1.62-6.46S88.69,30.63,89.18,30.75Z" />
        <path style="fill:#ebebeb" d="M83.5,29.06S80,34,79.43,33.64c-.76-.49-1.27-6.56-1.27-6.56S83,28.9,83.5,29.06Z" />
        <path style="fill:#f5f5f5" d="M77.86,26.83S74,31.35,73.39,30.91s-.65-6.66-.65-6.66S77.4,26.62,77.86,26.83Z" />
        <path style="fill:#ebebeb" d="M72.45,24.07s-4.21,4.18-4.74,3.7-.19-6.7-.19-6.7S72,23.82,72.45,24.07Z" />
        <path style="fill:#ebebeb" d="M107.54,32.59s-1.9,5.89-2.57,5.74c-.86-.2-3.06-5.79-3.06-5.79S107,32.6,107.54,32.59Z" />
        <path style="fill:#455b64" d="M62.81,17.74l.12.1.34.27.55.43.36.28.41.3,1,.72,1.17.82.66.45.71.46.36.25.39.24.8.5a69.34,69.34,0,0,0,7.92,4.18c1.54.68,3.17,1.34,4.88,2s3.51,1.17,5.37,1.67l1.39.36,1.37.31.34.08.34.07.68.14.68.14.67.11c.44.08.88.17,1.32.23l1.3.19,1.28.16.63.07.62.06c1.65.17,3.22.23,4.69.27s2.85,0,4.1-.06l.91,0c.3,0,.59-.05.87-.07.56-.05,1.09-.08,1.58-.15s1-.1,1.38-.16l1.16-.17.49-.07.43-.08.67-.12.41-.08.14,0-.14,0-.41.07-.68.11-.43.08-.49.07L112,32c-.42.06-.88.1-1.38.16s-1,.1-1.58.14l-.87.07-.92,0c-1.25.07-2.62.08-4.09.06s-3-.11-4.69-.28l-.62-.06-.63-.07-1.27-.16-1.3-.19-1.33-.23-.66-.12-.68-.13-.68-.14-.34-.07L90.58,31l-1.37-.31-1.39-.36q-2.77-.75-5.36-1.67c-1.71-.62-3.34-1.28-4.88-1.95a72.17,72.17,0,0,1-7.93-4.17l-.79-.5-.39-.24-.37-.24-.7-.47-.66-.44-1.17-.81-1-.72-.41-.3-.36-.27-.56-.44-.34-.26Z" />
        <path style="fill:#e0e0e0" d="M110.14,32.4l.46,0,.5-.05.88-.11,1.33-.2.31,0,1.52-.28.14,0,0-.23-.14,0-1.52.26-.31,0-1.33.19-.86.1-.52.06c-.38.05-.79.08-1.22.11l-.36,0-.31,0-.56,0-.91,0c-1.13.06-2.43.08-4.09.06-1.38,0-3-.1-4.68-.28L97.2,32l-.45-.06-.83-.1-1.3-.19-.85-.14-.47-.09L92,31.15l-1.35-.28-1.38-.32-1.38-.36c-1.78-.48-3.58-1-5.36-1.66-1.58-.57-3.22-1.23-4.87-2a68.74,68.74,0,0,1-7.91-4.16L68,21.3l-.59-.39-.56-.38-1.17-.82-1.74-1.28-.9-.7-.12-.09-.13.2.12.09,1.67,1.29,1,.72,1.18.82.57.39.92.61.24.16,1.18.74a70,70,0,0,0,7.94,4.19c1.66.73,3.3,1.39,4.89,2,1.78.63,3.59,1.2,5.37,1.68l1.39.35,3.42.74.67.12.47.08c.29.06.57.11.86.15l1.3.19.83.1.45.06,1.25.13c1.69.17,3.31.23,4.7.27,1.66,0,3,0,4.1-.06l.92,0,.57,0,.3,0,.36,0Z" />
        <path style="fill:#263238" d="M127.67,84.11s-28.58.09-63.83.09S0,84.16,0,84.11,28.58,84,63.84,84,127.67,84.06,127.67,84.11Z" />
        <path style="fill:#263238" d="M115.23,83.58s-.07-.4-.24-1a8.22,8.22,0,0,0-1.07-2.35,8.94,8.94,0,0,0-1.82-2c-.56-.44-.94-.66-.92-.69a1.23,1.23,0,0,1,.29.13,6.13,6.13,0,0,1,.73.45,8,8,0,0,1,1.91,2,7.09,7.09,0,0,1,1,2.42,5.26,5.26,0,0,1,.11.78C115.25,83.48,115.25,83.58,115.23,83.58Z" />
        <path style="fill:#263238" d="M118,71.68a1.65,1.65,0,0,1-.14.48c-.1.3-.24.75-.4,1.3a24.65,24.65,0,0,0-.84,4.36,24,24,0,0,0,0,4.43c.06.57.11,1,.16,1.34a1.81,1.81,0,0,1,0,.49,2.44,2.44,0,0,1-.13-.48c-.07-.31-.15-.77-.22-1.34a20.51,20.51,0,0,1-.07-4.45,21.06,21.06,0,0,1,.91-4.39c.18-.55.34-1,.47-1.28A2.6,2.6,0,0,1,118,71.68Z" />
        <path style="fill:#263238" d="M121.49,78.5a11.11,11.11,0,0,0-1.77,2.58,10.69,10.69,0,0,0-.72,3,2.72,2.72,0,0,1,0-.9,6.2,6.2,0,0,1,.55-2.12,6.87,6.87,0,0,1,1.24-1.88A2.88,2.88,0,0,1,121.49,78.5Z" />
        <g style="clip-path:url(#clip-path-3)">
            <path style="fill:#7d4c2b" d="M43.06,43.19c-.18,4.32,2.16,8.28,3.49,12.39a2,2,0,0,1-1.32,3.11c-1.46.48-3.15.89-4.44.07A4.14,4.14,0,0,1,39.38,57a11.07,11.07,0,0,1-.75-6.77,18.69,18.69,0,0,1,2.6-6.38" />
            <path style="fill:#7d4c2b" d="M37.22,35.93s2.58-1.14,6.05.93c4.34,2.6,1,5.69,1,5.69Z" />
            <path style="fill:#7d4c2b" d="M29.08,44a8.14,8.14,0,0,0,16.25-.59,8,8,0,0,0-8.41-7.46,8.12,8.12,0,0,0-7.54,5.64A7.16,7.16,0,0,0,29.08,44Z" />
            <path style="fill:#f8a17d" d="M42.91,47a2.1,2.1,0,1,0,1.31-2.67A2.11,2.11,0,0,0,42.91,47Z" />
            <polygon style="fill:#fbbc9e" points="40.41 51.2 40.49 56.35 34.42 56.12 35.03 46.93 40.41 51.2" />
            <path style="fill:#e2a38a" d="M40.46,54.54s-5-1.28-4.86-5.74l4.79,2.28Z" />
            <path style="fill:#fbbc9e" d="M44.1,38.85a3,3,0,0,1,1.07,1.72c.48,2,1.4,5.51.76,7.67a5.61,5.61,0,0,1-6.67,4.3s-4.39-.28-5.49-5.78C32,38,39.42,35.17,44.1,38.85Z" />
            <path style="fill:none;stroke:#c0523c;stroke-linecap:round;stroke-linejoin:round;stroke-width:0.3172817826271057px" d="M43.42,46.07a1,1,0,0,1,0,1.26" />
            <path style="fill:#7d4c2b" d="M39.85,41.46s1.78-.38,1.91.44c0,0,.07.56-1.49.86s-2.19.28-2.41-.23S39,41.57,39.85,41.46Z" />
            <path style="fill:#7d4c2b" d="M45.08,41.41s-1.31-.23-1.48.43c0,0-.1.45,1,.63.84.12,1.15,0,1.22-.33S45.57,41.46,45.08,41.41Z" />
            <path style="fill:#200e0c" d="M44.46,48l-3.69.17a1.7,1.7,0,0,0,1.85,1.53A1.89,1.89,0,0,0,44.46,48Z" />
            <g style="clip-path:url(#clip-path-4)">
                <path style="fill:#f17db1" d="M40.73,50.84a1.3,1.3,0,1,0,.58-1.75A1.3,1.3,0,0,0,40.73,50.84Z" />
                <polygon style="fill:#fff" points="44.73 48.52 40.54 48.67 40.52 47.96 44.7 47.66 44.73 48.52" />
            </g>
            <path style="fill:none;stroke:#371220;stroke-linecap:round;stroke-linejoin:round;stroke-width:0.3585695144778831px" d="M41.71,45.28a1.43,1.43,0,0,0-1.88.07" />
            <path style="fill:none;stroke:#371220;stroke-linecap:round;stroke-linejoin:round;stroke-width:0.3585695144778831px" d="M45.79,45a.91.91,0,0,0-1.37.17" />
            <path style="fill:#7d4c2b" d="M34.37,46.47s1.78.59,2-2.74a6.77,6.77,0,0,1,5-6.22s-2.21-2.71-7.07,1.05S34.37,46.47,34.37,46.47Z" />
            <circle style="fill:#fbbc9e" cx="33.24" cy="47.14" r="2.41" transform="translate(-20.3 68.6) rotate(-76.65)" />
            <path style="fill:none;stroke:#c0523c;stroke-linecap:round;stroke-linejoin:round;stroke-width:0.3172817826271057px" d="M32.13,46.48a1.45,1.45,0,0,1,2,1.19" />
            <path style="fill:#fbbc9e" d="M41.43,37.51A2.82,2.82,0,0,0,40,36.68a3.69,3.69,0,0,1,1.37,1.47Z" />
            <path style="fill:#447e98" d="M48.47,80.34s5.43,6.47,6.06,19.41a199.7,199.7,0,0,1-.47,24.74H44.4L41,80.34Z" />
            <path style="fill:#447e98" d="M33.06,80.34s-3,7.36-4,22.61c-1.36,21.43-1,21.54-1,21.54h10.1L44.31,96.4l1.6-16.06Z" />
            <polyline style="fill:none;stroke:#0e1322;stroke-linecap:round;stroke-linejoin:round;stroke-width:0.4584593260656406px" points="42.92 103.14 44.34 93.06 48.02 90.55" />
            <path style="fill:#324850" d="M34.26,55.49h-7c-.77,0-.68.63-.66,1.4.1,3.35,2.18,13.67,6.42,23.45H48.47L46.76,58.53c0-1,.4-1.91-.62-2.13l-5.7-.91Z" />
            <path style="fill:#fbbc9e" d="M32.59,55.49h7.85l1.64.26s1.76,3-2.87,3S32.7,56,32.59,55.49Z" />
            <path style="fill:#fbbc9e" d="M40.91,77.18s5.58.9,7-1.26L43,74.51,41.55,74Z" />
            <path style="fill:#324850" d="M30.58,58.41A89.51,89.51,0,0,0,34.46,74a3.24,3.24,0,0,1-.52,3.17h0a3.17,3.17,0,0,1-5.25-.53A43.54,43.54,0,0,1,24.86,65.9,68.5,68.5,0,0,1,24,59a3.3,3.3,0,0,1,3.3-3.51h0A3.31,3.31,0,0,1,30.58,58.41Z" />
            <polygon style="fill:#324850" points="31.81 78.33 41.67 78.33 42.14 72.83 34.91 71.03 31.81 72.25 31.81 78.33" />
            <line style="fill:none;stroke:#000;stroke-linecap:round;stroke-linejoin:round;stroke-width:0.2750750776998864px" x1="33.12" x2="31.32" y1="69.64" y2="60.73" />
            <line style="fill:none;stroke:#000;stroke-linecap:round;stroke-linejoin:round;stroke-width:0.2750750776998864px" x1="33.77" x2="31.81" y1="72.02" y2="72.25" />
            <polyline style="fill:none;stroke:#000;stroke-linecap:round;stroke-linejoin:round;stroke-width:0.2750750776998864px" points="32.34 78.23 41.7 78 41.76 77.37" />
            <path style="fill:#324850" d="M45,56.38A5.47,5.47,0,0,1,50.7,60c1.26,3.52,5.68,11.56,5.92,15.86a2.23,2.23,0,0,1-.19.92,2.8,2.8,0,0,1-3.17,1.57L51.64,78,44.41,64.4Z" />
            <path style="fill:none;stroke:#000;stroke-linecap:round;stroke-linejoin:round;stroke-width:0.2750750776998864px" d="M48.24,70.7s2.89-6-1.34-10.2" />
            <path style="fill:#fbbc9e" d="M42.72,70.3l-5.34-1s-2.88-1-4.26.58L33.77,72a4.19,4.19,0,0,1,2.33,0c.81.41,6.92,2.43,6.92,2.49S42.72,70.3,42.72,70.3Z" />
            <polygon style="fill:#324850" points="51.64 78 41.9 75.67 41.49 69.97 52.39 71.43 51.64 78" />
            <line style="fill:none;stroke:#000;stroke-linecap:round;stroke-linejoin:round;stroke-width:0.2750750776998864px" x1="41.49" x2="52.39" y1="69.97" y2="71.43" />
            <path style="fill:#7d4c2b" d="M29.38,41.58s-6.29,19.85,4.26,22.14c4.57,1,4.18-1.4,4.18-1.4S33.6,51.48,36,45.56" />
            <path style="fill:#324850" d="M77.49,83.92l-9,40.37H81l5.72-23.46,2.06,23.68h11.42s0-38.89-4.25-40.59Z" />
            <line style="fill:none;stroke:#000;stroke-linecap:round;stroke-linejoin:round;stroke-width:0.46940079796127143px" x1="86.69" x2="81.78" y1="100.83" y2="99.33" />
            <path style="fill:#ffcd51" d="M77.23,56s-5.34,1.42-4.45,15.68l7.89,3Z" />
            <path style="fill:#e68962" d="M57.39,58.36s1.94,4.06,4.12,3.67l2-.66S66,61,65.72,57.85a2.56,2.56,0,0,0-2.82-2.79" />
            <line style="fill:#e68962" x1="58" x2="57.84" y1="56.75" y2="56.95" />
            <path style="fill:#e68962" d="M63.42,55.4l-2.79-5.81a.8.8,0,0,0-1.15-.35h0a.8.8,0,0,0-.32.95l1.63,4-.16.15-2.28-3.92a.75.75,0,0,0-1.17-.09h0a.77.77,0,0,0-.08,1l2.07,4-.18.2-2.42-3.24" />
            <path style="fill:none;stroke:#d1714c;stroke-linecap:round;stroke-linejoin:round;stroke-width:0.4872075579031315px" d="M63.42,55.4A3.76,3.76,0,0,0,61.66,59" />
            <polygon style="fill:#e68962" points="68.27 64.54 64.27 59.23 60.12 61.11 68.48 73.61 68.27 64.54" />
            <path style="fill:#ffcd51" d="M79.83,76.39c1.38,2.21-.39,5.86-2.75,7a4.33,4.33,0,0,1-5.61-1.84l-11.13-16,6.5-4.14Z" />
            <line style="fill:none;stroke:#f9b418;stroke-linecap:round;stroke-linejoin:round;stroke-width:0.3366606737117203px" x1="72.84" x2="74.09" y1="68.31" y2="69.75" />
            <path style="fill:#ffcd51" d="M89.27,52.82l9.53,3c1.39.55,1.45,2.08,1.33,3.73L97.89,87.92l-21.79,0-1.19-28.1A3.81,3.81,0,0,1,77.23,56l8-3.17Z" />
            <polygon style="fill:#e68962" points="93.55 54.14 89.27 52.82 83.61 53.47 81.7 54.25 84.35 58.67 93.55 54.14" />
            <line style="fill:none;stroke:#f9b418;stroke-linecap:round;stroke-linejoin:round;stroke-width:0.3366606737117203px" x1="75.35" x2="75.96" y1="62.37" y2="83.68" />
            <path style="fill:#ffcd51" d="M101.92,58.56c2.07,4.68,5.9,12.22,8,17a4.54,4.54,0,0,1-2.68,6.12h0a5.22,5.22,0,0,1-6-2.24L92.78,62.91a5.06,5.06,0,0,1,2.9-7.1h0A5.08,5.08,0,0,1,101.92,58.56Z" />
            <line style="fill:none;stroke:#f9b418;stroke-linecap:round;stroke-linejoin:round;stroke-width:0.3366606737117203px" x1="98.82" x2="94.15" y1="75.01" y2="65.6" />
            <polygon style="fill:#e68962" points="95.3 88.72 94.26 90.51 95.81 97.08 98.21 92.5 95.3 88.72" />
            <polygon style="fill:#ffcd51" points="101.69 73.81 95.3 88.72 100.17 95.03 109.77 79.54 101.69 73.81" />
            <line style="fill:none;stroke:#f9b418;stroke-linecap:round;stroke-linejoin:round;stroke-width:0.3366606737117203px" x1="100.17" x2="101.69" y1="77.37" y2="73.81" />
            <line style="fill:none;stroke:#f9b418;stroke-linecap:round;stroke-linejoin:round;stroke-width:0.3366606737117203px" x1="98.4" x2="95.78" y1="81.49" y2="87.6" />
            <polygon style="fill:#1d274e" points="93.7 39.95 89.88 48.72 88.65 44.97 93.7 39.95" />
            <path style="fill:#d3724e" d="M81.06,43.71a2.14,2.14,0,1,1-1.7-2.5A2.14,2.14,0,0,1,81.06,43.71Z" />
            <polygon style="fill:#e68962" points="83.31 47.96 83.42 53.71 90.84 53.27 89.62 42.19 83.31 47.96" />
            <path style="fill:#d17554" d="M83.39,52.29s5.25-1.48,5.47-6.45L83.31,48.2Z" />
            <path style="fill:#e68962" d="M81.29,34.05A5.56,5.56,0,0,0,78,38.79c-.16,2.37-.26,6,.54,7.8,1.23,2.74,3.69,4.28,7.3,3.17,0,0,4.25-.67,4.64-7.12C91,35,85.54,32.21,81.29,34.05Z" />
            <path style="fill:#200e0c" d="M88.54,42.7s-.35-.79.14-4.57a1.76,1.76,0,0,0-.22-1.1h0a1.71,1.71,0,0,0-1.84-.86c-4.37,1.07-5.81.93-8,.3,0,0,.87-4.6,8-4.37,11.26.35,8,10.68,2.68,12.8Z" />
            <circle style="fill:#e68962" cx="90.78" cy="43.11" r="2.59" transform="translate(-0.1 0.2) rotate(-0.13)" />
            <path style="fill:none;stroke:#c0523c;stroke-linecap:round;stroke-linejoin:round;stroke-width:0.3172817826271057px" d="M91.86,42.23A1.91,1.91,0,0,0,89.63,44" />
            <path style="fill:#200e0c" d="M83.87,38s-1.54-.27-1.59.56c0,0,0,.56,1.32.76s1.88.14,2-.38S84.6,38.07,83.87,38Z" />
            <path style="fill:#200e0c" d="M78.12,39.37s1.39-.45,1.6.35c0,0,.13.54-1.09.89-.89.25-1.22.1-1.32-.26S77.6,39.49,78.12,39.37Z" />
            <path style="fill:#fff" d="M80,45.19l2.94.08a2,2,0,0,1-1.75.94A1.2,1.2,0,0,1,80,45.19Z" />
            <path style="fill:#200e0c" d="M83.77,41.92a.58.58,0,0,1-1.15,0,.58.58,0,1,1,1.15,0Z" />
            <path style="fill:#200e0c" d="M79.37,42a.53.53,0,1,1-.52-.53A.52.52,0,0,1,79.37,42Z" />
            <path style="fill:none;stroke:#c0523c;stroke-linecap:round;stroke-linejoin:round;stroke-width:0.3172817826271057px" d="M80.49,43.07a.94.94,0,0,0,0,1.26" />
            <rect style="fill:#ffcd51" height="12.64" transform="translate(-4.96 6.14) rotate(-5.7)" width="5.19" x="56.62" y="46.59" />
            <rect style="fill:#324850" height="12.78" transform="matrix(0.97, 0.26, -0.26, 0.97, 16.17, -14.58)" width="5.19" x="60.32" y="47.12" />
            <path style="fill:#e68962" d="M65.36,56.2s-3.13-.15-3.74-.79-1,0-1,0A1.71,1.71,0,0,0,61,57a24.31,24.31,0,0,0,3.6,1.9A3.29,3.29,0,0,0,65.36,56.2Z" />
            <rect style="fill:#e68962" height="1.32" rx="0.66" transform="translate(16.59 -13.07) rotate(15.15)" width="3.34" x="55.78" y="55.18" />
            <rect style="fill:#e68962" height="1.32" rx="0.66" transform="translate(16.25 -13.15) rotate(15.15)" width="3.34" x="55.9" y="53.86" />
            <rect style="fill:#e68962" height="1.32" rx="0.66" transform="translate(15.92 -13.23) rotate(15.15)" width="3.34" x="56.02" y="52.58" />
            <rect style="fill:#e68962" height="1.32" rx="0.66" transform="translate(16.86 -12.92) rotate(15.15)" width="2.22" x="55.9" y="56.24" />
        </g>
    </g>
</svg>