<svg height="154.767" viewBox="0 0 156.601 154.767" width="156.601" xmlns="http://www.w3.org/2000/svg">
  <defs>
    <clipPath id="clip-path">
      <path d="M532.07,609.47h6.3a3.294,3.294,0,0,1-3.244,3A3.056,3.056,0,0,1,532.07,609.47Z" data-name="Path 7311" fill="#fff" id="Path_7311" transform="translate(-532.07 -609.47)" />
    </clipPath>
  </defs>
  <g data-name="Group 10149" id="Group_10149" transform="translate(-109.2 -64.233)">
    <g data-name="Group 10046" id="Group_10046" transform="translate(109.2 64.233)">
      <path d="M67.3,87.942a37.849,37.849,0,0,1,58.233-.725,37.858,37.858,0,0,1,49.173-7.377,83.278,83.278,0,0,0-156.6-.365A37.858,37.858,0,0,1,67.3,87.943Z" data-name="Path 7254" fill="#fff" id="Path_7254" transform="translate(-18.11 -24.74)" />
      <ellipse cx="1.65" cy="0.825" data-name="Ellipse 645" fill="#fff" id="Ellipse_645" rx="1.65" ry="0.825" transform="translate(84.432 85.602)" />
      <ellipse cx="1.65" cy="0.825" data-name="Ellipse 646" fill="#fff" id="Ellipse_646" rx="1.65" ry="0.825" transform="translate(72.877 85.602)" />
    </g>
    <g data-name="Group 10085" id="Group_10085" transform="translate(162.268 130.804)">
      <g data-name="Group 10075" id="Group_10075" transform="translate(11.138)">
        <path d="M460.876,472.9a13.687,13.687,0,0,1,13.116,7.187c1.767,3.436,1.962,7.464,1.7,11.318a17.757,17.757,0,0,0,.047,4.927c.416,1.931,1.556,3.61,2.429,5.382s1.485,3.857.777,5.7c-.417,1.083-1.26,1.986-1.533,3.115-.174.722-.1,1.5-.345,2.2-.486,1.409-2.045,2.1-3.476,2.527a27.305,27.305,0,0,1-20.317-2.1,7.113,7.113,0,0,1-2.747-2.234c-1.2-1.863-.708-4.34-1.412-6.442-.534-1.6-1.731-2.888-2.416-4.427a7.574,7.574,0,0,1-.054-5.958c.956-2.25,2.974-3.953,3.827-6.249,1.032-2.776.215-6.021,1.436-8.717a9.09,9.09,0,0,1,1.82-2.527,11.318,11.318,0,0,1,4.827-3.1,6.828,6.828,0,0,1,5.586.66" data-name="Path 7301" fill="#fff" id="Path_7301" transform="translate(-446.059 -472.185)" />
        <circle cx="10.73" cy="10.73" data-name="Ellipse 649" fill="#fff" id="Ellipse_649" r="10.73" transform="translate(5.839)" />
        <g data-name="Group 10070" id="Group_10070" transform="translate(3.23 15.78)">
          <path d="M474.522,577a3.467,3.467,0,1,1-3.563-3.368A3.467,3.467,0,0,1,474.522,577Z" data-name="Path 7302" fill="#fff" id="Path_7302" transform="translate(-467.589 -573.631)" />
          <path d="M477.58,588.29s1.379-.671,2.693,1.724" data-name="Path 7303" fill="#fff" id="Path_7303" transform="translate(-476.081 -586.017)" />
        </g>
        <g data-name="Group 10071" id="Group_10071" transform="translate(22.826 15.782)">
          <circle cx="3.467" cy="3.467" data-name="Ellipse 650" fill="#fff" id="Ellipse_650" r="3.467" />
          <path d="M619.362,587.992s-1.4-.632-2.642,1.8" data-name="Path 7304" fill="#fff" id="Path_7304" transform="translate(-613.941 -585.776)" />
        </g>
        <path d="M532.78,628.2a8.824,8.824,0,0,1-3.019,1.716,3.915,3.915,0,0,1-2.86-.711l-1.683-1.2-.678,11.414.186.189a5.723,5.723,0,0,0,8.433.081l.362-.357Z" data-name="Path 7305" fill="#fff" id="Path_7305" transform="translate(-512.765 -604.062)" />
        <path d="M524.29,638.2s1.557,5.628,5.145,5.572c2.95-.047,3.425-5.572,3.425-5.572Z" data-name="Path 7306" fill="#fff" id="Path_7306" transform="translate(-512.553 -612.732)" />
        <path d="M510.822,497.769a43.167,43.167,0,0,1-1.071,9.709,8.43,8.43,0,0,1-4.235,5.337l-.4.243a7.551,7.551,0,0,1-7.614.122h0a8.482,8.482,0,0,1-4.546-5.652,63.117,63.117,0,0,1-1.073-9.662s-1.332-10.6,8.88-10.463S510.822,497.769,510.822,497.769Z" data-name="Path 7307" fill="#fff" id="Path_7307" transform="translate(-484.963 -484.558)" />
        <g data-name="Group 10074" id="Group_10074" transform="translate(10.269 11.228)">
          <circle cx="0.827" cy="0.827" data-name="Ellipse 651" fill="#fff" id="Ellipse_651" r="0.827" transform="translate(0.89 3.559)" />
          <circle cx="0.827" cy="0.827" data-name="Ellipse 652" fill="#fff" id="Ellipse_652" r="0.827" transform="translate(8.998 3.559)" />
          <ellipse cx="0.471" cy="1.769" data-name="Ellipse 653" fill="#fff" id="Ellipse_653" rx="0.471" ry="1.769" transform="translate(8.276 1.117) rotate(-84.88)" />
          <ellipse cx="1.769" cy="0.471" data-name="Ellipse 654" fill="#fff" id="Ellipse_654" rx="1.769" ry="0.471" transform="translate(0 0.659) rotate(-10.73)" />
          <path d="M550.984,577.69a2.106,2.106,0,0,0,0,2.594" data-name="Path 7308" fill="#fff" id="Path_7308" transform="translate(-545.154 -572.529)" />
          <g data-name="Group 10073" id="Group_10073" transform="translate(2.635 9.929)">
            <path d="M532.07,609.47h6.3a3.294,3.294,0,0,1-3.244,3A3.056,3.056,0,0,1,532.07,609.47Z" data-name="Path 7309" fill="#fff" id="Path_7309" transform="translate(-532.07 -609.47)" />
            <g clip-path="url(#clip-path)" data-name="Group 10072" id="Group_10072">
              <path d="M532.07,609.47h6.3a3.294,3.294,0,0,1-3.244,3A3.056,3.056,0,0,1,532.07,609.47Z" data-name="Path 7310" fill="#fff" id="Path_7310" transform="translate(-532.07 -609.47)" />
              <rect data-name="Rectangle 900" fill="#fff" height="2.153" id="Rectangle_900" transform="translate(-0.156 1.119)" width="6.189" />
            </g>
          </g>
        </g>
        <path d="M518.59,564.47a1.194,1.194,0,0,0,1.091,1.092" data-name="Path 7312" fill="#fff" id="Path_7312" transform="translate(-507.708 -550.064)" />
        <path d="M582.68,563.83s.167.857-.9,1.065" data-name="Path 7313" fill="#fff" id="Path_7313" transform="translate(-561.418 -549.52)" />
        <path d="M479.271,489.1a1.4,1.4,0,0,0-1.13.432,6.9,6.9,0,0,0-1.961,3.832c-.311,1.431-.416,2.9-.834,4.3a10.051,10.051,0,0,1-1.229,2.632,4.406,4.406,0,0,1-2.311,1.95,2.154,2.154,0,0,1-2.6-1.076,2.071,2.071,0,0,0,1.989-1.217,7.205,7.205,0,0,0,.57-2.409,12.319,12.319,0,0,1,2.771-6.811,4.62,4.62,0,0,1,1.884-1.316,2.507,2.507,0,0,1,2.222.26" data-name="Path 7314" fill="#fff" id="Path_7314" transform="translate(-465.737 -485.985)" />
        <path d="M532.09,483.538c-.432,1.2.509,2.434,1.424,3.326a38.593,38.593,0,0,0,5.827,4.666,13.017,13.017,0,0,1,3.263,2.57c.638.8,1.089,1.814,1.985,2.31a2.294,2.294,0,0,0,3.334-2.587c-.258.765-1.484.678-1.973.036a4.279,4.279,0,0,1-.546-2.322,10.018,10.018,0,0,0-4.694-7.767,8.586,8.586,0,0,0-8.942.119l-.387-.951" data-name="Path 7315" fill="#fff" id="Path_7315" transform="translate(-518.579 -480.455)" />
      </g>
      <g data-name="Group 10084" id="Group_10084" transform="translate(0 19.296)">
        <g data-name="Group 10079" id="Group_10079" transform="translate(36.965)">
          <g data-name="Group 10078" id="Group_10078">
            <path d="M641.039,791.894,618.2,780.988l11.324-6.738,10.142,6.28Z" data-name="Path 7316" fill="#fff" id="Path_7316" transform="translate(-618.2 -747.666)" />
            <g data-name="Group 10077" id="Group_10077" transform="translate(14.728)">
              <path d="M743.7,699.738l3.451-1.238,6.1,24.047a4.22,4.22,0,0,1-3.6,5.533h0a4.219,4.219,0,0,1-4.576-3.613Z" data-name="Path 7317" fill="#fff" id="Path_7317" transform="translate(-739.599 -683.281)" />
              <g data-name="Group 10076" id="Group_10076">
                <path d="M720.468,613.518l-1.65-1.814a8.15,8.15,0,0,1-1.82-3.313l-.6-2.169a.864.864,0,0,1,.75-1.088h0a1.106,1.106,0,0,1,1.091.585l1.11,2.114.309-9.343a.671.671,0,0,1,.762-.654l.269.038a.671.671,0,0,1,.575.623v5.538l.891-6.36a.669.669,0,0,1,.8-.6l.195.039a.668.668,0,0,1,.534.707l-.731,6.645,1.562-5.2a.669.669,0,0,1,.95-.411l.076.041a.671.671,0,0,1,.347.714l-1.041,5.6,1.067-3.3a.669.669,0,0,1,1.1-.279h0a.669.669,0,0,1,.191.63l-2.767,12.385Z" data-name="Path 7318" fill="#fff" id="Path_7318" transform="translate(-716.367 -597.061)" />
                <path d="M736.29,665.18a4.412,4.412,0,0,1,2.747,2.536" data-name="Path 7319" fill="#fff" id="Path_7319" transform="translate(-733.301 -654.96)" />
              </g>
              <line data-name="Line 89" fill="#fff" id="Line_89" transform="translate(4.938 33.044)" x2="0.47" y2="5.875" />
            </g>
          </g>
          <path d="M622.83,723.52c8.474,2.57,16.331,10.754,16.331,10.754l-1.142,12.8-16.289-8.529Z" data-name="Path 7320" fill="#fff" id="Path_7320" transform="translate(-621.2 -704.547)" />
        </g>
        <g data-name="Group 10083" id="Group_10083" transform="translate(0 22.161)">
          <g data-name="Group 10081" id="Group_10081" transform="translate(0 11.764)">
            <path d="M376.738,823.18l-4.855,17.489c-.552,2.78,2.735,5.934,5.4,6.642h0c2.636.7,2.078-1.367,2.77-4.073l6.616-16.546Z" data-name="Path 7321" fill="#fff" id="Path_7321" transform="translate(-371.821 -823.18)" />
            <g data-name="Group 10080" id="Group_10080" transform="translate(0.531 14.808)">
              <path d="M375.36,926.586c.86,3.571,12.144,11.452,12.144,11.452l6.468.057L382.234,921.88Z" data-name="Path 7322" fill="#fff" id="Path_7322" transform="translate(-375.36 -921.88)" />
              <path d="M451.982,1004.96a5.743,5.743,0,0,0,3.271.5.972.972,0,0,0,.242-1.815c-2.112-1.086-6.561-3.628-8.315-4.262l-3.053-.851-2.876,2.858,2.258,1.8s.543,2.858,1.65,3.83C445.154,1007.019,449.931,1007.761,451.982,1004.96Z" data-name="Path 7323" fill="#fff" id="Path_7323" transform="translate(-431.364 -987.03)" />
            </g>
            <line data-name="Line 90" fill="#fff" id="Line_90" transform="translate(7.405 14.1)" x1="1.886" y1="2.605" />
          </g>
          <g data-name="Group 10082" id="Group_10082" transform="translate(0.948)">
            <path d="M388.383,744.77A45.645,45.645,0,0,0,378.14,768.4l13.977,4.651,6.918-20.382Z" data-name="Path 7324" fill="#fff" id="Path_7324" transform="translate(-378.14 -744.77)" />
            <line data-name="Line 91" fill="#fff" id="Line_91" transform="translate(10.715 12.592)" x1="0.716" y1="7.941" />
          </g>
        </g>
        <path d="M560.279,701.08s7.547,2.83,11.084,8.018-2.833,27.118-2.833,27.118-2.358,11.32,2.594,18.154H554.15V706.5Z" data-name="Path 7325" fill="#fff" id="Path_7325" transform="translate(-526.795 -685.474)" />
        <path d="M444.434,701.08s-7.547,2.83-11.083,8.018,2.83,27.118,2.83,27.118,2.357,11.32-2.594,18.154h16.979V706.5Z" data-name="Path 7326" fill="#fff" id="Path_7326" transform="translate(-423.211 -685.474)" />
        <path d="M554.15,706.5l6.129-5.424s7.547,2.83,11.084,8.018" data-name="Path 7327" fill="#fff" id="Path_7327" transform="translate(-526.795 -685.474)" />
      </g>
      <line data-name="Line 92" fill="#fff" id="Line_92" transform="translate(20.988 35.138)" x2="6.3" y2="6.405" />
      <circle cx="0.593" cy="0.593" data-name="Ellipse 655" fill="#fff" id="Ellipse_655" r="0.593" transform="translate(26.782 44.357)" />
      <circle cx="0.593" cy="0.593" data-name="Ellipse 656" fill="#fff" id="Ellipse_656" r="0.593" transform="translate(26.782 48.948)" />
      <circle cx="0.593" cy="0.593" data-name="Ellipse 657" fill="#fff" id="Ellipse_657" r="0.593" transform="translate(26.782 53.687)" />
      <path d="M513.28,695.142a18.624,18.624,0,0,1,12.262,0l-6.13,5.424Z" data-name="Path 7328" fill="#fff" id="Path_7328" transform="translate(-492.057 -660.24)" />
      <path d="M517.708,706.5l-6.132-5.424S509.217,708.625,517.708,706.5Z" data-name="Path 7329" fill="#fff" id="Path_7329" transform="translate(-490.352 -666.178)" />
      <path d="M553.71,706.5l6.132-5.424S562.2,708.625,553.71,706.5Z" data-name="Path 7330" fill="#fff" id="Path_7330" transform="translate(-526.421 -666.178)" />
      <path d="M449.149,808a42.8,42.8,0,0,0,.416,18.056" data-name="Path 7331" fill="#fff" id="Path_7331" transform="translate(-436.887 -757.057)" />
      <path d="M649.976,808a42.8,42.8,0,0,1-.416,18.056" data-name="Path 7332" fill="#fff" id="Path_7332" transform="translate(-607.89 -757.057)" />
    </g>
    <path d="M6536.153,3061.157l-4.035-18.76a1.789,1.789,0,0,1-.036-.25l-.928-4.6-.33.182,3.086,23.43h-32.459l2.79-23.178-.78-.435-.93,4.612a1.716,1.716,0,0,1-.036.241l-4.036,18.76h-3.9c.4-4.973,1.137-13.359,1.943-19.678,0-.025.006-.049.01-.074l1.054-7.145-3.03-1.69s2.894-6.369,5.261-12.474c2.254-5.81,6.547-6.56,6.914-6.614.463-.146.923-.26,1.333-.346l6.176-1.623.277-4.923h-11.126a3.112,3.112,0,0,0,.537-1.532,6.121,6.121,0,0,0-.159-2.25,10.193,10.193,0,0,1,2.083-9.177,14.277,14.277,0,0,0,2.209-5.435,10.374,10.374,0,0,1,9.633-7.038,10.561,10.561,0,0,1,9.647,7.2,12.044,12.044,0,0,0,2.2,5.266,9.984,9.984,0,0,1,2.08,9.175,6.108,6.108,0,0,0-.156,2.252,3.148,3.148,0,0,0,.536,1.539h-11.2l.311,4.911,6.54,1.779a9.057,9.057,0,0,1,2.46.97v.046a10.791,10.791,0,0,1,4.717,5.8c2.369,6.1,5.261,12.474,5.261,12.474l-3.025,1.687,1.055,7.151c0,.023.008.048.011.071.808,6.32,1.54,14.706,1.944,19.678Z" data-name="Intersection 2" fill="#f3f3f3" id="Intersection_2" transform="translate(-6293.264 -2842.158)" />
    <path d="M6488.359,3061.157c1.994-12.153,4.933-28.046,7.811-36.162,2.52-7.1,7.247-8.291,7.247-8.291l0,0,2.948-1.311,5.368-2.327.7-8.628c-.035-.125-.067-.246-.1-.365a6.914,6.914,0,0,1-3.129-3.94q-.049-.209-.093-.419a2.972,2.972,0,0,1-1.191.253h0a2.961,2.961,0,0,1,0-5.921h.01a17.085,17.085,0,0,1-.518-2.7c-.728-2.608-1.213-7.485,4.045-10.165,6.762-3.444,10.576,1.721,10.576,1.721l0,.007c6.279,1.761,4.152,7.991,3.4,9.766-.1.447-.236.913-.4,1.4a2.96,2.96,0,0,1-.386,5.895c-.03,0-.059,0-.09,0a2.936,2.936,0,0,1-.937-.181c-.026.131-.052.261-.079.393a6.692,6.692,0,0,1-2.957,3.948c-.023.048-.047.1-.072.143l.667,8.922,5.31,2.183,4.134,1.736a4.555,4.555,0,0,1,2.8,4.2v39.846Zm45.059-30.233v0Z" data-name="Intersection 1" fill="#f3f3f3" id="Intersection_1" transform="translate(-6363.264 -2842.158)" />
    <g data-name="Group 10123" id="Group_10123" transform="translate(162.268 130.804)">
      <path d="M460.876,472.9a13.687,13.687,0,0,1,13.116,7.187c1.767,3.436,1.962,7.464,1.7,11.318a17.757,17.757,0,0,0,.047,4.927c.416,1.931,1.556,3.61,2.429,5.382s1.485,3.857.777,5.7c-.417,1.083-1.26,1.986-1.533,3.115-.174.722-.1,1.5-.345,2.2-.486,1.409-2.045,2.1-3.476,2.527a27.305,27.305,0,0,1-20.317-2.1,7.113,7.113,0,0,1-2.747-2.234c-1.2-1.863-.708-4.34-1.412-6.442-.534-1.6-1.731-2.888-2.416-4.427a7.574,7.574,0,0,1-.054-5.958c.956-2.25,2.974-3.953,3.827-6.249,1.032-2.776.215-6.021,1.436-8.717a9.09,9.09,0,0,1,1.82-2.527,11.318,11.318,0,0,1,4.827-3.1,6.828,6.828,0,0,1,5.586.66" data-name="Path 7379" fill="#8d807e" id="Path_7379" transform="translate(-434.921 -472.185)" />
      <circle cx="10.73" cy="10.73" data-name="Ellipse 660" fill="#8d807e" id="Ellipse_660" r="10.73" transform="translate(16.978)" />
      <g data-name="Group 10109" id="Group_10109" transform="translate(14.368 15.781)">
        <path d="M474.522,577a3.467,3.467,0,1,1-3.563-3.368A3.467,3.467,0,0,1,474.522,577Z" data-name="Path 7380" fill="#ffdfda" id="Path_7380" transform="translate(-467.589 -573.631)" />
        <path d="M477.58,588.29s1.379-.671,2.693,1.724" data-name="Path 7381" fill="none" id="Path_7381" stroke="#dea79c" stroke-linecap="round" stroke-linejoin="round" stroke-width="0.75" transform="translate(-476.081 -586.017)" />
      </g>
      <g data-name="Group 10110" id="Group_10110" transform="translate(33.964 15.782)">
        <circle cx="3.467" cy="3.467" data-name="Ellipse 661" fill="#ffdfda" id="Ellipse_661" r="3.467" />
        <path d="M619.362,587.992s-1.4-.632-2.642,1.8" data-name="Path 7382" fill="none" id="Path_7382" stroke="#dea79c" stroke-linecap="round" stroke-linejoin="round" stroke-width="0.75" transform="translate(-613.941 -585.776)" />
      </g>
      <path d="M532.78,628.2a8.824,8.824,0,0,1-3.019,1.716,3.915,3.915,0,0,1-2.86-.711l-1.683-1.2-.678,11.414.186.189a5.723,5.723,0,0,0,8.433.081l.362-.357Z" data-name="Path 7383" fill="#ffdfda" id="Path_7383" transform="translate(-501.627 -604.063)" />
      <path d="M524.29,638.2s1.557,5.628,5.145,5.572c2.95-.047,3.425-5.572,3.425-5.572Z" data-name="Path 7384" fill="#fad0cc" id="Path_7384" transform="translate(-501.415 -612.732)" />
      <path d="M510.822,497.769a43.167,43.167,0,0,1-1.071,9.709,8.43,8.43,0,0,1-4.235,5.337l-.4.243a7.551,7.551,0,0,1-7.614.122h0a8.482,8.482,0,0,1-4.546-5.652,63.117,63.117,0,0,1-1.073-9.662s-1.332-10.6,8.88-10.463S510.822,497.769,510.822,497.769Z" data-name="Path 7385" fill="#ffdfda" id="Path_7385" transform="translate(-473.825 -484.558)" />
      <circle cx="0.827" cy="0.827" data-name="Ellipse 662" fill="#1d0300" id="Ellipse_662" r="0.827" transform="translate(22.297 14.787)" />
      <circle cx="0.827" cy="0.827" data-name="Ellipse 663" fill="#1d0300" id="Ellipse_663" r="0.827" transform="translate(30.405 14.787)" />
      <ellipse cx="0.471" cy="1.769" data-name="Ellipse 664" id="Ellipse_664" rx="0.471" ry="1.769" transform="translate(29.683 12.345) rotate(-84.88)" />
      <ellipse cx="1.769" cy="0.471" data-name="Ellipse 665" id="Ellipse_665" rx="1.769" ry="0.471" transform="translate(21.407 11.887) rotate(-10.73)" />
      <path d="M550.984,577.69a2.106,2.106,0,0,0,0,2.594" data-name="Path 7386" fill="none" id="Path_7386" stroke="#dea79c" stroke-linecap="round" stroke-linejoin="round" stroke-width="0.75" transform="translate(-523.747 -561.3)" />
      <path d="M532.07,609.47h6.3a3.294,3.294,0,0,1-3.244,3A3.056,3.056,0,0,1,532.07,609.47Z" data-name="Path 7387" fill="#fff" id="Path_7387" transform="translate(-508.028 -588.313)" />
      <path d="M6246.961,2837.158a2.8,2.8,0,0,1-2.835-1.961h5.792A3.02,3.02,0,0,1,6246.961,2837.158Z" data-name="Subtraction 1" fill="#dea79c" id="Subtraction_1" transform="translate(-6219.862 -2813)" />
      <path d="M532.07,609.47h6.3a3.294,3.294,0,0,1-3.244,3A3.056,3.056,0,0,1,532.07,609.47Z" data-name="Path 7388" fill="none" id="Path_7388" transform="translate(-508.028 -588.313)" />
      <path d="M518.59,564.47a1.194,1.194,0,0,0,1.091,1.092" data-name="Path 7389" fill="#1d0300" id="Path_7389" transform="translate(-496.57 -550.064)" />
      <path d="M582.68,563.83s.167.857-.9,1.065" data-name="Path 7390" fill="#1d0300" id="Path_7390" transform="translate(-550.279 -549.52)" />
      <path d="M479.271,489.1a1.4,1.4,0,0,0-1.13.432,6.9,6.9,0,0,0-1.961,3.832c-.311,1.431-.416,2.9-.834,4.3a10.051,10.051,0,0,1-1.229,2.632,4.406,4.406,0,0,1-2.311,1.95,2.154,2.154,0,0,1-2.6-1.076,2.071,2.071,0,0,0,1.989-1.217,7.205,7.205,0,0,0,.57-2.409,12.319,12.319,0,0,1,2.771-6.811,4.62,4.62,0,0,1,1.884-1.316,2.507,2.507,0,0,1,2.222.26" data-name="Path 7391" fill="#8d807e" id="Path_7391" transform="translate(-454.599 -485.985)" />
      <path d="M532.09,483.538c-.432,1.2.509,2.434,1.424,3.326a38.593,38.593,0,0,0,5.827,4.666,13.017,13.017,0,0,1,3.263,2.57c.638.8,1.089,1.814,1.985,2.31a2.294,2.294,0,0,0,3.334-2.587c-.258.765-1.484.678-1.973.036a4.279,4.279,0,0,1-.546-2.322,10.018,10.018,0,0,0-4.694-7.767,8.586,8.586,0,0,0-8.942.119l-.387-.951" data-name="Path 7392" fill="#8d807e" id="Path_7392" transform="translate(-507.441 -480.455)" />
      <g data-name="Group 10122" id="Group_10122" transform="translate(0 19.296)">
        <g data-name="Group 10117" id="Group_10117" transform="translate(36.965)">
          <g data-name="Group 10116" id="Group_10116">
            <path d="M641.039,791.894,618.2,780.988l11.324-6.738,10.142,6.28Z" data-name="Path 7393" fill="#ffdfda" id="Path_7393" transform="translate(-618.2 -747.666)" />
            <g data-name="Group 10115" id="Group_10115" transform="translate(14.728)">
              <path d="M743.7,699.738l3.451-1.238,6.1,24.047a4.22,4.22,0,0,1-3.6,5.533h0a4.219,4.219,0,0,1-4.576-3.613Z" data-name="Path 7394" fill="#ffdfda" id="Path_7394" transform="translate(-739.599 -683.281)" />
              <g data-name="Group 10114" id="Group_10114">
                <path d="M720.468,613.518l-1.65-1.814a8.15,8.15,0,0,1-1.82-3.313l-.6-2.169a.864.864,0,0,1,.75-1.088h0a1.106,1.106,0,0,1,1.091.585l1.11,2.114.309-9.343a.671.671,0,0,1,.762-.654l.269.038a.671.671,0,0,1,.575.623v5.538l.891-6.36a.669.669,0,0,1,.8-.6l.195.039a.668.668,0,0,1,.534.707l-.731,6.645,1.562-5.2a.669.669,0,0,1,.95-.411l.076.041a.671.671,0,0,1,.347.714l-1.041,5.6,1.067-3.3a.669.669,0,0,1,1.1-.279h0a.669.669,0,0,1,.191.63l-2.767,12.385Z" data-name="Path 7395" fill="#ffdfda" id="Path_7395" transform="translate(-716.367 -597.061)" />
                <path d="M736.29,665.18a4.412,4.412,0,0,1,2.747,2.536" data-name="Path 7396" fill="none" id="Path_7396" stroke="#dea79c" stroke-linecap="round" stroke-linejoin="round" stroke-width="0.75" transform="translate(-733.301 -654.96)" />
              </g>
              <line data-name="Line 95" fill="none" id="Line_95" stroke="#dea79c" stroke-linecap="round" stroke-linejoin="round" stroke-width="0.75" transform="translate(4.938 33.044)" x2="0.47" y2="5.875" />
            </g>
          </g>
          <path d="M622.83,723.52c8.474,2.57,16.331,10.754,16.331,10.754l-1.142,12.8-16.289-8.529Z" data-name="Path 7397" fill="#fbdf83" id="Path_7397" transform="translate(-621.2 -704.547)" />
        </g>
        <g data-name="Group 10121" id="Group_10121" transform="translate(0 22.161)">
          <g data-name="Group 10119" id="Group_10119" transform="translate(0 11.764)">
            <path d="M376.738,823.18l-4.855,17.489c-.552,2.78,2.735,5.934,5.4,6.642h0c2.636.7,2.078-1.367,2.77-4.073l6.616-16.546Z" data-name="Path 7398" fill="#ffdfda" id="Path_7398" transform="translate(-371.821 -823.18)" />
            <g data-name="Group 10118" id="Group_10118" transform="translate(0.531 14.808)">
              <path d="M375.36,926.586c.86,3.571,12.144,11.452,12.144,11.452l6.468.057L382.234,921.88Z" data-name="Path 7399" fill="#ffdfda" id="Path_7399" transform="translate(-375.36 -921.88)" />
              <path d="M451.982,1004.96a5.743,5.743,0,0,0,3.271.5.972.972,0,0,0,.242-1.815c-2.112-1.086-6.561-3.628-8.315-4.262l-3.053-.851-2.876,2.858,2.258,1.8s.543,2.858,1.65,3.83C445.154,1007.019,449.931,1007.761,451.982,1004.96Z" data-name="Path 7400" fill="#ffdfda" id="Path_7400" transform="translate(-431.364 -987.03)" />
            </g>
            <line data-name="Line 96" fill="none" id="Line_96" stroke="#dea79c" stroke-linecap="round" stroke-linejoin="round" stroke-width="0.75" transform="translate(7.405 14.1)" x1="1.886" y1="2.605" />
          </g>
          <g data-name="Group 10120" id="Group_10120" transform="translate(0.948)">
            <path d="M388.383,744.77A45.645,45.645,0,0,0,378.14,768.4l13.977,4.651,6.918-20.382Z" data-name="Path 7401" fill="#fbdf83" id="Path_7401" transform="translate(-378.14 -744.77)" />
            <line data-name="Line 97" fill="none" id="Line_97" stroke="#000" stroke-linecap="round" stroke-linejoin="round" stroke-width="0.95" transform="translate(10.715 12.592)" x1="0.716" y1="7.941" />
          </g>
        </g>
        <path d="M560.279,701.08s7.547,2.83,11.084,8.018-2.833,27.118-2.833,27.118-2.358,11.32,2.594,18.154H554.15V706.5Z" data-name="Path 7402" fill="#fbdf83" id="Path_7402" transform="translate(-526.795 -685.474)" />
        <path d="M444.434,701.08s-7.547,2.83-11.083,8.018,2.83,27.118,2.83,27.118,2.357,11.32-2.594,18.154h16.979V706.5Z" data-name="Path 7403" fill="#fbdf83" id="Path_7403" transform="translate(-423.211 -685.474)" />
        <path d="M554.15,706.5l6.129-5.424s7.547,2.83,11.084,8.018" data-name="Path 7404" fill="#fbdf83" id="Path_7404" transform="translate(-526.795 -685.474)" />
      </g>
      <line data-name="Line 98" fill="#ffc0b6" id="Line_98" transform="translate(20.988 35.138)" x2="6.3" y2="6.405" />
      <circle cx="0.593" cy="0.593" data-name="Ellipse 666" fill="#fff" id="Ellipse_666" r="0.593" transform="translate(26.782 44.357)" />
      <circle cx="0.593" cy="0.593" data-name="Ellipse 667" fill="#fff" id="Ellipse_667" r="0.593" transform="translate(26.782 48.948)" />
      <circle cx="0.593" cy="0.593" data-name="Ellipse 668" fill="#fff" id="Ellipse_668" r="0.593" transform="translate(26.782 53.687)" />
      <path d="M513.28,695.142a18.624,18.624,0,0,1,12.262,0l-6.13,5.424Z" data-name="Path 7405" fill="#ffdfda" id="Path_7405" transform="translate(-492.057 -660.24)" />
      <path d="M517.708,706.5l-6.132-5.424S509.217,708.625,517.708,706.5Z" data-name="Path 7406" fill="#fff" id="Path_7406" transform="translate(-490.352 -666.178)" />
      <path d="M553.71,706.5l6.132-5.424S562.2,708.625,553.71,706.5Z" data-name="Path 7407" fill="#fff" id="Path_7407" transform="translate(-526.421 -666.178)" />
      <path d="M449.149,808a42.8,42.8,0,0,0,.416,18.056" data-name="Path 7408" fill="none" id="Path_7408" stroke="#ecd185" stroke-miterlimit="10" stroke-width="1" transform="translate(-436.887 -757.057)" />
      <path d="M649.976,808a42.8,42.8,0,0,1-.416,18.056" data-name="Path 7409" fill="none" id="Path_7409" stroke="#ecd185" stroke-miterlimit="10" stroke-width="1" transform="translate(-607.89 -757.057)" />
    </g>
    <path d="M67.3,87.942a37.849,37.849,0,0,1,58.233-.725,37.858,37.858,0,0,1,49.173-7.377,83.278,83.278,0,0,0-156.6-.365A37.858,37.858,0,0,1,67.3,87.943Z" data-name="Path 7410" fill="#fbdf83" id="Path_7410" transform="translate(91.09 39.493)" />
    <ellipse cx="1.65" cy="0.825" data-name="Ellipse 669" fill="#ffd2d5" id="Ellipse_669" rx="1.65" ry="0.825" transform="translate(193.632 149.835)" />
    <ellipse cx="1.65" cy="0.825" data-name="Ellipse 670" fill="#ffd2d5" id="Ellipse_670" rx="1.65" ry="0.825" transform="translate(182.076 149.835)" />
  </g>
</svg>
