<svg height="22.705" viewBox="0 0 74.167 22.705" width="74.167" xmlns="http://www.w3.org/2000/svg">
    <g data-name="Layer 3" id="Layer_3" transform="translate(-1.406 1)">
        <g data-name="Group 9917" id="Group_9917" transform="translate(1.406 -1)">
            <path
                d="M3.78-8.224a1.145,1.145,0,0,1-.346.841,1.145,1.145,0,0,1-.841.346,1.145,1.145,0,0,1-.841-.346,1.145,1.145,0,0,1-.346-.841v-7.4a4.606,4.606,0,0,1,1.4-3.38,4.606,4.606,0,0,1,3.38-1.4,4.616,4.616,0,0,1,3.388,1.4,4.606,4.606,0,0,1,1.4,3.38,4.616,4.616,0,0,1-1.4,3.388,4.616,4.616,0,0,1-3.388,1.4,4.684,4.684,0,0,1-2.407-.651Zm2.407-9.81a2.313,2.313,0,0,0-1.7.7,2.326,2.326,0,0,0-.709,1.706,2.326,2.326,0,0,0,.709,1.706,2.3,2.3,0,0,0,1.7.709,2.326,2.326,0,0,0,1.706-.709A2.326,2.326,0,0,0,8.6-15.627a2.326,2.326,0,0,0-.709-1.706A2.34,2.34,0,0,0,6.187-18.034Zm15.267,6.01a1.131,1.131,0,0,1-.354.841,1.135,1.135,0,0,1-.833.346,1.1,1.1,0,0,1-1.088-.709,4.714,4.714,0,0,1-2.514.709,4.606,4.606,0,0,1-3.38-1.4,4.606,4.606,0,0,1-1.4-3.38,4.616,4.616,0,0,1,1.4-3.388,4.606,4.606,0,0,1,3.38-1.4,4.616,4.616,0,0,1,3.388,1.4,4.616,4.616,0,0,1,1.4,3.388Zm-3.083-5.3a2.326,2.326,0,0,0-1.706-.709,2.3,2.3,0,0,0-1.7.709,2.326,2.326,0,0,0-.709,1.706,2.326,2.326,0,0,0,.709,1.706,2.313,2.313,0,0,0,1.7.7,2.34,2.34,0,0,0,1.706-.7,2.326,2.326,0,0,0,.709-1.706A2.326,2.326,0,0,0,18.371-17.325Zm11.6-1.9a1.145,1.145,0,0,1,.346-.841,1.145,1.145,0,0,1,.841-.346,1.145,1.145,0,0,1,.841.346,1.145,1.145,0,0,1,.346.841v7.741a4.606,4.606,0,0,1-1.4,3.38,4.606,4.606,0,0,1-3.38,1.4,4.778,4.778,0,0,1-2.193-.528A4.8,4.8,0,0,1,23.664-8.7a1.167,1.167,0,0,1-.206-.882,1.127,1.127,0,0,1,.486-.767,1.122,1.122,0,0,1,.882-.206,1.1,1.1,0,0,1,.767.478,2.394,2.394,0,0,0,.866.742,2.373,2.373,0,0,0,1.1.264,2.3,2.3,0,0,0,1.7-.709,2.309,2.309,0,0,0,.709-1.706,4.684,4.684,0,0,1-2.407.651,4.616,4.616,0,0,1-3.388-1.4,4.616,4.616,0,0,1-1.4-3.388v-3.594a1.145,1.145,0,0,1,.346-.841,1.145,1.145,0,0,1,.841-.346,1.145,1.145,0,0,1,.841.346,1.145,1.145,0,0,1,.346.841v3.594a2.326,2.326,0,0,0,.709,1.706,2.309,2.309,0,0,0,1.706.709,2.3,2.3,0,0,0,1.7-.709,2.326,2.326,0,0,0,.709-1.706Zm10.89,0a1.135,1.135,0,0,1,.346-.833,1.131,1.131,0,0,1,.841-.354,1.122,1.122,0,0,1,.833.354,1.122,1.122,0,0,1,.354.833v3.6a4.606,4.606,0,0,1-1.4,3.38,4.616,4.616,0,0,1-3.388,1.4,4.606,4.606,0,0,1-3.38-1.4,4.606,4.606,0,0,1-1.4-3.38v-3.6a1.135,1.135,0,0,1,.346-.833,1.131,1.131,0,0,1,.841-.354,1.131,1.131,0,0,1,.841.354,1.135,1.135,0,0,1,.346.833v3.6a2.326,2.326,0,0,0,.709,1.706,2.313,2.313,0,0,0,1.7.7,2.34,2.34,0,0,0,1.706-.7,2.326,2.326,0,0,0,.709-1.706Zm10.89,0a1.135,1.135,0,0,1,.346-.833,1.131,1.131,0,0,1,.841-.354,1.122,1.122,0,0,1,.833.354,1.122,1.122,0,0,1,.354.833v3.6a4.606,4.606,0,0,1-1.4,3.38,4.616,4.616,0,0,1-3.388,1.4,4.606,4.606,0,0,1-3.38-1.4,4.606,4.606,0,0,1-1.4-3.38v-3.6a1.135,1.135,0,0,1,.346-.833,1.131,1.131,0,0,1,.841-.354,1.131,1.131,0,0,1,.841.354,1.135,1.135,0,0,1,.346.833v3.6a2.326,2.326,0,0,0,.709,1.706,2.313,2.313,0,0,0,1.7.7,2.34,2.34,0,0,0,1.706-.7,2.326,2.326,0,0,0,.709-1.706Zm13.264,7.2a1.131,1.131,0,0,1-.354.841,1.135,1.135,0,0,1-.833.346,1.145,1.145,0,0,1-.841-.346,1.145,1.145,0,0,1-.346-.841v-3.594a2.326,2.326,0,0,0-.709-1.706,2.326,2.326,0,0,0-1.706-.709,2.3,2.3,0,0,0-1.7.709,2.326,2.326,0,0,0-.709,1.706v3.594a1.145,1.145,0,0,1-.346.841,1.145,1.145,0,0,1-.841.346,1.145,1.145,0,0,1-.841-.346,1.145,1.145,0,0,1-.346-.841v-3.594a4.616,4.616,0,0,1,1.4-3.388,4.606,4.606,0,0,1,3.38-1.4,4.616,4.616,0,0,1,3.388,1.4,4.616,4.616,0,0,1,1.4,3.388Zm10.56.429a4.606,4.606,0,0,1-1.4,3.38,4.616,4.616,0,0,1-3.388,1.4,4.748,4.748,0,0,1-1.995-.437,4.732,4.732,0,0,1-1.632-1.237,1.171,1.171,0,0,1-.289-.866,1.162,1.162,0,0,1,.412-.808,1.128,1.128,0,0,1,.866-.28,1.162,1.162,0,0,1,.808.412,2.419,2.419,0,0,0,.824.627,2.4,2.4,0,0,0,1.006.214A2.326,2.326,0,0,0,72.49-9.9a2.322,2.322,0,0,0,.7-1.591,4.73,4.73,0,0,1-2.407.643,4.606,4.606,0,0,1-3.38-1.4,4.606,4.606,0,0,1-1.4-3.38,4.606,4.606,0,0,1,1.4-3.38,4.606,4.606,0,0,1,3.38-1.4,4.616,4.616,0,0,1,3.388,1.4,4.606,4.606,0,0,1,1.4,3.38ZM72.49-17.333a2.34,2.34,0,0,0-1.706-.7,2.313,2.313,0,0,0-1.7.7,2.326,2.326,0,0,0-.709,1.706,2.326,2.326,0,0,0,.709,1.706,2.313,2.313,0,0,0,1.7.7,2.34,2.34,0,0,0,1.706-.7,2.326,2.326,0,0,0,.709-1.706A2.326,2.326,0,0,0,72.49-17.333Z"
                data-name="Path 7175" fill="#e5e5e5" id="Path_7175" transform="translate(-1.406 29.405)" />
            <path d="M462.12,18.938s4.153-5.925,10.81-5.863,11.105,5.863,11.105,5.863-4.242-2.68-7.765,0a5.819,5.819,0,0,0-7.252,0A5.31,5.31,0,0,0,462.12,18.938Z" data-name="Path 7174" fill="#e5e5e5" id="Path_7174" transform="translate(-429.351 -13.074)" />
        </g>
    </g>
</svg>
